<svg width="20" height="21" viewBox="0 0 20 21" fill="none" xmlns="http://www.w3.org/2000/svg">
<rect x="0.000976562" y="0.0566406" width="3.63641" height="3.63641" fill="#D9D9D9"/>
<rect x="5.45508" y="0.0566406" width="3.63641" height="3.63641" fill="#D9D9D9"/>
<rect x="10.9111" y="0.0566406" width="3.63641" height="3.63641" fill="#D9D9D9"/>
<rect x="16.3652" y="0.0566406" width="3.63641" height="3.63641" fill="#D9D9D9"/>
<rect x="0.000976562" y="5.51123" width="3.63641" height="3.63641" fill="#D9D9D9"/>
<rect x="0.000976562" y="10.9658" width="3.63641" height="3.63641" fill="#D9D9D9"/>
<rect x="0.000976562" y="16.4204" width="3.63641" height="3.63641" fill="#D9D9D9"/>
<rect x="5.45508" y="5.51123" width="3.63641" height="3.63641" fill="#D9D9D9"/>
<rect x="5.45508" y="10.9658" width="3.63641" height="3.63641" fill="#D9D9D9"/>
<rect x="5.45508" y="16.4204" width="3.63641" height="3.63641" fill="#D9D9D9"/>
<rect x="10.9111" y="5.51123" width="3.63641" height="3.63641" fill="#D9D9D9"/>
<rect x="10.9111" y="10.9658" width="3.63641" height="3.63641" fill="#D9D9D9"/>
<rect x="10.9111" y="16.4204" width="3.63641" height="3.63641" fill="#D9D9D9"/>
<rect x="16.3652" y="5.51123" width="3.63641" height="3.63641" fill="#D9D9D9"/>
<rect x="16.3652" y="10.9658" width="3.63641" height="3.63641" fill="#D9D9D9"/>
<rect x="16.3652" y="16.4204" width="3.63641" height="3.63641" fill="#D9D9D9"/>
</svg>
