<svg width="120" height="120" viewBox="0 0 120 120" fill="none" xmlns="http://www.w3.org/2000/svg">
<rect x="1" y="1" width="118" height="118" rx="59" stroke="#F2F7FF" stroke-width="2" stroke-dasharray="2 2"/>
<path d="M98.0371 66.7291C97.793 64.0163 97.1449 62.1606 96.0621 61.0779C94.3076 59.3234 91.0966 58.007 86.9558 57.3298V54.9513C86.9558 52.9323 85.6307 51.1479 83.7663 50.5119C82.0485 44.0641 77.9932 42.1405 71.0588 41.6566C70.4132 41.6133 69.8532 42.0983 69.8082 42.7441C69.763 43.3898 70.2499 43.9496 70.8955 43.9948C78.1252 44.4993 80.1318 46.6976 81.3151 50.4685C80.4968 50.8346 79.9244 51.6549 79.9244 52.6077V61.2015C79.9244 62.4938 80.9758 63.5452 82.2682 63.5452C84.5674 63.5452 86.4838 61.8809 86.8794 59.694C90.3468 60.2966 93.0516 61.3824 94.4048 62.7356C94.7766 63.1073 95.3871 64.0771 95.6619 66.5267H94.1329C93.2399 66.5267 92.4241 66.9137 91.8612 67.5462C90.4904 66.8934 88.958 66.5267 87.3415 66.5267C81.9221 66.5267 77.4463 70.6357 76.8613 75.9017H67.4625V42.7827C67.4627 42.7748 67.4636 42.7669 67.4636 42.759C67.4636 42.7518 67.4627 42.7449 67.4625 42.7379V37.4585C67.4625 34.6585 65.1846 32.3804 62.3846 32.3804H27.1911C24.3909 32.3804 22.113 34.6585 22.113 37.4585V61.0009C22.113 61.6481 22.6375 62.1727 23.2848 62.1727C23.9322 62.1727 24.4567 61.6481 24.4567 61.0009V37.4585C24.4567 35.9508 25.6834 34.7241 27.1911 34.7241H62.3846C63.8922 34.7241 65.1188 35.9508 65.1188 37.4585V75.9017H52.7452C52.1467 70.5945 47.6658 66.5263 42.266 66.5263C36.8466 66.5263 32.3708 70.6354 31.7858 75.9017H30.4764V71.1357C30.4764 69.4557 29.1095 68.0888 27.4295 68.0888H24.4567V65.6885C24.4567 65.0413 23.9322 64.5166 23.2848 64.5166C22.6375 64.5166 22.113 65.0413 22.113 65.6885V68.2367C20.8886 68.632 20 69.7815 20 71.1357V76.7607C20 78.4407 21.3669 79.8076 23.0469 79.8076H27.4295C28.5624 79.8076 29.5628 79.189 30.0875 78.2454H31.7859C32.3713 83.511 36.847 87.6201 42.2661 87.6201C47.5742 87.6201 52.153 83.654 52.7483 78.2454C54.7571 78.2454 75.831 78.2451 76.8616 78.2451C77.4466 83.511 81.9226 87.6201 87.3418 87.6201C92.8063 87.6201 97.3127 83.4424 97.8369 78.1134C99.0873 77.7335 100 76.5709 100 75.1982V69.5732C100 68.2752 99.1829 67.1674 98.0371 66.7291ZM84.6122 58.8576C84.6122 60.1499 83.5608 61.2013 82.2685 61.2013L82.2682 52.6076H82.2685C83.5737 52.6076 84.6122 53.6874 84.6122 54.9513V58.8576ZM28.1327 76.7607C28.1327 76.791 28.1286 76.8306 28.1208 76.8771C28.0639 77.2117 27.7666 77.4638 27.4295 77.4638H23.0469C22.6658 77.4638 22.3438 77.1418 22.3438 76.7607V71.1357C22.3438 70.7546 22.6658 70.4326 23.0469 70.4326H27.4295C27.8106 70.4326 28.1327 70.7546 28.1327 71.1357V76.7607ZM42.266 85.2764C37.743 85.2764 34.0631 81.5967 34.0628 77.0732C34.0628 72.5499 37.7428 68.8701 42.266 68.8701C46.8417 68.8701 50.4691 72.6001 50.4691 77.0735C50.4688 81.6973 46.7164 85.2764 42.266 85.2764ZM87.3416 85.2764C82.8185 85.2764 79.1385 81.5965 79.1385 77.0732C79.1385 72.5499 82.8185 68.8701 87.3416 68.8701C91.8647 68.8701 95.5448 72.5499 95.5448 77.0732C95.5448 81.5965 91.8649 85.2764 87.3416 85.2764ZM97.6563 74.8743C97.146 72.4785 95.8205 70.382 93.9844 68.8887C94.0329 68.8777 94.0823 68.8699 94.1332 68.8699H96.9532C97.3343 68.8699 97.6563 69.192 97.6563 69.5731V74.8743Z" fill="white"/>
<path d="M44.0222 74.0288C42.3394 73.057 40.1884 73.638 39.2198 75.3156C38.2555 76.9863 38.8201 79.1442 40.5065 80.118C42.1878 81.0888 44.3383 80.5122 45.3089 78.8313C46.2781 77.1524 45.7009 74.998 44.0222 74.0288ZM43.2792 77.6594C42.9906 78.1589 42.3862 78.3674 41.8583 78.1717C41.1634 77.9139 40.8944 77.103 41.2495 76.4875C41.5717 75.9294 42.2898 75.7349 42.8503 76.0584C43.4098 76.3816 43.6023 77.0999 43.2792 77.6594Z" fill="white"/>
<path d="M89.099 74.0288C87.4206 73.0598 85.266 73.6368 84.2965 75.3157C82.9423 77.6616 84.6541 80.5898 87.3337 80.5898C90.9324 80.5898 92.1996 75.819 89.099 74.0288ZM88.3562 77.6595C88.0295 78.2251 87.3076 78.407 86.7554 78.0884C86.1959 77.7652 86.0034 77.0471 86.3263 76.4876C86.6495 75.9277 87.3679 75.7354 87.9273 76.0585C88.4867 76.3816 88.6792 77.0999 88.3562 77.6595Z" fill="white"/>
<path d="M72.1211 60.8498H75.5986C76.9902 60.8498 78.0703 59.6891 78.0186 58.3315C77.8981 55.1549 77.343 51.6326 76.8061 50.6399C76.5475 50.1621 76.1297 49.7804 75.6291 49.5652C75.0858 49.3318 74.0881 49.0099 72.4194 48.8024C70.9755 48.6234 69.6992 49.7516 69.6992 51.2062V58.428C69.6992 59.7632 70.7856 60.8498 72.1211 60.8498ZM72.043 51.206C72.043 51.1574 72.0863 51.1216 72.1302 51.128C73.5994 51.3107 74.3733 51.5763 74.7036 51.7182C74.7224 51.7262 74.7358 51.7382 74.7419 51.7494C74.9628 52.1984 75.5474 55.0091 75.6767 58.4202C75.6783 58.4676 75.6438 58.5059 75.5986 58.5059H72.1211C72.0781 58.5059 72.043 58.4709 72.043 58.4277V51.206Z" fill="white"/>
<path d="M39.8784 64.1826C42.1549 64.1826 44.3838 63.2594 45.9936 61.6497L55.8124 51.8311C59.1782 48.465 59.2067 42.9933 55.8105 39.5992C52.4239 36.2145 46.9545 36.2279 43.5822 39.6009L33.7633 49.4197C32.13 51.0531 31.2305 53.2248 31.2305 55.5347C31.2305 60.3031 35.1098 64.1826 39.8784 64.1826ZM45.2394 41.2581C47.6974 38.7998 51.6841 38.7889 54.1536 41.2568C56.6282 43.7298 56.6099 47.7189 54.1549 50.1736L50.7106 53.6178C49.8986 51.1539 48.4147 48.9459 46.4038 47.2617C45.0405 46.12 43.4744 45.2539 41.7966 44.7011L45.2394 41.2581ZM35.4206 51.0769L39.89 46.6073C41.7299 47.0068 43.4514 47.8467 44.8988 49.0587C46.8864 50.7234 48.2583 53.0015 48.8058 55.5225L44.336 59.9923C43.1625 61.1659 41.5377 61.8389 39.8783 61.8389C36.4022 61.8389 33.5741 59.0108 33.5741 55.5345C33.5742 53.8508 34.23 52.2676 35.4206 51.0769Z" fill="white"/>
</svg>
