<svg width="256" height="232" viewBox="0 0 256 232" fill="none" xmlns="http://www.w3.org/2000/svg">
<path d="M27.8367 209.963C27.6257 208.509 27.5383 207.056 28.346 206.009C28.9646 205.217 30.0125 204.781 31.7298 204.606C33.6872 204.41 34.7206 203.472 35.7539 202.019C37.6531 199.344 39.7997 196.815 41.8736 194.372C44.2775 191.644 46.5294 188.785 48.6192 185.81C49.0651 185.206 49.6086 184.68 50.2274 184.255C50.8346 183.862 51.3347 183.325 51.6828 182.692C54.317 177.022 58.6976 172.69 62.9326 168.489L63.5584 167.871C66.0107 165.436 68.4339 162.987 70.8352 160.538L72.196 159.164C76.1546 155.159 79.7857 151.619 84.1154 148.763C92.5125 143.183 101.678 138.854 111.323 135.912C111.882 135.73 112.425 135.501 112.946 135.229C113.947 134.665 115.055 134.318 116.199 134.211C119.577 134.007 122.907 133.306 126.081 132.132C131.968 130.126 138.058 129.69 143.305 129.436C143.916 129.436 144.527 129.327 145.139 129.254C146.77 128.925 148.456 128.975 150.065 129.399C152.21 130.008 154.437 130.278 156.665 130.199C160.428 130.212 164.177 130.649 167.842 131.5L171.219 132.27C176.618 133.47 182.207 134.72 187.468 137.126C194.49 140.346 199.452 144.14 203.076 149.082C204.706 151.299 205.42 151.539 208.126 150.798C208.803 150.609 209.473 150.383 210.142 150.151C211.057 149.819 211.99 149.537 212.936 149.308C215.873 148.582 218.76 147.671 221.581 146.582C224.847 145.297 228.213 144.284 231.645 143.551C231.845 143.452 232.031 143.327 232.198 143.18C231.366 141.92 230.262 140.862 228.967 140.084L228.298 139.604C225.576 137.618 222.867 135.619 220.17 133.608C212.631 128.018 204.83 122.233 196.775 117.094C195.233 116.059 193.773 114.908 192.409 113.649L191.361 112.733C187.173 109.034 182.652 105.73 177.855 102.862C177.564 102.688 177.266 102.535 176.967 102.39C175.855 101.932 174.891 101.178 174.18 100.209C173.831 99.6567 173.511 99.3514 172.317 100.078L171.59 100.536C170.323 101.314 169.014 102.113 167.668 102.826C165.987 103.72 164.291 104.592 162.574 105.464C159.903 106.838 157.138 108.263 154.467 109.738C152.99 110.615 151.43 111.345 149.81 111.919C142.583 114.236 135.046 115.446 127.456 115.509L123.941 115.597C120.689 115.684 117.334 115.778 114.03 115.64C108.725 115.415 103.581 114.07 98.6035 112.733C96.9371 112.297 95.2634 111.86 93.5898 111.468C87.9139 110.123 82.6746 107.616 77.5808 105.195C75.1431 104.032 72.6326 102.833 70.1148 101.786C69.6279 101.596 69.1297 101.436 68.6231 101.307C67.5646 101.072 66.5616 100.635 65.6687 100.02C63.5177 98.423 61.2804 96.9452 58.9668 95.5937C55.132 93.2605 51.1661 90.8401 47.957 87.2349C43.0816 81.7545 38.8829 76.7683 35.1062 71.9711C28.5715 63.5286 22.791 54.5296 17.8311 45.0777C12.6693 35.458 8.16199 25.5019 4.33994 15.277C4.01245 14.3975 3.76508 13.4889 3.5322 12.6021C2.96463 10.487 2.42615 8.4882 0.810699 6.90367C-0.804749 5.31914 0.374084 3.14588 1.08722 1.64858C2.12051 -0.495626 4.47821 -0.00863791 5.36597 0.19488C5.83698 0.306884 6.29721 0.460118 6.7413 0.652797C7.32965 0.981061 8.01077 1.10383 8.67685 1.00167C10.8951 0.436141 13.1895 0.227599 15.4734 0.383867C16.5577 0.383867 17.6565 0.383867 18.7553 0.383867C23.0821 0.162108 27.4175 0.162108 31.7443 0.383867C34.8006 0.485626 37.9659 0.594632 41.0659 0.543752C42.2372 0.561875 43.4023 0.718027 44.5369 1.00895C45.6136 1.28625 46.7214 1.42543 47.8333 1.42321C51.2817 1.29982 54.7343 1.37753 58.1736 1.65585C59.7308 1.75034 61.2881 1.84481 62.8381 1.90295L64.781 1.96835C70.6564 2.073 76.5222 2.4855 82.3544 3.20404L84.1808 3.45842C90.257 4.30883 96.5514 5.18827 102.664 6.50387C107.809 7.61595 112.932 9.0697 117.887 10.4725C119.983 11.0685 122.086 11.6645 124.196 12.2314C129.241 13.7188 134.063 15.8775 138.531 18.6496C139.892 19.4491 141.216 20.3286 142.497 21.179C144.345 22.4495 146.261 23.6166 148.238 24.6751C152.903 27.0664 157.778 29.8939 161.788 34.3276C167.318 40.4477 170.957 47.4909 174.202 54.1779C175.551 57.2081 176.563 60.3766 177.222 63.6269C178.073 67.1739 178.881 70.5247 180.591 73.6356C180.854 74.2187 180.967 74.8585 180.919 75.4963V75.8524C181.071 80.6206 179.863 85.1634 178.503 89.7789C177.535 93.0497 177.455 93.3186 180.074 94.9249C183.384 97.0526 186.545 99.4034 189.534 101.961C191.222 103.349 192.969 104.774 194.737 106.097C197.524 108.175 200.42 110.211 203.215 112.188C207.21 114.993 211.336 117.901 215.236 120.99C216.57 121.993 217.97 122.906 219.427 123.723C221.235 124.706 222.941 125.865 224.521 127.182C227.071 129.372 229.744 131.415 232.525 133.303C234.84 134.938 237.226 136.624 239.446 138.492C240.603 139.459 241.498 140.019 242.669 139.997C243.508 139.933 244.341 140.184 245.003 140.702C245.666 141.22 246.11 141.966 246.25 142.795C246.401 143.443 246.684 144.052 247.08 144.586C247.477 145.12 247.98 145.567 248.556 145.899C251.504 147.709 254.357 149.666 257.107 151.764L259.733 153.72C262.28 155.609 264.907 157.565 267.425 159.578C268.469 160.403 269.625 161.073 270.86 161.57C274.983 163.285 279.107 165.005 283.23 166.73C283.802 166.969 284.319 167.324 284.747 167.771C285.175 168.219 285.506 168.751 285.719 169.332C286.094 170.348 286.094 171.464 285.719 172.48C285.661 172.634 285.593 172.785 285.515 172.93C285.324 173.303 285.056 173.632 284.729 173.894C284.401 174.155 284.022 174.345 283.616 174.449C282.997 174.597 282.354 174.615 281.728 174.503C281.102 174.39 280.506 174.149 279.978 173.795C278.45 172.894 276.868 172.088 275.24 171.382C274.68 171.12 274.112 170.866 273.552 170.597C272.65 170.168 271.733 169.754 270.823 169.332C267.437 167.929 264.21 166.17 261.196 164.085C257.64 161.429 254.07 158.788 250.485 156.162C247.254 153.787 244.028 151.406 240.806 149.017C240.472 148.735 240.07 148.546 239.639 148.469C239.208 148.393 238.765 148.431 238.354 148.581C236.36 149.046 234.388 149.715 232.475 150.354C230.946 150.878 229.367 151.408 227.767 151.808C225.351 152.462 222.935 153.342 220.606 154.185C217.093 155.581 213.462 156.658 209.756 157.405C208.825 157.565 208.301 157.768 208.105 158.044C207.908 158.321 207.886 158.946 208.068 159.963C208.831 164.967 208.941 170.049 208.396 175.082C207.884 181.801 205.896 188.325 202.574 194.191C201.191 196.454 199.574 198.566 197.75 200.492C196.789 201.583 195.792 202.673 194.905 203.865C188.807 211.86 180.307 216.948 172.128 221.447C169.154 223.039 166.032 224.339 162.807 225.329C161.155 225.852 159.488 226.339 157.822 226.826C154.334 227.772 150.904 228.918 147.547 230.257C146.646 230.655 145.684 230.901 144.702 230.984C142.293 231.136 139.892 231.267 137.483 231.398C134.573 231.558 131.589 231.718 128.649 231.928C125.416 232.08 122.176 231.99 118.957 231.66C117.698 231.565 116.432 231.463 115.173 231.398C105.817 230.889 96.5184 229.623 87.3681 227.611C83.2203 226.702 78.8106 225.896 74.2699 225.212C68.9488 224.45 63.6728 223.402 58.4647 222.072C56.7497 221.581 55.0677 220.982 53.4291 220.277C51.6755 219.509 49.8626 218.884 48.0079 218.409C47.615 218.322 47.2148 218.249 46.8145 218.184C45.6131 218.034 44.4449 217.685 43.3581 217.152C40.0253 215.335 36.2924 214.317 32.6758 213.328L31.0094 212.878C29.8669 212.638 28.1569 212.166 27.8367 209.963ZM199.569 161.264C195.126 162.042 190.747 163.152 186.471 164.586C184.419 165.218 182.294 165.873 180.184 166.439C178.816 166.81 178.19 166.977 178.001 167.515C177.811 168.053 178.001 168.715 178.255 170.088C178.706 172.327 178.328 174.449 177.964 176.572C177.819 177.408 177.673 178.236 177.579 179.065C176.851 186.035 173.402 191.966 170.156 196.844C169.119 198.319 167.965 199.709 166.707 201.001C166.081 201.67 165.463 202.346 164.866 203.051C164.482 203.583 163.988 204.028 163.419 204.355C162.849 204.682 162.216 204.884 161.562 204.948C160.318 204.999 159.037 204.366 157.756 203.073C157.4 202.651 157.145 202.153 157.01 201.618C156.875 201.083 156.864 200.524 156.978 199.984C157.056 199.283 157.293 198.61 157.672 198.016C158.05 197.421 158.559 196.921 159.161 196.553C162.938 194.474 165.797 190.934 167.893 185.745C169.858 180.911 170.687 176.412 170.353 172.4C170.258 171.288 170.04 171.04 169.952 170.946C169.865 170.851 169.552 170.786 168.461 171.215C159.379 174.769 149.665 179.116 138.757 184.494C137.818 184.96 137.301 185.258 136.974 186.021C134.442 192.701 129.894 198.108 123.083 202.542C122.559 202.884 122.042 203.269 121.525 203.589C119.299 205.108 116.999 206.671 114.176 207.347C113.261 207.661 112.459 208.238 111.869 209.004C111.658 209.222 111.447 209.44 111.229 209.651C109.46 211.344 107.59 211.482 105.407 210.072C104.17 209.258 102.846 206.271 103.348 204.759C103.514 204.347 103.788 203.986 104.141 203.717C104.495 203.447 104.914 203.277 105.356 203.225L105.735 203.131C106.324 202.956 106.928 202.789 107.532 202.629C110.035 201.946 112.4 201.299 114.431 199.904C115.384 199.249 116.366 198.624 117.341 197.999C120.689 195.862 123.847 193.849 126.073 190.636L126.255 190.389C126.354 190.274 126.437 190.147 126.503 190.011C125.02 190.273 123.579 190.73 122.217 191.37C121.584 191.632 120.951 191.894 120.317 192.097C113.918 194.402 107.383 196.312 100.75 197.818C95.3726 199.031 90.046 200.725 84.6102 202.571C82.9865 203.066 81.3239 203.423 79.6401 203.64L78.9125 203.756C74.1462 204.483 69.4527 205.333 64.1988 206.256C62.4921 206.599 60.7464 206.707 59.0105 206.576C57.5551 206.431 56.5728 206.002 56.0488 205.29C55.8606 205.032 55.7311 204.737 55.6695 204.424C55.6079 204.111 55.6157 203.789 55.6923 203.48C55.7432 203.225 55.7723 202.942 55.8014 202.651C55.9542 201.306 56.1725 199.279 58.5593 198.835L59.3743 198.675C60.5429 198.377 61.75 198.257 62.9545 198.319C67.7645 198.748 72.3342 197.788 77.166 196.771L79.349 196.313C83.1839 195.535 87.0043 194.394 90.7009 193.282C94.9 191.942 99.1708 190.838 103.493 189.975C104.443 189.794 105.366 189.499 106.244 189.095C104.709 188.761 103.239 188.369 101.805 188.056C98.752 187.227 95.641 186.627 92.4983 186.261C86.6768 185.723 80.4261 185.12 74.1535 184.349C73.5806 184.302 73.0243 184.133 72.5223 183.854C72.0202 183.574 71.5839 183.19 71.2428 182.728C70.9779 182.315 70.8068 181.85 70.7414 181.364C70.6761 180.878 70.718 180.383 70.8644 179.915C70.984 179.47 71.197 179.055 71.4893 178.698C71.7816 178.34 72.1465 178.049 72.5598 177.844C73.0595 177.618 73.6016 177.502 74.1499 177.502C74.6981 177.502 75.2401 177.618 75.7398 177.844C77.9738 178.723 80.2514 178.716 82.6673 178.709C83.6788 178.709 84.683 178.709 85.6945 178.767C87.9285 178.905 90.177 179.188 92.3455 179.494C93.8008 179.675 95.2562 179.857 96.7115 180.003C103.508 180.592 110.191 182.116 116.57 184.531C118.898 185.432 121.06 184.531 123.119 183.622C123.556 183.433 123.992 183.244 124.414 183.084C124.836 182.924 125.382 182.735 125.87 182.561C128.162 181.791 130.308 181.049 131.174 178.578C131.412 178.026 131.847 177.582 132.395 177.333C132.942 177.084 133.563 177.049 134.136 177.233C135.817 177.727 137.36 176.921 138.859 176.136L139.033 176.048C143.744 173.656 148.572 171.502 153.5 169.594L153.878 169.456C154.547 169.223 154.649 169.129 154.671 168.933C154.702 168.57 154.616 168.206 154.424 167.896C154.233 167.586 153.947 167.346 153.609 167.21C150.808 165.568 147.769 164.369 144.6 163.656C136.596 161.955 128.009 160.443 119.408 162.108C117.13 162.544 115.427 161.381 114.86 158.924C114.761 158.412 114.78 157.883 114.916 157.379C115.053 156.876 115.302 156.41 115.646 156.017C115.959 155.627 116.361 155.318 116.818 155.116C117.275 154.914 117.774 154.824 118.273 154.854C120.143 154.91 122.015 154.784 123.861 154.476C126.532 154.119 129.29 153.749 132.142 154.417C133.681 154.72 135.246 154.873 136.814 154.875C138.392 154.886 139.966 155.024 141.522 155.29C147.161 156.416 152.437 158.415 157.349 160.378C160.26 161.526 160.471 161.969 161.846 165.734C163.432 164.928 165.026 164.281 166.576 163.663C168.319 163.003 170.02 162.239 171.67 161.373C173.402 160.421 175.577 160.094 177.673 159.774C178.59 159.636 179.5 159.498 180.373 159.302C182.505 158.844 184.637 158.183 186.704 157.543C189.975 156.417 193.352 155.621 196.782 155.166C197.082 155.15 197.377 155.084 197.655 154.97C197.655 154.919 197.655 154.694 197.248 154.207C192.612 148.108 187.584 144.423 181.435 142.621L179.405 142.025C174.311 140.52 169.065 138.965 163.716 138.296C160.805 137.925 158.579 137.685 156.483 137.518L154.62 137.358C148.253 136.82 141.675 136.268 135.213 137.198C133.343 137.489 131.489 137.879 129.661 138.369C125.033 139.568 120.849 140.622 116.468 141.32C112.127 142.139 107.913 143.53 103.937 145.455C98.2298 147.96 92.739 150.93 87.521 154.337C83.542 157.067 79.8093 160.139 76.3656 163.518L75.2886 164.55C71.1118 168.555 66.7893 172.698 62.9181 177.102L61.1353 179.13C57.4314 183.324 53.6038 187.664 50.6494 192.562C48.9976 195.303 46.6035 197.476 44.2895 199.576C43.6492 200.165 43.0088 200.747 42.383 201.343C41.4952 202.179 40.5784 202.985 39.6615 203.785C39.0357 204.337 38.4098 204.89 37.7986 205.449C37.1873 206.009 37.1946 206.234 37.1946 206.234C37.1946 206.234 37.2819 206.423 37.8786 206.671C39.1521 207.187 40.4037 207.746 41.6626 208.299C44.6418 209.732 47.7477 210.885 50.9405 211.744C54.882 212.753 58.7682 213.966 62.5834 215.378C63.8132 215.814 65.0429 216.258 66.28 216.679C69.1964 217.568 72.191 218.176 75.2232 218.496C76.795 218.714 78.4176 218.94 80.0185 219.223C81.4739 219.499 82.9293 219.797 84.3337 220.095C86.9679 220.641 89.6894 221.2 92.3964 221.615C94.5794 221.956 96.8134 222.341 99.0182 222.69C102.657 223.286 106.375 223.911 110.072 224.384C117.501 225.343 125.076 225.111 132.397 224.849L135.926 224.74C142.104 224.566 147.569 222.734 153.39 220.793L156.003 219.928L156.221 219.856C158.761 219.034 161.38 218.177 163.92 217.188C173.009 213.619 181.24 208.169 188.072 201.197C191.859 197.49 195.083 193.249 197.641 188.608C199.547 185.076 200.217 181.085 200.864 177.219L201.068 176.019C201.758 171.526 201.856 166.961 201.359 162.442C201.257 161.381 201.126 161.206 201.09 161.177C200.59 161.1 200.08 161.125 199.591 161.25L199.569 161.264ZM130.745 76.0633C122.486 76.2959 112.917 76.7901 103.865 80.0173C95.3508 83.0337 87.7975 85.3596 80.7754 87.1331C79.1721 87.5106 77.5054 87.5329 75.8926 87.1985C73.5858 86.7915 72.2543 85.2797 72.4216 83.2445C72.5526 81.66 73.877 80.3371 75.7762 79.7411C76.224 79.6192 76.6877 79.5653 77.1515 79.5812C81.1829 79.5812 85.3015 78.6145 90.1042 76.6011C92.8139 75.5334 95.5868 74.6329 98.407 73.9045C100.481 73.3231 102.635 72.7198 104.687 71.9784C108.616 70.5593 112.743 69.7647 116.919 69.6234C116.792 69.5078 116.632 69.4364 116.461 69.4199C108.682 67.8426 101.267 64.9061 94.0918 62.0642C92.3236 61.3373 90.5481 60.6614 88.7653 59.9781C86.6196 59.1381 84.3222 58.7543 82.0197 58.8515C77.5881 58.975 73.1347 58.8515 68.9869 58.6916C67.4604 58.6047 65.9397 58.4349 64.4316 58.1828C62.0085 57.8194 59.7163 57.456 57.3659 57.8194C56.0691 57.9215 54.769 57.6703 53.6039 57.0926L52.9125 56.8163L52.4905 56.6564C51.5905 56.2022 50.5863 55.9941 49.5798 56.0531C47.5277 56.3875 46.3707 55.2681 45.3592 54.2868L44.7261 53.6981C44.2758 53.3278 43.9554 52.8236 43.8114 52.259C43.6675 51.6943 43.7076 51.0986 43.9257 50.5582L44.0057 50.2311C44.3186 48.7774 45.461 47.9778 47.1638 48.0505C47.9792 48.1154 48.7783 48.3144 49.5288 48.6393L49.9799 48.8065C56.2161 50.987 62.9399 52.0627 72.1741 52.2081C68.3684 50.8852 64.9847 48.7556 61.7101 46.6913C59.4111 45.1747 57.0225 43.7984 54.5571 42.5701C51.8224 41.1734 49.2148 39.5415 46.7636 37.6929C44.7097 36.1666 42.5585 34.7754 40.3237 33.5281C39.6064 33.0876 39.0051 32.4819 38.57 31.7618C38.246 31.1671 37.7554 30.6796 37.1582 30.3591C36.9039 30.2528 36.6875 30.0726 36.537 29.8419C36.3864 29.6112 36.3089 29.3406 36.3142 29.0653C36.3172 28.6734 36.3963 28.2859 36.547 27.9241C36.7175 27.5476 37.001 27.2334 37.3583 27.025C37.7155 26.8166 38.1288 26.7244 38.5408 26.7611C40.2632 26.7792 41.9351 27.3444 43.3145 28.3748C47.278 30.9815 51.3889 33.3573 55.6267 35.4906C60.1946 37.7703 64.6067 40.3489 68.8341 43.2097C71.4247 45.0341 74.4664 46.2261 77.4135 47.3818C78.9926 47.9996 80.6298 48.6393 82.1943 49.3734C83.3731 49.9258 84.5665 50.4418 85.7599 50.9506C87.7101 51.7865 89.7185 52.6515 91.6468 53.6836C95.0352 55.5377 98.6863 56.8661 102.475 57.6231C102.496 57.506 102.493 57.3857 102.467 57.2696C102.441 57.1534 102.392 57.0438 102.322 56.9471C101.689 56.0022 101.092 55.0282 100.503 54.0397C98.8218 51.2995 97.2427 48.712 94.8268 46.6114C90.3807 42.7227 86.262 38.616 82.0924 34.3276C81.118 33.3921 80.0638 32.5433 78.9416 31.7909C77.3652 30.768 75.9459 29.5218 74.7283 28.0913C74.0807 27.2627 72.3488 25.0604 74.379 23.1051C75.2044 22.4563 76.242 22.1377 77.2897 22.2111C77.7401 22.2 78.1882 22.2784 78.608 22.4419C79.0277 22.6054 79.4107 22.8506 79.7347 23.1633C82.7489 26.3237 86.0095 29.2402 89.4857 31.8854C93.0447 34.592 96.3786 37.5819 99.4548 40.8257C100.183 41.6761 101.085 42.4902 101.929 43.2752C103.704 44.9397 105.567 46.6549 106.695 48.9372C107.929 51.2708 109.294 53.5325 110.785 55.7115C112.007 57.565 113.266 59.4911 114.358 61.5263C114.649 62.0569 114.874 62.2532 115.209 62.3622C120.221 63.7361 125.142 65.4208 129.945 67.4065C133.277 68.7003 136.712 70.045 140.219 71.1716C140.147 70.539 139.952 69.9266 139.645 69.3689C138.801 67.5809 137.935 65.8001 137.061 64.0266C134.689 59.3915 132.571 54.6309 130.716 49.7659C129.91 47.6849 128.957 45.664 127.863 43.7185C126.571 41.4453 125.489 39.0585 124.633 36.5881C124.416 35.9959 124.333 35.3634 124.388 34.7354C124.443 34.1074 124.636 33.4992 124.953 32.9539C125.288 32.4675 125.728 32.0623 126.24 31.768C126.753 31.4736 127.325 31.2977 127.914 31.2531C128.522 31.142 129.148 31.2387 129.694 31.5275C130.239 31.8164 130.671 32.2805 130.92 32.8448C131.858 34.6838 132.775 36.53 133.699 38.3689C135.686 42.3593 137.738 46.4806 139.936 50.4419C142.713 55.3853 144.964 60.6059 146.652 66.0182C147.506 68.6261 148.774 71.0801 150.407 73.2867C150.611 73.5701 150.836 73.8318 151.062 74.1007C151.848 75.0384 152.75 76.1069 152.59 77.7932C152.59 77.924 152.655 78.0839 153.318 78.4037C154.329 78.9198 155.275 79.5303 156.228 80.119C157.674 81.1479 159.256 81.97 160.929 82.5612C162.775 83.235 164.473 84.2593 165.928 85.5777C166.842 86.3405 167.815 87.0284 168.839 87.6346C169.8 88.1725 170.411 88.4051 170.644 88.3106C170.877 88.2161 171.095 87.9036 171.481 86.6607C173.482 80.3807 173.394 74.4133 171.226 68.9038C170.498 67.0286 169.814 65.1242 169.145 63.2198C167.689 59.0986 166.183 54.832 164 50.9579C160.667 45.0268 156.891 38.8995 150.713 34.9091C144.535 30.9187 137.804 26.6448 131.065 23.0615C124.516 19.5872 117.145 17.552 109.963 15.5895L108.507 15.1825C104.41 14.0559 100.146 13.2781 96.0275 12.5222C92.4982 11.8753 88.8453 11.2139 85.2869 10.3416C84.4325 10.1796 83.5573 10.16 82.6964 10.2835C81.8052 10.3997 80.9025 10.3997 80.0113 10.2835C72.5598 8.98974 64.8828 8.93882 57.4532 8.88068H53.8148C50.5912 8.88068 47.3385 8.63354 44.1949 8.42276C40.0544 8.15382 35.7757 7.87039 31.5843 8.00122C28.8336 8.08117 26.0539 7.95034 23.3615 7.81951C19.3607 7.5156 15.3411 7.55697 11.3475 7.9431C10.8132 7.98216 10.2841 8.07469 9.76837 8.21931C9.77808 8.74914 9.86142 9.27499 10.0158 9.78196C11.4712 16.0329 14.0763 22.0148 16.565 27.7933C17.2926 29.4723 18.0203 31.1586 18.748 32.8812C20.5593 36.9742 22.615 40.9548 24.9041 44.8015L25.5809 45.979C28.6054 51.4221 31.9236 56.6971 35.521 61.7807C39.1593 66.8105 43.1689 71.673 47.0547 76.3758C48.1382 77.6191 49.3078 78.785 50.5548 79.8647C51.1079 80.3662 51.6682 80.875 52.2067 81.391L58.8504 87.7437C58.9304 87.8236 59.0032 87.9108 59.0832 87.998L59.2069 88.1435C61.5501 89.3355 63.8423 90.6875 66.0617 91.9885C70.2822 94.4743 74.6483 97.0765 79.4509 98.5302C84.3142 100.147 89.081 102.04 93.728 104.2C95.4349 104.907 97.2209 105.408 99.0474 105.69C100.692 105.988 102.315 106.336 103.945 106.685C107.727 107.601 111.581 108.194 115.464 108.459C119.51 108.611 123.694 108.575 127.907 108.35C138.095 107.797 146.165 105.762 153.325 101.939C157.588 99.7941 161.523 97.053 165.011 93.7984C159.976 90.0624 155.217 86.5299 149.592 84.2185C147.964 83.4928 146.406 82.6219 144.935 81.6164C144.134 81.1076 143.341 80.5988 142.526 80.1627C138.968 77.9095 135.104 75.9542 130.767 76.0487L130.745 76.0633Z" fill="white"/>
<path d="M27.8367 209.963C27.6257 208.509 27.5383 207.056 28.346 206.009C28.9646 205.217 30.0125 204.781 31.7298 204.606C33.6872 204.41 34.7206 203.472 35.7539 202.019C37.6531 199.344 39.7997 196.815 41.8736 194.372C44.2775 191.644 46.5294 188.785 48.6192 185.81C49.0651 185.206 49.6086 184.68 50.2274 184.255C50.8346 183.862 51.3347 183.325 51.6828 182.692C54.317 177.022 58.6976 172.69 62.9326 168.489L63.5584 167.871C66.0107 165.436 68.4339 162.987 70.8352 160.538L72.196 159.164C76.1546 155.159 79.7857 151.619 84.1154 148.763C92.5125 143.183 101.678 138.854 111.323 135.912C111.882 135.73 112.425 135.501 112.946 135.229C113.947 134.665 115.055 134.318 116.199 134.211C119.577 134.007 122.907 133.306 126.081 132.132C131.968 130.126 138.058 129.69 143.305 129.436C143.916 129.436 144.527 129.327 145.139 129.254C146.77 128.925 148.456 128.975 150.065 129.399C152.21 130.008 154.437 130.278 156.665 130.199C160.428 130.212 164.177 130.649 167.842 131.5L171.219 132.27C176.618 133.47 182.207 134.72 187.468 137.126C194.49 140.346 199.452 144.14 203.076 149.082C204.706 151.299 205.42 151.539 208.126 150.798C208.803 150.609 209.473 150.383 210.142 150.151C211.057 149.819 211.99 149.537 212.936 149.308C215.873 148.582 218.76 147.671 221.581 146.582C224.847 145.297 228.213 144.284 231.645 143.551C231.845 143.452 232.031 143.327 232.198 143.18C231.366 141.92 230.262 140.862 228.967 140.084L228.298 139.604C225.576 137.618 222.867 135.619 220.17 133.608C212.631 128.018 204.83 122.233 196.775 117.094C195.233 116.059 193.773 114.908 192.409 113.649L191.361 112.733C187.173 109.034 182.652 105.73 177.855 102.862C177.564 102.688 177.266 102.535 176.967 102.39C175.855 101.932 174.891 101.178 174.18 100.209C173.831 99.6567 173.511 99.3514 172.317 100.078L171.59 100.536C170.323 101.314 169.014 102.113 167.668 102.826C165.987 103.72 164.291 104.592 162.574 105.464C159.903 106.838 157.138 108.263 154.467 109.738C152.99 110.615 151.43 111.345 149.81 111.919C142.583 114.236 135.046 115.446 127.456 115.509L123.941 115.597C120.689 115.684 117.334 115.778 114.03 115.64C108.725 115.415 103.581 114.07 98.6035 112.733C96.9371 112.297 95.2634 111.86 93.5898 111.468C87.9139 110.123 82.6746 107.616 77.5808 105.195C75.1431 104.032 72.6326 102.833 70.1148 101.786C69.6279 101.596 69.1297 101.436 68.6231 101.307C67.5646 101.072 66.5616 100.635 65.6687 100.02C63.5177 98.423 61.2804 96.9452 58.9668 95.5937C55.132 93.2605 51.1661 90.8401 47.957 87.2349C43.0816 81.7545 38.8829 76.7683 35.1062 71.9711C28.5715 63.5286 22.791 54.5296 17.8311 45.0777C12.6693 35.458 8.16199 25.5019 4.33994 15.277C4.01245 14.3975 3.76508 13.4889 3.5322 12.6021C2.96463 10.487 2.42615 8.4882 0.810699 6.90367C-0.804749 5.31914 0.374084 3.14588 1.08722 1.64858C2.12051 -0.495626 4.47821 -0.00863791 5.36597 0.19488C5.83698 0.306884 6.29721 0.460118 6.7413 0.652797C7.32965 0.981061 8.01077 1.10383 8.67685 1.00167C10.8951 0.436141 13.1895 0.227599 15.4734 0.383867C16.5577 0.383867 17.6565 0.383867 18.7553 0.383867C23.0821 0.162108 27.4175 0.162108 31.7443 0.383867C34.8006 0.485626 37.9659 0.594632 41.0659 0.543752C42.2372 0.561875 43.4023 0.718027 44.5369 1.00895C45.6136 1.28625 46.7214 1.42543 47.8333 1.42321C51.2817 1.29982 54.7343 1.37753 58.1736 1.65585C59.7308 1.75034 61.2881 1.84481 62.8381 1.90295L64.781 1.96835C70.6564 2.073 76.5222 2.4855 82.3544 3.20404L84.1808 3.45842C90.257 4.30883 96.5514 5.18827 102.664 6.50387C107.809 7.61595 112.932 9.0697 117.887 10.4725C119.983 11.0685 122.086 11.6645 124.196 12.2314C129.241 13.7188 134.063 15.8775 138.531 18.6496C139.892 19.4491 141.216 20.3286 142.497 21.179C144.345 22.4495 146.261 23.6166 148.238 24.6751C152.903 27.0664 157.778 29.8939 161.788 34.3276C167.318 40.4477 170.957 47.4909 174.202 54.1779C175.551 57.2081 176.563 60.3766 177.222 63.6269C178.073 67.1739 178.881 70.5247 180.591 73.6356C180.854 74.2187 180.967 74.8585 180.919 75.4963V75.8524C181.071 80.6206 179.863 85.1634 178.503 89.7789C177.535 93.0497 177.455 93.3186 180.074 94.9249C183.384 97.0526 186.545 99.4034 189.534 101.961C191.222 103.349 192.969 104.774 194.737 106.097C197.524 108.175 200.42 110.211 203.215 112.188C207.21 114.993 211.336 117.901 215.236 120.99C216.57 121.993 217.97 122.906 219.427 123.723C221.235 124.706 222.941 125.865 224.521 127.182C227.071 129.372 229.744 131.415 232.525 133.303C234.84 134.938 237.226 136.624 239.446 138.492C240.603 139.459 241.498 140.019 242.669 139.997C243.508 139.933 244.341 140.184 245.003 140.702C245.666 141.22 246.11 141.966 246.25 142.795C246.401 143.443 246.684 144.052 247.08 144.586C247.477 145.12 247.98 145.567 248.556 145.899C251.504 147.709 254.357 149.666 257.107 151.764L259.733 153.72C262.28 155.609 264.907 157.565 267.425 159.578C268.469 160.403 269.625 161.073 270.86 161.57C274.983 163.285 279.107 165.005 283.23 166.73C283.802 166.969 284.319 167.324 284.747 167.771C285.175 168.219 285.506 168.751 285.719 169.332C286.094 170.348 286.094 171.464 285.719 172.48C285.661 172.634 285.593 172.785 285.515 172.93C285.324 173.303 285.056 173.632 284.729 173.894C284.401 174.155 284.022 174.345 283.616 174.449C282.997 174.597 282.354 174.615 281.728 174.503C281.102 174.39 280.506 174.149 279.978 173.795C278.45 172.894 276.868 172.088 275.24 171.382C274.68 171.12 274.112 170.866 273.552 170.597C272.65 170.168 271.733 169.754 270.823 169.332C267.437 167.929 264.21 166.17 261.196 164.085C257.64 161.429 254.07 158.788 250.485 156.162C247.254 153.787 244.028 151.406 240.806 149.017C240.472 148.735 240.07 148.546 239.639 148.469C239.208 148.393 238.765 148.431 238.354 148.581C236.36 149.046 234.388 149.715 232.475 150.354C230.946 150.878 229.367 151.408 227.767 151.808C225.351 152.462 222.935 153.342 220.606 154.185C217.093 155.581 213.462 156.658 209.756 157.405C208.825 157.565 208.301 157.768 208.105 158.044C207.908 158.321 207.886 158.946 208.068 159.963C208.831 164.967 208.941 170.049 208.396 175.082C207.884 181.801 205.896 188.325 202.574 194.191C201.191 196.454 199.574 198.566 197.75 200.492C196.789 201.583 195.792 202.673 194.905 203.865C188.807 211.86 180.307 216.948 172.128 221.447C169.154 223.039 166.032 224.339 162.807 225.329C161.155 225.852 159.488 226.339 157.822 226.826C154.334 227.772 150.904 228.918 147.547 230.257C146.646 230.655 145.684 230.901 144.702 230.984C142.293 231.136 139.892 231.267 137.483 231.398C134.573 231.558 131.589 231.718 128.649 231.928C125.416 232.08 122.176 231.99 118.957 231.66C117.698 231.565 116.432 231.463 115.173 231.398C105.817 230.889 96.5184 229.623 87.3681 227.611C83.2203 226.702 78.8106 225.896 74.2699 225.212C68.9488 224.45 63.6728 223.402 58.4647 222.072C56.7497 221.581 55.0677 220.982 53.4291 220.277C51.6755 219.509 49.8626 218.884 48.0079 218.409C47.615 218.322 47.2148 218.249 46.8145 218.184C45.6131 218.034 44.4449 217.685 43.3581 217.152C40.0253 215.335 36.2924 214.317 32.6758 213.328L31.0094 212.878C29.8669 212.638 28.1569 212.166 27.8367 209.963ZM199.569 161.264C195.126 162.042 190.747 163.152 186.471 164.586C184.419 165.218 182.294 165.873 180.184 166.439C178.816 166.81 178.19 166.977 178.001 167.515C177.811 168.053 178.001 168.715 178.255 170.088C178.706 172.327 178.328 174.449 177.964 176.572C177.819 177.408 177.673 178.236 177.579 179.065C176.851 186.035 173.402 191.966 170.156 196.844C169.119 198.319 167.965 199.709 166.707 201.001C166.081 201.67 165.463 202.346 164.866 203.051C164.482 203.583 163.988 204.028 163.419 204.355C162.849 204.682 162.216 204.884 161.562 204.948C160.318 204.999 159.037 204.366 157.756 203.073C157.4 202.651 157.145 202.153 157.01 201.618C156.875 201.083 156.864 200.524 156.978 199.984C157.056 199.283 157.293 198.61 157.672 198.016C158.05 197.421 158.559 196.921 159.161 196.553C162.938 194.474 165.797 190.934 167.893 185.745C169.858 180.911 170.687 176.412 170.353 172.4C170.258 171.288 170.04 171.04 169.952 170.946C169.865 170.851 169.552 170.786 168.461 171.215C159.379 174.769 149.665 179.116 138.757 184.494C137.818 184.96 137.301 185.258 136.974 186.021C134.442 192.701 129.894 198.108 123.083 202.542C122.559 202.884 122.042 203.269 121.525 203.589C119.299 205.108 116.999 206.671 114.176 207.347C113.261 207.661 112.459 208.238 111.869 209.004C111.658 209.222 111.447 209.44 111.229 209.651C109.46 211.344 107.59 211.482 105.407 210.072C104.17 209.258 102.846 206.271 103.348 204.759C103.514 204.347 103.788 203.986 104.141 203.717C104.495 203.447 104.914 203.277 105.356 203.225L105.735 203.131C106.324 202.956 106.928 202.789 107.532 202.629C110.035 201.946 112.4 201.299 114.431 199.904C115.384 199.249 116.366 198.624 117.341 197.999C120.689 195.862 123.847 193.849 126.073 190.636L126.255 190.389C126.354 190.274 126.437 190.147 126.503 190.011C125.02 190.273 123.579 190.73 122.217 191.37C121.584 191.632 120.951 191.894 120.317 192.097C113.918 194.402 107.383 196.312 100.75 197.818C95.3726 199.031 90.046 200.725 84.6102 202.571C82.9865 203.066 81.3239 203.423 79.6401 203.64L78.9125 203.756C74.1462 204.483 69.4527 205.333 64.1988 206.256C62.4921 206.599 60.7464 206.707 59.0105 206.576C57.5551 206.431 56.5728 206.002 56.0488 205.29C55.8606 205.032 55.7311 204.737 55.6695 204.424C55.6079 204.111 55.6157 203.789 55.6923 203.48C55.7432 203.225 55.7723 202.942 55.8014 202.651C55.9542 201.306 56.1725 199.279 58.5593 198.835L59.3743 198.675C60.5429 198.377 61.75 198.257 62.9545 198.319C67.7645 198.748 72.3342 197.788 77.166 196.771L79.349 196.313C83.1839 195.535 87.0043 194.394 90.7009 193.282C94.9 191.942 99.1708 190.838 103.493 189.975C104.443 189.794 105.366 189.499 106.244 189.095C104.709 188.761 103.239 188.369 101.805 188.056C98.752 187.227 95.641 186.627 92.4983 186.261C86.6768 185.723 80.4261 185.12 74.1535 184.349C73.5806 184.302 73.0243 184.133 72.5223 183.854C72.0202 183.574 71.5839 183.19 71.2428 182.728C70.9779 182.315 70.8068 181.85 70.7414 181.364C70.6761 180.878 70.718 180.383 70.8644 179.915C70.984 179.47 71.197 179.055 71.4893 178.698C71.7816 178.34 72.1465 178.049 72.5598 177.844C73.0595 177.618 73.6016 177.502 74.1499 177.502C74.6981 177.502 75.2401 177.618 75.7398 177.844C77.9738 178.723 80.2514 178.716 82.6673 178.709C83.6788 178.709 84.683 178.709 85.6945 178.767C87.9285 178.905 90.177 179.188 92.3455 179.494C93.8008 179.675 95.2562 179.857 96.7115 180.003C103.508 180.592 110.191 182.116 116.57 184.531C118.898 185.432 121.06 184.531 123.119 183.622C123.556 183.433 123.992 183.244 124.414 183.084C124.836 182.924 125.382 182.735 125.87 182.561C128.162 181.791 130.308 181.049 131.174 178.578C131.412 178.026 131.847 177.582 132.395 177.333C132.942 177.084 133.563 177.049 134.136 177.233C135.817 177.727 137.36 176.921 138.859 176.136L139.033 176.048C143.744 173.656 148.572 171.502 153.5 169.594L153.878 169.456C154.547 169.223 154.649 169.129 154.671 168.933C154.702 168.57 154.616 168.206 154.424 167.896C154.233 167.586 153.947 167.346 153.609 167.21C150.808 165.568 147.769 164.369 144.6 163.656C136.596 161.955 128.009 160.443 119.408 162.108C117.13 162.544 115.427 161.381 114.86 158.924C114.761 158.412 114.78 157.883 114.916 157.379C115.053 156.876 115.302 156.41 115.646 156.017C115.959 155.627 116.361 155.318 116.818 155.116C117.275 154.914 117.774 154.824 118.273 154.854C120.143 154.91 122.015 154.784 123.861 154.476C126.532 154.119 129.29 153.749 132.142 154.417C133.681 154.72 135.246 154.873 136.814 154.875C138.392 154.886 139.966 155.024 141.522 155.29C147.161 156.416 152.437 158.415 157.349 160.378C160.26 161.526 160.471 161.969 161.846 165.734C163.432 164.928 165.026 164.281 166.576 163.663C168.319 163.003 170.02 162.239 171.67 161.373C173.402 160.421 175.577 160.094 177.673 159.774C178.59 159.636 179.5 159.498 180.373 159.302C182.505 158.844 184.637 158.183 186.704 157.543C189.975 156.417 193.352 155.621 196.782 155.166C197.082 155.15 197.377 155.084 197.655 154.97C197.655 154.919 197.655 154.694 197.248 154.207C192.612 148.108 187.584 144.423 181.435 142.621L179.405 142.025C174.311 140.52 169.065 138.965 163.716 138.296C160.805 137.925 158.579 137.685 156.483 137.518L154.62 137.358C148.253 136.82 141.675 136.268 135.213 137.198C133.343 137.489 131.489 137.879 129.661 138.369C125.033 139.568 120.849 140.622 116.468 141.32C112.127 142.139 107.913 143.53 103.937 145.455C98.2298 147.96 92.739 150.93 87.521 154.337C83.542 157.067 79.8093 160.139 76.3656 163.518L75.2886 164.55C71.1118 168.555 66.7893 172.698 62.9181 177.102L61.1353 179.13C57.4314 183.324 53.6038 187.664 50.6494 192.562C48.9976 195.303 46.6035 197.476 44.2895 199.576C43.6492 200.165 43.0088 200.747 42.383 201.343C41.4952 202.179 40.5784 202.985 39.6615 203.785C39.0357 204.337 38.4098 204.89 37.7986 205.449C37.1873 206.009 37.1946 206.234 37.1946 206.234C37.1946 206.234 37.2819 206.423 37.8786 206.671C39.1521 207.187 40.4037 207.746 41.6626 208.299C44.6418 209.732 47.7477 210.885 50.9405 211.744C54.882 212.753 58.7682 213.966 62.5834 215.378C63.8132 215.814 65.0429 216.258 66.28 216.679C69.1964 217.568 72.191 218.176 75.2232 218.496C76.795 218.714 78.4176 218.94 80.0185 219.223C81.4739 219.499 82.9293 219.797 84.3337 220.095C86.9679 220.641 89.6894 221.2 92.3964 221.615C94.5794 221.956 96.8134 222.341 99.0182 222.69C102.657 223.286 106.375 223.911 110.072 224.384C117.501 225.343 125.076 225.111 132.397 224.849L135.926 224.74C142.104 224.566 147.569 222.734 153.39 220.793L156.003 219.928L156.221 219.856C158.761 219.034 161.38 218.177 163.92 217.188C173.009 213.619 181.24 208.169 188.072 201.197C191.859 197.49 195.083 193.249 197.641 188.608C199.547 185.076 200.217 181.085 200.864 177.219L201.068 176.019C201.758 171.526 201.856 166.961 201.359 162.442C201.257 161.381 201.126 161.206 201.09 161.177C200.59 161.1 200.08 161.125 199.591 161.25L199.569 161.264ZM130.745 76.0633C122.486 76.2959 112.917 76.7901 103.865 80.0173C95.3508 83.0337 87.7975 85.3596 80.7754 87.1331C79.1721 87.5106 77.5054 87.5329 75.8926 87.1985C73.5858 86.7915 72.2543 85.2797 72.4216 83.2445C72.5526 81.66 73.877 80.3371 75.7762 79.7411C76.224 79.6192 76.6877 79.5653 77.1515 79.5812C81.1829 79.5812 85.3015 78.6145 90.1042 76.6011C92.8139 75.5334 95.5868 74.6329 98.407 73.9045C100.481 73.3231 102.635 72.7198 104.687 71.9784C108.616 70.5593 112.743 69.7647 116.919 69.6234C116.792 69.5078 116.632 69.4364 116.461 69.4199C108.682 67.8426 101.267 64.9061 94.0918 62.0642C92.3236 61.3373 90.5481 60.6614 88.7653 59.9781C86.6196 59.1381 84.3222 58.7543 82.0197 58.8515C77.5881 58.975 73.1347 58.8515 68.9869 58.6916C67.4604 58.6047 65.9397 58.4349 64.4316 58.1828C62.0085 57.8194 59.7163 57.456 57.3659 57.8194C56.0691 57.9215 54.769 57.6703 53.6039 57.0926L52.9125 56.8163L52.4905 56.6564C51.5905 56.2022 50.5863 55.9941 49.5798 56.0531C47.5277 56.3875 46.3707 55.2681 45.3592 54.2868L44.7261 53.6981C44.2758 53.3278 43.9554 52.8236 43.8114 52.259C43.6675 51.6943 43.7076 51.0986 43.9257 50.5582L44.0057 50.2311C44.3186 48.7774 45.461 47.9778 47.1638 48.0505C47.9792 48.1154 48.7783 48.3144 49.5288 48.6393L49.9799 48.8065C56.2161 50.987 62.9399 52.0627 72.1741 52.2081C68.3684 50.8852 64.9847 48.7556 61.7101 46.6913C59.4111 45.1747 57.0225 43.7984 54.5571 42.5701C51.8224 41.1734 49.2148 39.5415 46.7636 37.6929C44.7097 36.1666 42.5585 34.7754 40.3237 33.5281C39.6064 33.0876 39.0051 32.4819 38.57 31.7618C38.246 31.1671 37.7554 30.6796 37.1582 30.3591C36.9039 30.2528 36.6875 30.0726 36.537 29.8419C36.3864 29.6112 36.3089 29.3406 36.3142 29.0653C36.3172 28.6734 36.3963 28.2859 36.547 27.9241C36.7175 27.5476 37.001 27.2334 37.3583 27.025C37.7155 26.8166 38.1288 26.7244 38.5408 26.7611C40.2632 26.7792 41.9351 27.3444 43.3145 28.3748C47.278 30.9815 51.3889 33.3573 55.6267 35.4906C60.1946 37.7703 64.6067 40.3489 68.8341 43.2097C71.4247 45.0341 74.4664 46.2261 77.4135 47.3818C78.9926 47.9996 80.6298 48.6393 82.1943 49.3734C83.3731 49.9258 84.5665 50.4418 85.7599 50.9506C87.7101 51.7865 89.7185 52.6515 91.6468 53.6836C95.0352 55.5377 98.6863 56.8661 102.475 57.6231C102.496 57.506 102.493 57.3857 102.467 57.2696C102.441 57.1534 102.392 57.0438 102.322 56.9471C101.689 56.0022 101.092 55.0282 100.503 54.0397C98.8218 51.2995 97.2427 48.712 94.8268 46.6114C90.3807 42.7227 86.262 38.616 82.0924 34.3276C81.118 33.3921 80.0638 32.5433 78.9416 31.7909C77.3652 30.768 75.9459 29.5218 74.7283 28.0913C74.0807 27.2627 72.3488 25.0604 74.379 23.1051C75.2044 22.4563 76.242 22.1377 77.2897 22.2111C77.7401 22.2 78.1882 22.2784 78.608 22.4419C79.0277 22.6054 79.4107 22.8506 79.7347 23.1633C82.7489 26.3237 86.0095 29.2402 89.4857 31.8854C93.0447 34.592 96.3786 37.5819 99.4548 40.8257C100.183 41.6761 101.085 42.4902 101.929 43.2752C103.704 44.9397 105.567 46.6549 106.695 48.9372C107.929 51.2708 109.294 53.5325 110.785 55.7115C112.007 57.565 113.266 59.4911 114.358 61.5263C114.649 62.0569 114.874 62.2532 115.209 62.3622C120.221 63.7361 125.142 65.4208 129.945 67.4065C133.277 68.7003 136.712 70.045 140.219 71.1716C140.147 70.539 139.952 69.9266 139.645 69.3689C138.801 67.5809 137.935 65.8001 137.061 64.0266C134.689 59.3915 132.571 54.6309 130.716 49.7659C129.91 47.6849 128.957 45.664 127.863 43.7185C126.571 41.4453 125.489 39.0585 124.633 36.5881C124.416 35.9959 124.333 35.3634 124.388 34.7354C124.443 34.1074 124.636 33.4992 124.953 32.9539C125.288 32.4675 125.728 32.0623 126.24 31.768C126.753 31.4736 127.325 31.2977 127.914 31.2531C128.522 31.142 129.148 31.2387 129.694 31.5275C130.239 31.8164 130.671 32.2805 130.92 32.8448C131.858 34.6838 132.775 36.53 133.699 38.3689C135.686 42.3593 137.738 46.4806 139.936 50.4419C142.713 55.3853 144.964 60.6059 146.652 66.0182C147.506 68.6261 148.774 71.0801 150.407 73.2867C150.611 73.5701 150.836 73.8318 151.062 74.1007C151.848 75.0384 152.75 76.1069 152.59 77.7932C152.59 77.924 152.655 78.0839 153.318 78.4037C154.329 78.9198 155.275 79.5303 156.228 80.119C157.674 81.1479 159.256 81.97 160.929 82.5612C162.775 83.235 164.473 84.2593 165.928 85.5777C166.842 86.3405 167.815 87.0284 168.839 87.6346C169.8 88.1725 170.411 88.4051 170.644 88.3106C170.877 88.2161 171.095 87.9036 171.481 86.6607C173.482 80.3807 173.394 74.4133 171.226 68.9038C170.498 67.0286 169.814 65.1242 169.145 63.2198C167.689 59.0986 166.183 54.832 164 50.9579C160.667 45.0268 156.891 38.8995 150.713 34.9091C144.535 30.9187 137.804 26.6448 131.065 23.0615C124.516 19.5872 117.145 17.552 109.963 15.5895L108.507 15.1825C104.41 14.0559 100.146 13.2781 96.0275 12.5222C92.4982 11.8753 88.8453 11.2139 85.2869 10.3416C84.4325 10.1796 83.5573 10.16 82.6964 10.2835C81.8052 10.3997 80.9025 10.3997 80.0113 10.2835C72.5598 8.98974 64.8828 8.93882 57.4532 8.88068H53.8148C50.5912 8.88068 47.3385 8.63354 44.1949 8.42276C40.0544 8.15382 35.7757 7.87039 31.5843 8.00122C28.8336 8.08117 26.0539 7.95034 23.3615 7.81951C19.3607 7.5156 15.3411 7.55697 11.3475 7.9431C10.8132 7.98216 10.2841 8.07469 9.76837 8.21931C9.77808 8.74914 9.86142 9.27499 10.0158 9.78196C11.4712 16.0329 14.0763 22.0148 16.565 27.7933C17.2926 29.4723 18.0203 31.1586 18.748 32.8812C20.5593 36.9742 22.615 40.9548 24.9041 44.8015L25.5809 45.979C28.6054 51.4221 31.9236 56.6971 35.521 61.7807C39.1593 66.8105 43.1689 71.673 47.0547 76.3758C48.1382 77.6191 49.3078 78.785 50.5548 79.8647C51.1079 80.3662 51.6682 80.875 52.2067 81.391L58.8504 87.7437C58.9304 87.8236 59.0032 87.9108 59.0832 87.998L59.2069 88.1435C61.5501 89.3355 63.8423 90.6875 66.0617 91.9885C70.2822 94.4743 74.6483 97.0765 79.4509 98.5302C84.3142 100.147 89.081 102.04 93.728 104.2C95.4349 104.907 97.2209 105.408 99.0474 105.69C100.692 105.988 102.315 106.336 103.945 106.685C107.727 107.601 111.581 108.194 115.464 108.459C119.51 108.611 123.694 108.575 127.907 108.35C138.095 107.797 146.165 105.762 153.325 101.939C157.588 99.7941 161.523 97.053 165.011 93.7984C159.976 90.0624 155.217 86.5299 149.592 84.2185C147.964 83.4928 146.406 82.6219 144.935 81.6164C144.134 81.1076 143.341 80.5988 142.526 80.1627C138.968 77.9095 135.104 75.9542 130.767 76.0487L130.745 76.0633Z" fill="black" fill-opacity="0.04"/>
</svg>
