<svg width="220" height="253" viewBox="0 0 220 253" fill="none" xmlns="http://www.w3.org/2000/svg">
<path fill-rule="evenodd" clip-rule="evenodd" d="M134.093 220.279C131.246 220.698 128.341 220.481 125.57 219.643C122.799 218.804 120.228 217.364 118.026 215.418C116.973 216.77 116.009 217.865 115.216 219.065C110.626 226.51 103.551 231.924 95.3308 234.281C94.656 234.543 93.9524 234.719 93.2353 234.805C83.18 235.039 73.32 234.551 63.7368 230.046C53.4854 225.226 45.6555 217.522 38.5066 208.673C36.3436 205.979 34.2738 203.233 32.1108 200.539C28.6596 196.376 26.1627 191.458 24.8107 186.159C24.1671 184.128 23.3555 182.157 22.385 180.269C20.8908 177.203 20.069 173.837 19.9792 170.414C19.8895 166.991 20.5339 163.597 21.8659 160.477C24.9832 153.709 28.6934 147.257 32.9499 141.202C33.7778 139.957 34.5206 138.661 35.4874 137.072C33.9306 135.542 32.5174 134.058 31.0398 132.705C28.5977 130.673 26.7859 127.938 25.8345 124.848C24.8831 121.758 24.835 118.452 25.6963 115.349C26.1304 113.245 26.2132 111.181 26.4716 109.097C21.5727 105.989 17.244 101.996 13.6923 97.3091C11.5728 94.8046 10.1129 91.7757 9.45631 88.5206C9.19173 86.9821 8.78256 85.4729 8.23485 84.0147C5.16068 75.2881 4.86251 65.7903 7.3844 56.9245C9.49052 48.631 13.708 41.7016 22.3375 39.3486C27.8864 37.5438 33.7028 36.7538 39.5286 37.0135C40.2198 35.7846 40.8215 34.8123 41.282 33.815C44.2603 27.6055 49.0444 22.5372 54.9627 19.3215C57.1253 17.8494 59.6946 17.1476 62.2868 17.3211C64.8789 17.4945 67.3546 18.5339 69.3441 20.2838C70.1948 20.989 71.1638 21.5164 72.3406 22.308C73.4314 21.1161 74.3557 20.0252 75.4281 19.0202C80.0289 14.7804 84.8054 11.2194 91.4748 11.9856C93.2229 12.1362 94.9201 12.6893 96.4428 13.6048C97.9655 14.5203 99.2753 15.7751 100.277 17.2778C101.716 19.3344 102.971 21.5145 104.389 23.5733C105.192 24.6428 106.054 25.6638 106.969 26.631C108.317 25.9648 109.486 25.4627 110.582 24.8454C112.255 23.8263 114.213 23.419 116.145 23.6881C118.077 23.9571 119.872 24.8872 121.247 26.3309C123.794 28.5704 126.084 31.1676 128.665 33.7115C130.773 34.8703 132.998 34.2693 135.303 33.6798C138.492 32.6811 141.881 32.5524 145.145 33.3062C149.569 34.4908 153.412 36.4809 155.313 41.4031C155.707 42.1623 156.159 42.8877 156.665 43.5722C159.132 43.5397 161.674 43.6425 164.165 43.4636C166.291 43.3056 168.421 43.792 170.296 44.8637C172.172 45.9354 173.713 47.5464 174.732 49.5015C177.508 53.587 179.372 58.2589 180.188 63.1735C181.004 68.0882 180.751 73.1207 179.447 77.9012C179.041 78.9943 179.017 80.2036 179.379 81.32C180.604 81.839 182.086 82.5344 183.53 83.0697C188.734 84.7464 193.155 88.3915 195.913 93.2791C196.66 94.6331 197.59 95.8636 198.324 97.1162C201.187 101.938 202.999 107.345 203.635 112.955C204.286 119.765 205.175 126.569 203.523 133.29C202.676 136.633 201.624 139.917 200.515 143.741C201.563 144.794 202.751 146.036 203.921 147.116C206.041 148.734 207.823 150.784 209.154 153.14C210.484 155.496 211.337 158.107 211.658 160.81C212.25 166.045 213.252 171.233 213.827 176.49C214.174 178.797 214.05 181.15 213.461 183.395C211.829 188.562 209.835 193.595 207.495 198.454C204.594 204.269 199.055 206.683 193.618 208.942C190.936 210.047 188.108 210.737 185.208 211.661C184.831 213.224 184.467 214.724 184.04 216.19C181.75 224.258 177.802 230.952 170.64 235.091C167.294 237.09 163.355 237.761 159.547 236.983C155.032 236.186 150.625 234.807 146.431 232.877C142.323 230.766 138.767 227.648 136.073 223.795C135.426 222.799 134.932 221.746 134.093 220.279ZM40.8817 130.235C49.7228 121.016 55.9947 106.559 54.7713 97.8405C48.7735 97.245 44.9068 92.4218 40.0205 89.7689C40.3274 83.5695 40.4779 83.3264 46.1462 83.2811C48.5652 85.6172 50.8039 88.6313 54.231 89.3943C60.1302 86.6721 60.4976 86.7744 64.6513 91.3391C63.8548 94.4059 63.9161 97.6523 64.8278 100.7C65.7395 103.747 67.4641 106.47 69.8008 108.552C70.9731 109.95 72.4767 111.006 74.1602 111.614C78.469 112.832 78.8502 113.405 78.8373 118.01C78.9452 118.963 78.541 119.934 78.5903 120.894C78.4861 122.017 78.669 123.152 79.1205 124.184C79.8936 125.035 80.8102 125.733 81.8242 126.241C85.6223 124.866 86.052 120.975 88.3139 118.952C89.4857 118.354 90.8162 118.171 92.1043 118.43C93.3924 118.688 94.5682 119.374 95.4541 120.384C98.2209 122.824 101.22 122.423 104.204 121.017C105.199 120.555 106.032 119.701 107.061 119.359C108.431 118.686 109.968 118.461 111.471 118.713C112.974 118.965 114.372 119.681 115.483 120.769C115.019 122.26 114.607 123.683 114.127 125.032C110.958 134.412 113.933 138.699 120.61 142.32C121.746 142.931 122.996 143.324 124.18 143.827C125.276 144.233 126.346 144.709 127.386 145.253C131.41 147.448 132.115 150.882 129.36 154.667C128.455 156.057 127.837 157.629 127.546 159.285C127.254 160.94 127.296 162.643 127.667 164.287C128.039 165.93 128.732 167.48 129.705 168.838C130.677 170.196 131.907 171.333 133.318 172.179C137.346 174.415 141.33 176.78 145.426 178.906C146.379 179.348 147.171 180.1 147.681 181.047C148.191 181.993 148.392 183.084 148.253 184.155C146.886 185.522 145.236 187.188 143.559 188.795C142.691 193.003 146.508 195.818 146.918 199.615C145.415 202.579 145.415 202.579 142.16 203.338C138.276 200.983 136.468 197.057 135.461 192.527C130.508 197.274 126.362 202.855 123.195 209.038C127.397 214.728 132.724 213.241 137.771 211.725C138.793 212.062 139.706 212.69 140.403 213.538C141.1 214.386 141.555 215.42 141.714 216.519C142.191 218.898 143.215 221.126 144.699 223.012C146.183 224.899 148.082 226.388 150.234 227.351C153.586 229.026 157.623 229.412 161.408 230.196C163.046 230.541 164.74 230.421 166.31 229.849C167.881 229.277 169.27 228.275 170.332 226.947C175.056 221.358 179.942 215.791 177.652 206.906C176.749 203.288 179.009 201.43 182.521 202.594C184.345 203.505 186.411 203.736 188.368 203.248C190.587 202.422 192.828 201.613 195.021 200.728C198.273 199.427 200.933 196.915 202.487 193.678C205.838 187.134 208.04 180.207 206.746 172.442C206.419 170.424 206.499 168.154 206.314 165.997C206.222 163.461 205.613 160.969 204.527 158.686C203.441 156.404 201.902 154.383 200.012 152.757C197.818 151.024 195.526 149.43 193.147 147.985C191.028 146.725 189.543 145.311 189.861 142.357C191.914 141.042 193.652 139.263 194.946 137.149C196.24 135.036 197.057 132.643 197.336 130.148C198.11 124.538 198.131 118.837 197.397 113.208C196.241 105.659 192.976 98.6112 188.007 92.9405C186.497 90.8917 184.278 89.534 181.827 89.1599C179.871 88.9602 177.993 88.2403 176.376 87.0698C174.758 85.8994 173.454 84.3179 172.591 82.4783C173.015 79.759 173.479 76.5214 173.96 73.2613C174.967 66.237 173.304 59.0576 169.323 53.2368C166.614 49.0429 164.301 48.3388 159.905 50.1924C158.565 50.7549 157.364 51.6717 156.077 52.3515C152.927 54.0435 150.888 53.1439 149.824 49.5039C149.508 48.3713 149.278 47.2156 149.137 46.0472C148.968 44.3941 148.251 42.8487 147.108 41.6766C145.966 40.5045 144.469 39.779 142.875 39.625C138.621 38.8938 134.971 39.656 132.255 43.6005C131.556 44.818 130.587 45.8424 129.426 46.5884C128.266 47.3344 126.949 47.7804 125.584 47.8896C124.078 45.8183 123.18 43.3429 122.999 40.7638C122.766 39.0317 122.167 37.3712 121.246 35.9016C120.324 34.432 119.102 33.1895 117.668 32.2635C117.325 31.9323 116.922 31.6757 116.482 31.5088C116.043 31.3419 115.577 31.2683 115.111 31.2922C114.645 31.3161 114.189 31.4372 113.771 31.6481C113.353 31.859 112.981 32.1555 112.676 32.52C110.917 34.4451 109.457 36.5625 107.796 38.6613C103.867 38.8797 103.041 38.5623 102.36 35.1665C101.374 30.1202 98.5074 26.273 95.8072 22.3248C95.3243 21.4974 94.6893 20.776 93.9388 20.2021C93.1883 19.6283 92.3371 19.2133 91.4344 18.9812C90.5316 18.749 89.5951 18.7043 88.6788 18.8495C87.7625 18.9947 86.8845 19.3271 86.0953 19.8274C82.8677 21.2913 80.3359 24.0212 79.0477 27.4263C78.5183 28.863 77.9017 30.2274 77.4056 31.4342C76.3184 32.0783 75.044 32.3021 73.8063 32.0664C72.5687 31.8306 71.4468 31.1503 70.6375 30.1449C69.155 28.6922 67.5382 27.3951 65.8109 26.2729C64.8361 25.5264 63.6904 25.06 62.4905 24.9214C61.2906 24.7828 60.0796 24.9768 58.9808 25.4838C52.984 28.217 47.6368 34.2469 48.2426 42.0486C48.3788 42.6681 48.3818 43.3101 48.2513 43.9285C48.1209 44.547 47.8602 45.1266 47.488 45.6262C47.1158 46.1257 46.6413 46.5327 46.0983 46.8181C45.5552 47.1036 44.9571 47.2604 44.3467 47.2773C42.2755 46.443 40.325 45.4513 38.2308 44.7634C36.8779 44.235 35.4276 44.0403 33.9953 44.1946C30.412 44.8465 26.8941 45.902 23.3555 46.7749C22.1005 47.0775 20.9198 47.6417 19.8847 48.4334C18.8497 49.2251 17.9818 50.2278 17.3333 51.381C14.3419 56.0797 12.5925 61.5198 12.2588 67.1614C12.0937 73.8217 13.2684 80.4565 15.7079 86.6421C18.4722 94.6518 23.4742 100.251 31.929 101.246C32.2413 101.211 32.5478 101.649 33.4066 102.251C33.5921 103.794 33.6358 105.351 33.5372 106.9C33.2533 109.804 32.7316 112.674 31.9777 115.481C31.5417 117.046 31.4286 118.691 31.6457 120.31C31.8628 121.929 32.4052 123.486 33.2377 124.878C34.0702 126.271 35.1741 127.468 36.4776 128.393C37.7811 129.317 39.2551 129.948 40.8037 130.244L40.8817 130.235ZM59.9955 113.442C59.1151 115.831 58.0546 118.143 56.824 120.356C52.5102 126.783 47.985 133.09 43.5208 139.41C42.5505 140.794 41.2164 141.931 40.3725 143.383C37.0724 149.16 33.9664 155.081 30.4838 160.817C27.0012 166.554 27.4786 172.171 29.8503 178.109C30.7273 180.27 31.4528 182.49 32.3884 184.644C33.4316 187.551 34.7738 190.334 36.3914 192.945C39.8436 197.774 43.6679 202.397 47.4346 206.861C49.4001 209.208 51.5446 211.39 53.7042 213.529C55.5986 215.64 57.7149 217.524 60.0128 219.145C69.0253 224.721 78.3583 228.412 89.1496 227.52C93.1822 227.293 97.1016 226.1 100.602 224.036C104.103 221.972 107.09 219.092 109.331 215.621C114.429 208.263 119.546 201.067 125.181 194.265C127.408 191.588 129.367 188.634 131.595 185.607L121.201 176.385C120.114 177.084 119.189 177.64 118.27 178.258C110.471 183.149 101.258 185.07 92.198 183.694C90.7518 183.569 89.382 182.951 88.3025 181.936C87.1906 180.489 86.5206 178.733 86.3796 176.894C86.2386 175.056 86.6332 173.221 87.512 171.627C89.5375 168.213 91.703 164.989 93.7629 161.529C96.8981 156.114 100.703 151.152 105.081 146.769C105.997 145.772 106.814 144.682 107.52 143.513L103.658 132.093C100.111 131.323 96.7233 130.556 93.3398 129.829C91.7549 131.939 89.9249 133.837 87.8905 135.48C85.003 137.484 82.5578 140.099 80.7131 143.155C78.1803 146.635 75.0709 149.616 71.5287 151.962C70.9817 152.457 70.3405 152.829 69.6458 153.053C68.9511 153.277 68.218 153.348 67.4928 153.262C66.7676 153.176 66.0662 152.934 65.4331 152.553C64.7999 152.172 64.2488 151.659 63.8145 151.047C63.5779 149.239 63.4709 147.417 63.4944 145.596C63.7842 138.99 65.0476 132.479 67.2407 126.288C67.8835 124.266 68.3829 122.197 68.7348 120.098L59.9955 113.442Z" fill="white"/>
<path fill-rule="evenodd" clip-rule="evenodd" d="M134.093 220.279C131.246 220.698 128.341 220.481 125.57 219.643C122.799 218.804 120.228 217.364 118.026 215.418C116.973 216.77 116.009 217.865 115.216 219.065C110.626 226.51 103.551 231.924 95.3308 234.281C94.656 234.543 93.9524 234.719 93.2353 234.805C83.18 235.039 73.32 234.551 63.7368 230.046C53.4854 225.226 45.6555 217.522 38.5066 208.673C36.3436 205.979 34.2738 203.233 32.1108 200.539C28.6596 196.376 26.1627 191.458 24.8107 186.159C24.1671 184.128 23.3555 182.157 22.385 180.269C20.8908 177.203 20.069 173.837 19.9792 170.414C19.8895 166.991 20.5339 163.597 21.8659 160.477C24.9832 153.709 28.6934 147.257 32.9499 141.202C33.7778 139.957 34.5206 138.661 35.4874 137.072C33.9306 135.542 32.5174 134.058 31.0398 132.705C28.5977 130.673 26.7859 127.938 25.8345 124.848C24.8831 121.758 24.835 118.452 25.6963 115.349C26.1304 113.245 26.2132 111.181 26.4716 109.097C21.5727 105.989 17.244 101.996 13.6923 97.3091C11.5728 94.8046 10.1129 91.7757 9.45631 88.5206C9.19173 86.9821 8.78256 85.4729 8.23485 84.0147C5.16068 75.2881 4.86251 65.7903 7.3844 56.9245C9.49052 48.631 13.708 41.7016 22.3375 39.3486C27.8864 37.5438 33.7028 36.7538 39.5286 37.0135C40.2198 35.7846 40.8215 34.8123 41.282 33.815C44.2603 27.6055 49.0444 22.5372 54.9627 19.3215C57.1253 17.8494 59.6946 17.1476 62.2868 17.3211C64.8789 17.4945 67.3546 18.5339 69.3441 20.2838C70.1948 20.989 71.1638 21.5164 72.3406 22.308C73.4314 21.1161 74.3557 20.0252 75.4281 19.0202C80.0289 14.7804 84.8054 11.2194 91.4748 11.9856C93.2229 12.1362 94.9201 12.6893 96.4428 13.6048C97.9655 14.5203 99.2753 15.7751 100.277 17.2778C101.716 19.3344 102.971 21.5145 104.389 23.5733C105.192 24.6428 106.054 25.6638 106.969 26.631C108.317 25.9648 109.486 25.4627 110.582 24.8454C112.255 23.8263 114.213 23.419 116.145 23.6881C118.077 23.9571 119.872 24.8872 121.247 26.3309C123.794 28.5704 126.084 31.1676 128.665 33.7115C130.773 34.8703 132.998 34.2693 135.303 33.6798C138.492 32.6811 141.881 32.5524 145.145 33.3062C149.569 34.4908 153.412 36.4809 155.313 41.4031C155.707 42.1623 156.159 42.8877 156.665 43.5722C159.132 43.5397 161.674 43.6425 164.165 43.4636C166.291 43.3056 168.421 43.792 170.296 44.8637C172.172 45.9354 173.713 47.5464 174.732 49.5015C177.508 53.587 179.372 58.2589 180.188 63.1735C181.004 68.0882 180.751 73.1207 179.447 77.9012C179.041 78.9943 179.017 80.2036 179.379 81.32C180.604 81.839 182.086 82.5344 183.53 83.0697C188.734 84.7464 193.155 88.3915 195.913 93.2791C196.66 94.6331 197.59 95.8636 198.324 97.1162C201.187 101.938 202.999 107.345 203.635 112.955C204.286 119.765 205.175 126.569 203.523 133.29C202.676 136.633 201.624 139.917 200.515 143.741C201.563 144.794 202.751 146.036 203.921 147.116C206.041 148.734 207.823 150.784 209.154 153.14C210.484 155.496 211.337 158.107 211.658 160.81C212.25 166.045 213.252 171.233 213.827 176.49C214.174 178.797 214.05 181.15 213.461 183.395C211.829 188.562 209.835 193.595 207.495 198.454C204.594 204.269 199.055 206.683 193.618 208.942C190.936 210.047 188.108 210.737 185.208 211.661C184.831 213.224 184.467 214.724 184.04 216.19C181.75 224.258 177.802 230.952 170.64 235.091C167.294 237.09 163.355 237.761 159.547 236.983C155.032 236.186 150.625 234.807 146.431 232.877C142.323 230.766 138.767 227.648 136.073 223.795C135.426 222.799 134.932 221.746 134.093 220.279ZM40.8817 130.235C49.7228 121.016 55.9947 106.559 54.7713 97.8405C48.7735 97.245 44.9068 92.4218 40.0205 89.7689C40.3274 83.5695 40.4779 83.3264 46.1462 83.2811C48.5652 85.6172 50.8039 88.6313 54.231 89.3943C60.1302 86.6721 60.4976 86.7744 64.6513 91.3391C63.8548 94.4059 63.9161 97.6523 64.8278 100.7C65.7395 103.747 67.4641 106.47 69.8008 108.552C70.9731 109.95 72.4767 111.006 74.1602 111.614C78.469 112.832 78.8502 113.405 78.8373 118.01C78.9452 118.963 78.541 119.934 78.5903 120.894C78.4861 122.017 78.669 123.152 79.1205 124.184C79.8936 125.035 80.8102 125.733 81.8242 126.241C85.6223 124.866 86.052 120.975 88.3139 118.952C89.4857 118.354 90.8162 118.171 92.1043 118.43C93.3924 118.688 94.5682 119.374 95.4541 120.384C98.2209 122.824 101.22 122.423 104.204 121.017C105.199 120.555 106.032 119.701 107.061 119.359C108.431 118.686 109.968 118.461 111.471 118.713C112.974 118.965 114.372 119.681 115.483 120.769C115.019 122.26 114.607 123.683 114.127 125.032C110.958 134.412 113.933 138.699 120.61 142.32C121.746 142.931 122.996 143.324 124.18 143.827C125.276 144.233 126.346 144.709 127.386 145.253C131.41 147.448 132.115 150.882 129.36 154.667C128.455 156.057 127.837 157.629 127.546 159.285C127.254 160.94 127.296 162.643 127.667 164.287C128.039 165.93 128.732 167.48 129.705 168.838C130.677 170.196 131.907 171.333 133.318 172.179C137.346 174.415 141.33 176.78 145.426 178.906C146.379 179.348 147.171 180.1 147.681 181.047C148.191 181.993 148.392 183.084 148.253 184.155C146.886 185.522 145.236 187.188 143.559 188.795C142.691 193.003 146.508 195.818 146.918 199.615C145.415 202.579 145.415 202.579 142.16 203.338C138.276 200.983 136.468 197.057 135.461 192.527C130.508 197.274 126.362 202.855 123.195 209.038C127.397 214.728 132.724 213.241 137.771 211.725C138.793 212.062 139.706 212.69 140.403 213.538C141.1 214.386 141.555 215.42 141.714 216.519C142.191 218.898 143.215 221.126 144.699 223.012C146.183 224.899 148.082 226.388 150.234 227.351C153.586 229.026 157.623 229.412 161.408 230.196C163.046 230.541 164.74 230.421 166.31 229.849C167.881 229.277 169.27 228.275 170.332 226.947C175.056 221.358 179.942 215.791 177.652 206.906C176.749 203.288 179.009 201.43 182.521 202.594C184.345 203.505 186.411 203.736 188.368 203.248C190.587 202.422 192.828 201.613 195.021 200.728C198.273 199.427 200.933 196.915 202.487 193.678C205.838 187.134 208.04 180.207 206.746 172.442C206.419 170.424 206.499 168.154 206.314 165.997C206.222 163.461 205.613 160.969 204.527 158.686C203.441 156.404 201.902 154.383 200.012 152.757C197.818 151.024 195.526 149.43 193.147 147.985C191.028 146.725 189.543 145.311 189.861 142.357C191.914 141.042 193.652 139.263 194.946 137.149C196.24 135.036 197.057 132.643 197.336 130.148C198.11 124.538 198.131 118.837 197.397 113.208C196.241 105.659 192.976 98.6112 188.007 92.9405C186.497 90.8917 184.278 89.534 181.827 89.1599C179.871 88.9602 177.993 88.2403 176.376 87.0698C174.758 85.8994 173.454 84.3179 172.591 82.4783C173.015 79.759 173.479 76.5214 173.96 73.2613C174.967 66.237 173.304 59.0576 169.323 53.2368C166.614 49.0429 164.301 48.3388 159.905 50.1924C158.565 50.7549 157.364 51.6717 156.077 52.3515C152.927 54.0435 150.888 53.1439 149.824 49.5039C149.508 48.3713 149.278 47.2156 149.137 46.0472C148.968 44.3941 148.251 42.8487 147.108 41.6766C145.966 40.5045 144.469 39.779 142.875 39.625C138.621 38.8938 134.971 39.656 132.255 43.6005C131.556 44.818 130.587 45.8424 129.426 46.5884C128.266 47.3344 126.949 47.7804 125.584 47.8896C124.078 45.8183 123.18 43.3429 122.999 40.7638C122.766 39.0317 122.167 37.3712 121.246 35.9016C120.324 34.432 119.102 33.1895 117.668 32.2635C117.325 31.9323 116.922 31.6757 116.482 31.5088C116.043 31.3419 115.577 31.2683 115.111 31.2922C114.645 31.3161 114.189 31.4372 113.771 31.6481C113.353 31.859 112.981 32.1555 112.676 32.52C110.917 34.4451 109.457 36.5625 107.796 38.6613C103.867 38.8797 103.041 38.5623 102.36 35.1665C101.374 30.1202 98.5074 26.273 95.8072 22.3248C95.3243 21.4974 94.6893 20.776 93.9388 20.2021C93.1883 19.6283 92.3371 19.2133 91.4344 18.9812C90.5316 18.749 89.5951 18.7043 88.6788 18.8495C87.7625 18.9947 86.8845 19.3271 86.0953 19.8274C82.8677 21.2913 80.3359 24.0212 79.0477 27.4263C78.5183 28.863 77.9017 30.2274 77.4056 31.4342C76.3184 32.0783 75.044 32.3021 73.8063 32.0664C72.5687 31.8306 71.4468 31.1503 70.6375 30.1449C69.155 28.6922 67.5382 27.3951 65.8109 26.2729C64.8361 25.5264 63.6904 25.06 62.4905 24.9214C61.2906 24.7828 60.0796 24.9768 58.9808 25.4838C52.984 28.217 47.6368 34.2469 48.2426 42.0486C48.3788 42.6681 48.3818 43.3101 48.2513 43.9285C48.1209 44.547 47.8602 45.1266 47.488 45.6262C47.1158 46.1257 46.6413 46.5327 46.0983 46.8181C45.5552 47.1036 44.9571 47.2604 44.3467 47.2773C42.2755 46.443 40.325 45.4513 38.2308 44.7634C36.8779 44.235 35.4276 44.0403 33.9953 44.1946C30.412 44.8465 26.8941 45.902 23.3555 46.7749C22.1005 47.0775 20.9198 47.6417 19.8847 48.4334C18.8497 49.2251 17.9818 50.2278 17.3333 51.381C14.3419 56.0797 12.5925 61.5198 12.2588 67.1614C12.0937 73.8217 13.2684 80.4565 15.7079 86.6421C18.4722 94.6518 23.4742 100.251 31.929 101.246C32.2413 101.211 32.5478 101.649 33.4066 102.251C33.5921 103.794 33.6358 105.351 33.5372 106.9C33.2533 109.804 32.7316 112.674 31.9777 115.481C31.5417 117.046 31.4286 118.691 31.6457 120.31C31.8628 121.929 32.4052 123.486 33.2377 124.878C34.0702 126.271 35.1741 127.468 36.4776 128.393C37.7811 129.317 39.2551 129.948 40.8037 130.244L40.8817 130.235ZM59.9955 113.442C59.1151 115.831 58.0546 118.143 56.824 120.356C52.5102 126.783 47.985 133.09 43.5208 139.41C42.5505 140.794 41.2164 141.931 40.3725 143.383C37.0724 149.16 33.9664 155.081 30.4838 160.817C27.0012 166.554 27.4786 172.171 29.8503 178.109C30.7273 180.27 31.4528 182.49 32.3884 184.644C33.4316 187.551 34.7738 190.334 36.3914 192.945C39.8436 197.774 43.6679 202.397 47.4346 206.861C49.4001 209.208 51.5446 211.39 53.7042 213.529C55.5986 215.64 57.7149 217.524 60.0128 219.145C69.0253 224.721 78.3583 228.412 89.1496 227.52C93.1822 227.293 97.1016 226.1 100.602 224.036C104.103 221.972 107.09 219.092 109.331 215.621C114.429 208.263 119.546 201.067 125.181 194.265C127.408 191.588 129.367 188.634 131.595 185.607L121.201 176.385C120.114 177.084 119.189 177.64 118.27 178.258C110.471 183.149 101.258 185.07 92.198 183.694C90.7518 183.569 89.382 182.951 88.3025 181.936C87.1906 180.489 86.5206 178.733 86.3796 176.894C86.2386 175.056 86.6332 173.221 87.512 171.627C89.5375 168.213 91.703 164.989 93.7629 161.529C96.8981 156.114 100.703 151.152 105.081 146.769C105.997 145.772 106.814 144.682 107.52 143.513L103.658 132.093C100.111 131.323 96.7233 130.556 93.3398 129.829C91.7549 131.939 89.9249 133.837 87.8905 135.48C85.003 137.484 82.5578 140.099 80.7131 143.155C78.1803 146.635 75.0709 149.616 71.5287 151.962C70.9817 152.457 70.3405 152.829 69.6458 153.053C68.9511 153.277 68.218 153.348 67.4928 153.262C66.7676 153.176 66.0662 152.934 65.4331 152.553C64.7999 152.172 64.2488 151.659 63.8145 151.047C63.5779 149.239 63.4709 147.417 63.4944 145.596C63.7842 138.99 65.0476 132.479 67.2407 126.288C67.8835 124.266 68.3829 122.197 68.7348 120.098L59.9955 113.442Z" fill="black" fill-opacity="0.04"/>
<path fill-rule="evenodd" clip-rule="evenodd" d="M73.4856 66.154C71.9174 64.8724 70.5063 63.758 68.9667 62.5554C69.1964 61.4403 69.1219 60.2569 69.6501 59.6834C70.5252 58.7635 71.5982 58.072 72.7823 57.6646C73.5921 57.4425 74.4554 57.5478 75.1988 57.9594C75.9422 58.3709 76.5103 59.0581 76.7891 59.8828C77.6569 63.0108 75.4398 64.2068 73.4856 66.154Z" fill="white"/>
<path fill-rule="evenodd" clip-rule="evenodd" d="M73.4856 66.154C71.9174 64.8724 70.5063 63.758 68.9667 62.5554C69.1964 61.4403 69.1219 60.2569 69.6501 59.6834C70.5252 58.7635 71.5982 58.072 72.7823 57.6646C73.5921 57.4425 74.4554 57.5478 75.1988 57.9594C75.9422 58.3709 76.5103 59.0581 76.7891 59.8828C77.6569 63.0108 75.4398 64.2068 73.4856 66.154Z" fill="black" fill-opacity="0.04"/>
<path fill-rule="evenodd" clip-rule="evenodd" d="M168.245 126.369C167.068 130.469 164.463 130.332 161.693 129.782C159.661 126.149 159.588 124.986 161.199 123.673C163.312 122.078 164.856 122.622 168.245 126.369Z" fill="white"/>
<path fill-rule="evenodd" clip-rule="evenodd" d="M168.245 126.369C167.068 130.469 164.463 130.332 161.693 129.782C159.661 126.149 159.588 124.986 161.199 123.673C163.312 122.078 164.856 122.622 168.245 126.369Z" fill="black" fill-opacity="0.04"/>
<path fill-rule="evenodd" clip-rule="evenodd" d="M153.181 132.656C153.753 135.263 153.707 137.303 151.301 138.232C150.656 138.602 149.907 138.735 149.176 138.609C148.444 138.483 147.773 138.105 147.269 137.538C146.507 136.713 146.068 135.624 146.038 134.487C146.008 133.349 146.39 132.245 147.108 131.391C149.435 130.47 151.114 131.678 153.181 132.656Z" fill="white"/>
<path fill-rule="evenodd" clip-rule="evenodd" d="M153.181 132.656C153.753 135.263 153.707 137.303 151.301 138.232C150.656 138.602 149.907 138.735 149.176 138.609C148.444 138.483 147.773 138.105 147.269 137.538C146.507 136.713 146.068 135.624 146.038 134.487C146.008 133.349 146.39 132.245 147.108 131.391C149.435 130.47 151.114 131.678 153.181 132.656Z" fill="black" fill-opacity="0.04"/>
<path fill-rule="evenodd" clip-rule="evenodd" d="M61.1669 57.9094C62.3837 61.3267 61.8257 63.7324 59.3605 65.5319C58.3294 65.5203 57.3262 65.1652 56.4986 64.519C55.6711 63.8727 55.063 62.9695 54.7636 61.9421C56.1841 57.5483 56.184 57.5483 61.1669 57.9094Z" fill="white"/>
<path fill-rule="evenodd" clip-rule="evenodd" d="M61.1669 57.9094C62.3837 61.3267 61.8257 63.7324 59.3605 65.5319C58.3294 65.5203 57.3262 65.1652 56.4986 64.519C55.6711 63.8727 55.063 62.9695 54.7636 61.9421C56.1841 57.5483 56.184 57.5483 61.1669 57.9094Z" fill="black" fill-opacity="0.04"/>
<path fill-rule="evenodd" clip-rule="evenodd" d="M68.4677 75.2695C73.7789 75.7372 74.1152 76.0896 74.6798 81.7795C73.1815 82.3394 71.5684 82.9329 70.1068 83.4681C69.4635 83.0535 68.9076 82.5072 68.4735 81.8628C68.0393 81.2185 67.7362 80.4898 67.5826 79.7216C67.429 78.9535 67.4283 78.1621 67.5806 77.3964C67.7328 76.6307 68.0347 75.9069 68.4677 75.2695Z" fill="white"/>
<path fill-rule="evenodd" clip-rule="evenodd" d="M68.4677 75.2695C73.7789 75.7372 74.1152 76.0896 74.6798 81.7795C73.1815 82.3394 71.5684 82.9329 70.1068 83.4681C69.4635 83.0535 68.9076 82.5072 68.4735 81.8628C68.0393 81.2185 67.7362 80.4898 67.5826 79.7216C67.429 78.9535 67.4283 78.1621 67.5806 77.3964C67.7328 76.6307 68.0347 75.9069 68.4677 75.2695Z" fill="black" fill-opacity="0.04"/>
<path fill-rule="evenodd" clip-rule="evenodd" d="M159.519 138.186C161.14 137.838 162.53 137.537 163.936 137.214C164.398 137.799 164.953 138.167 165.048 138.65C165.759 141.446 165.722 141.471 163.396 144.673C158.631 144.143 158.277 143.628 159.519 138.186Z" fill="white"/>
<path fill-rule="evenodd" clip-rule="evenodd" d="M159.519 138.186C161.14 137.838 162.53 137.537 163.936 137.214C164.398 137.799 164.953 138.167 165.048 138.65C165.759 141.446 165.722 141.471 163.396 144.673C158.631 144.143 158.277 143.628 159.519 138.186Z" fill="black" fill-opacity="0.04"/>
<path fill-rule="evenodd" clip-rule="evenodd" d="M80.7439 219.265L80.4562 212.702C82.3759 212.197 84.0831 211.736 86.0028 211.232C86.9788 212.467 87.4724 214.036 87.3844 215.623C87.2963 217.211 86.6333 218.7 85.5282 219.793C84.1688 219.659 82.636 219.565 80.7439 219.265Z" fill="white"/>
<path fill-rule="evenodd" clip-rule="evenodd" d="M80.7439 219.265L80.4562 212.702C82.3759 212.197 84.0831 211.736 86.0028 211.232C86.9788 212.467 87.4724 214.036 87.3844 215.623C87.2963 217.211 86.6333 218.7 85.5282 219.793C84.1688 219.659 82.636 219.565 80.7439 219.265Z" fill="black" fill-opacity="0.04"/>
<path fill-rule="evenodd" clip-rule="evenodd" d="M90.5846 217.31C90.0573 216.423 89.8733 215.365 90.07 214.349C90.2668 213.333 90.8295 212.436 91.6437 211.841C92.4579 211.247 93.4624 210.998 94.4529 211.147C95.4433 211.296 96.3453 211.83 96.9753 212.642C97.5553 213.525 97.8235 214.587 97.7342 215.646C97.645 216.706 97.2037 217.697 96.4859 218.451C95.5428 219.036 94.4238 219.244 93.3378 219.034C92.2518 218.824 91.2731 218.211 90.5846 217.31Z" fill="white"/>
<path fill-rule="evenodd" clip-rule="evenodd" d="M90.5846 217.31C90.0573 216.423 89.8733 215.365 90.07 214.349C90.2668 213.333 90.8295 212.436 91.6437 211.841C92.4579 211.247 93.4624 210.998 94.4529 211.147C95.4433 211.296 96.3453 211.83 96.9753 212.642C97.5553 213.525 97.8235 214.587 97.7342 215.646C97.645 216.706 97.2037 217.697 96.4859 218.451C95.5428 219.036 94.4238 219.244 93.3378 219.034C92.2518 218.824 91.2731 218.211 90.5846 217.31Z" fill="black" fill-opacity="0.04"/>
<path fill-rule="evenodd" clip-rule="evenodd" d="M101.098 207.674C101.37 207.193 101.667 206.727 101.987 206.279C102.415 205.87 102.867 205.489 103.341 205.14C105.321 205.162 107.404 205.235 108.029 207.959C108.493 209.961 107.521 211.16 104.362 212.586C103.508 212.06 102.774 211.348 102.211 210.5C101.647 209.651 101.267 208.687 101.098 207.674Z" fill="white"/>
<path fill-rule="evenodd" clip-rule="evenodd" d="M101.098 207.674C101.37 207.193 101.667 206.727 101.987 206.279C102.415 205.87 102.867 205.489 103.341 205.14C105.321 205.162 107.404 205.235 108.029 207.959C108.493 209.961 107.521 211.16 104.362 212.586C103.508 212.06 102.774 211.348 102.211 210.5C101.647 209.651 101.267 208.687 101.098 207.674Z" fill="black" fill-opacity="0.04"/>
<path fill-rule="evenodd" clip-rule="evenodd" d="M33.3259 179.647C32.8619 178.592 32.7727 177.403 33.0743 176.292C33.376 175.181 34.0488 174.222 34.9726 173.584C38.6144 174.672 39.8612 175.908 39.4271 178.012C38.993 180.116 37.0882 180.927 33.3259 179.647Z" fill="white"/>
<path fill-rule="evenodd" clip-rule="evenodd" d="M33.3259 179.647C32.8619 178.592 32.7727 177.403 33.0743 176.292C33.376 175.181 34.0488 174.222 34.9726 173.584C38.6144 174.672 39.8612 175.908 39.4271 178.012C38.993 180.116 37.0882 180.927 33.3259 179.647Z" fill="black" fill-opacity="0.04"/>
<path fill-rule="evenodd" clip-rule="evenodd" d="M33.1882 165.855C35.5868 163.117 37.2849 162.576 39.0058 163.984C40.3388 165.107 40.3147 166.466 38.8931 169.627C35.0997 169.296 35.0996 169.296 33.1882 165.855Z" fill="white"/>
<path fill-rule="evenodd" clip-rule="evenodd" d="M33.1882 165.855C35.5868 163.117 37.2849 162.576 39.0058 163.984C40.3388 165.107 40.3147 166.466 38.8931 169.627C35.0997 169.296 35.0996 169.296 33.1882 165.855Z" fill="black" fill-opacity="0.04"/>
</svg>
