<svg width="25" height="24" viewBox="0 0 25 24" fill="none" xmlns="http://www.w3.org/2000/svg">
<path d="M16.7969 9.71429C16.7969 6.55714 13.8875 4 10.2969 4C6.70625 4 3.79688 6.55714 3.79688 9.71429C3.79688 10.9393 4.2375 12.0679 4.98438 13C4.56563 14.0786 3.875 14.9357 3.86563 14.9464C3.79688 15.0286 3.77813 15.15 3.81875 15.2571C3.85938 15.3643 3.94688 15.4286 4.04688 15.4286C5.19062 15.4286 6.1375 14.9893 6.81875 14.5357C7.825 15.0964 9.01562 15.4286 10.2969 15.4286C13.8875 15.4286 16.7969 12.8714 16.7969 9.71429ZM20.6094 17.5714C21.3563 16.6429 21.7969 15.5107 21.7969 14.2857C21.7969 11.8964 20.125 9.85 17.7563 8.99643C17.7844 9.23214 17.7969 9.47143 17.7969 9.71429C17.7969 13.4964 14.4312 16.5714 10.2969 16.5714C9.95937 16.5714 9.63125 16.5429 9.30625 16.5036C10.2906 18.5571 12.6031 20 15.2969 20C16.5781 20 17.7687 19.6714 18.775 19.1071C19.4562 19.5607 20.4031 20 21.5469 20C21.6469 20 21.7375 19.9321 21.775 19.8286C21.8156 19.725 21.7969 19.6036 21.7281 19.5179C21.7188 19.5071 21.0281 18.6536 20.6094 17.5714Z" fill="#FFC12B"/>
</svg>
