<svg width="20" height="21" viewBox="0 0 20 21" fill="none" xmlns="http://www.w3.org/2000/svg">
<path d="M19.5054 13.1191C19.6512 13.1191 19.7658 13.1647 19.8491 13.2559C19.9533 13.3288 20.0054 13.429 20.0054 13.5566V13.9941C20.0054 14.1217 19.9533 14.2311 19.8491 14.3223C19.7658 14.3952 19.6512 14.4316 19.5054 14.4316H18.0054C18.0054 15.1608 17.7137 15.7806 17.1304 16.291C16.547 16.8014 15.8387 17.0566 15.0054 17.0566C14.172 17.0566 13.4637 16.8014 12.8804 16.291C12.297 15.7806 12.0054 15.1608 12.0054 14.4316H8.00537C8.00537 15.1608 7.7137 15.7806 7.13037 16.291C6.54704 16.8014 5.8387 17.0566 5.00537 17.0566C4.17204 17.0566 3.4637 16.8014 2.88037 16.291C2.29704 15.7806 2.00537 15.1608 2.00537 14.4316H1.75537C1.2762 14.4316 0.859538 14.2858 0.505371 13.9941C0.172038 13.6842 0.00537109 13.3197 0.00537109 12.9004V4.58789C0.00537109 4.16862 0.172038 3.81315 0.505371 3.52148C0.859538 3.21159 1.2762 3.05664 1.75537 3.05664H11.2554C11.7345 3.05664 12.1408 3.21159 12.4741 3.52148C12.8283 3.81315 13.0054 4.16862 13.0054 4.58789V5.68164H14.1304C14.7554 5.68164 15.2866 5.87305 15.7241 6.25586L18.3491 8.55273C18.7866 8.93555 19.0054 9.40039 19.0054 9.94727V13.1191H19.5054ZM3.94287 15.3613C4.23454 15.6165 4.5887 15.7441 5.00537 15.7441C5.42204 15.7441 5.7762 15.6165 6.06787 15.3613C6.35954 15.1061 6.50537 14.7962 6.50537 14.4316C6.50537 14.0671 6.35954 13.7572 6.06787 13.502C5.7762 13.2467 5.42204 13.1191 5.00537 13.1191C4.5887 13.1191 4.23454 13.2467 3.94287 13.502C3.6512 13.7572 3.50537 14.0671 3.50537 14.4316C3.50537 14.7962 3.6512 15.1061 3.94287 15.3613ZM11.5054 13.1191V4.58789C11.5054 4.44206 11.422 4.36914 11.2554 4.36914H1.75537C1.5887 4.36914 1.50537 4.44206 1.50537 4.58789V12.9004C1.50537 13.0462 1.5887 13.1191 1.75537 13.1191H2.41162C2.68245 12.7181 3.04704 12.3991 3.50537 12.1621C3.9637 11.9251 4.4637 11.8066 5.00537 11.8066C5.54704 11.8066 6.04704 11.9251 6.50537 12.1621C6.9637 12.3991 7.32829 12.7181 7.59912 13.1191H11.5054ZM13.0054 6.99414V9.18164H16.9429L14.6616 7.18555C14.5158 7.05794 14.3387 6.99414 14.1304 6.99414H13.0054ZM13.9429 15.3613C14.2345 15.6165 14.5887 15.7441 15.0054 15.7441C15.422 15.7441 15.7762 15.6165 16.0679 15.3613C16.3595 15.1061 16.5054 14.7962 16.5054 14.4316C16.5054 14.0671 16.3595 13.7572 16.0679 13.502C15.7762 13.2467 15.422 13.1191 15.0054 13.1191C14.5887 13.1191 14.2345 13.2467 13.9429 13.502C13.6512 13.7572 13.5054 14.0671 13.5054 14.4316C13.5054 14.7962 13.6512 15.1061 13.9429 15.3613ZM17.5054 12.9824V10.4941H13.0054V12.4902C13.5887 12.0345 14.2554 11.8066 15.0054 11.8066C16.0679 11.8066 16.9012 12.1986 17.5054 12.9824Z" fill="#5375A6"/>
</svg>
