<svg width="120" height="120" viewBox="0 0 120 120" fill="none" xmlns="http://www.w3.org/2000/svg">
<rect x="1" y="1" width="118" height="118" rx="59" stroke="#F2F7FF" stroke-width="2" stroke-dasharray="2 2"/>
<path d="M89.0655 70.0159C88.6422 70.4392 88.6422 71.1256 89.0655 71.5488C89.87 72.3533 89.87 73.6623 89.0655 74.4667C88.6422 74.8901 88.6422 75.5765 89.0657 75.9996C89.5766 76.423 90.0877 76.423 90.5986 75.9996C92.2483 74.3498 92.2483 71.6654 90.5986 70.0158C90.1751 69.5927 89.4889 69.5927 89.0655 70.0159Z" fill="white"/>
<path d="M94.4697 66.8932C94.0464 66.4699 93.3601 66.4699 92.9366 66.8932C92.5133 67.3165 92.5133 68.0028 92.9366 68.4261C95.4629 70.9525 95.4629 75.0633 92.9366 77.5895C92.5133 78.0129 92.5133 78.6992 92.9366 79.1224C93.4477 79.5458 93.9588 79.5458 94.4697 79.1224C97.8412 75.7509 97.8412 70.2648 94.4697 66.8932Z" fill="white"/>
<path d="M81.4307 55.4719H66.0743V29.8652C66.0743 26.0798 62.9945 23 59.209 23H29.8692C26.0837 23 23.0039 26.0798 23.0039 29.8652V41.6174C23.0039 42.216 23.4891 42.7014 24.0879 42.7014C24.6867 42.7014 25.1719 42.216 25.1719 41.6174V29.8652C25.1719 27.2752 27.279 25.168 29.8692 25.168H35.8119L37.5623 28.2753C38.2656 29.5236 39.5925 30.2988 41.0251 30.2988H48.0528C49.4854 30.2988 50.8125 29.5234 51.5158 28.2751L53.2663 25.168H59.209C61.7992 25.168 63.9063 27.2752 63.9063 29.8652V55.4719H33.0737C31.0582 55.4719 29.4185 57.1116 29.4185 59.1271V86.8887C29.4185 88.9042 31.0582 90.5439 33.0737 90.5439H63.8887C63.6808 92.9431 61.6614 94.8321 59.209 94.8321H29.8692C27.279 94.8321 25.1719 92.7249 25.1719 90.1349V45.705C25.1719 45.1064 24.6867 44.621 24.0879 44.621C23.4891 44.621 23.0039 45.1064 23.0039 45.705V90.1349C23.0039 93.9203 26.0837 97.0001 29.8692 97.0001H59.209C62.8572 97.0001 65.8498 94.1397 66.0621 90.5439H72.7232C73.322 90.5439 73.8072 90.0586 73.8072 89.4599C73.8072 88.8613 73.322 88.3759 72.7232 88.3759H33.0737C32.2536 88.3759 31.5865 87.7088 31.5865 86.8887V59.1271C31.5865 58.307 32.2536 57.6399 33.0737 57.6399H81.4307C82.2508 57.6399 82.918 58.307 82.918 59.1271V86.8887C82.918 87.7088 82.2508 88.3759 81.4307 88.3759H77.0564C76.4576 88.3759 75.9724 88.8613 75.9724 89.4599C75.9724 90.0586 76.4576 90.5439 77.0564 90.5439H81.4307C83.4462 90.5439 85.0859 88.9042 85.0859 86.8887V59.1271C85.0859 57.1117 83.4464 55.4719 81.4307 55.4719ZM49.6272 27.2109C49.3075 27.7784 48.7042 28.1309 48.0529 28.1309H41.0252C40.3741 28.1309 39.7709 27.7784 39.4512 27.2111L38.3002 25.168H50.7779L49.6272 27.2109Z" fill="white"/>
<path d="M37.6383 78.7844H44.4521C45.7586 78.7844 46.8217 77.7214 46.8217 76.4148V69.601C46.8217 68.2945 45.7588 67.2314 44.4521 67.2314H37.6383C36.3317 67.2314 35.2686 68.2945 35.2686 69.601V76.4148C35.2687 77.7214 36.3317 78.7844 37.6383 78.7844ZM37.6383 69.3994H44.4521C44.5632 69.3994 44.6537 69.4899 44.6537 69.601V71.9239H43.6809C43.0821 71.9239 42.5969 72.4093 42.5969 73.0079C42.5969 73.6066 43.0821 74.0919 43.6809 74.0919H44.6537V76.4148C44.6537 76.526 44.5632 76.6165 44.4521 76.6165H37.6383C37.527 76.6165 37.4365 76.526 37.4365 76.4148V74.0919H38.4095C39.0083 74.0919 39.4935 73.6066 39.4935 73.0079C39.4935 72.4093 39.0083 71.9239 38.4095 71.9239H37.4365V69.601C37.4367 69.4899 37.5271 69.3994 37.6383 69.3994Z" fill="white"/>
<path d="M79.7314 65.1731V65.1715C79.7314 62.7723 77.7795 60.8206 75.3805 60.8206H72.0668C69.6676 60.8206 67.7158 62.7725 67.7158 65.1733C67.7158 67.5725 69.6677 69.5242 72.0668 69.5242H75.3805C77.7795 69.5241 79.7314 67.5722 79.7314 65.1731ZM77.5635 65.1731C77.5635 66.3769 76.5843 67.3561 75.3805 67.3561H72.0668C70.863 67.3561 69.8838 66.3768 69.8838 65.1714C69.8838 63.9676 70.863 62.9884 72.0668 62.9884H75.3805C76.5843 62.9884 77.5635 63.9677 77.5635 65.1714V65.1731Z" fill="white"/>
<path d="M36.3525 84.48H62.4504C63.0492 84.48 63.5344 83.9946 63.5344 83.396C63.5344 82.7973 63.0492 82.312 62.4504 82.312H36.3525C35.7537 82.312 35.2686 82.7973 35.2686 83.396C35.2686 83.9946 35.7537 84.48 36.3525 84.48Z" fill="white"/>
<path d="M74.2711 82.312H67.6475C67.0487 82.312 66.5635 82.7973 66.5635 83.396C66.5635 83.9946 67.0487 84.48 67.6475 84.48H74.2711C74.8698 84.48 75.355 83.9946 75.355 83.396C75.355 82.7973 74.8698 82.312 74.2711 82.312Z" fill="white"/>
<path d="M54.1053 43.2912C54.1053 38.0789 49.8141 33.8384 44.5394 33.8384C39.2648 33.8384 34.9736 38.0788 34.9736 43.2912C34.9736 48.5034 39.2648 52.7438 44.5394 52.7438C49.8141 52.7438 54.1053 48.5034 54.1053 43.2912ZM37.1417 43.2912C37.1417 39.2744 40.4603 36.0064 44.5396 36.0064C48.6188 36.0064 51.9374 39.2744 51.9374 43.2912C51.9374 47.308 48.6188 50.5758 44.5396 50.5758C40.4603 50.5758 37.1417 47.308 37.1417 43.2912Z" fill="white"/>
<path d="M49.0073 40.2262C48.5838 39.8029 47.8976 39.8029 47.4743 40.2262L43.2394 44.4611L41.6014 42.8233C41.1782 42.3999 40.4918 42.3999 40.0685 42.8233C39.6451 43.2466 39.6451 43.933 40.0685 44.3562L42.4729 46.7605C42.984 47.1838 43.495 47.1838 44.0059 46.7605L49.0073 41.7591C49.4306 41.3359 49.4306 40.6495 49.0073 40.2262Z" fill="white"/>
</svg>
