<svg width="120" height="120" viewBox="0 0 120 120" fill="none" xmlns="http://www.w3.org/2000/svg">
<rect x="1" y="1" width="118" height="118" rx="59" stroke="#F2F7FF" stroke-width="2" stroke-dasharray="2 2"/>
<path d="M57.6147 45.7852H53.9816V42.152C53.9816 41.3969 53.3693 40.7849 52.6144 40.7849C51.8596 40.7849 51.2473 41.397 51.2473 42.152V45.7852H47.6142C46.8592 45.7852 46.2471 46.3973 46.2471 47.1523C46.2471 47.9073 46.8592 48.5194 47.6142 48.5194H51.2473V52.1525C51.2473 52.9077 51.8596 53.5197 52.6144 53.5197C53.3693 53.5197 53.9816 52.9075 53.9816 52.1525V48.5194H57.6147C58.3697 48.5194 58.9818 47.9073 58.9818 47.1523C58.9818 46.3973 58.3697 45.7852 57.6147 45.7852Z" fill="white"/>
<path d="M52.6143 35.1211C45.9803 35.1211 40.583 40.5184 40.583 47.1524C40.583 53.7864 45.9803 59.1837 52.6143 59.1837C59.2483 59.1837 64.6456 53.7864 64.6456 47.1524C64.6456 40.5184 59.2483 35.1211 52.6143 35.1211ZM52.6143 56.4491C47.488 56.4491 43.3174 52.2786 43.3174 47.1523C43.3174 42.0259 47.488 37.8554 52.6143 37.8554C57.7406 37.8554 61.9112 42.0259 61.9112 47.1523C61.9112 52.2786 57.7406 56.4491 52.6143 56.4491Z" fill="white"/>
<path d="M79.8309 37.568L67.663 25.4C67.4065 25.1436 67.0588 24.9995 66.6962 24.9995H29.0986C26.837 24.9995 24.9971 26.8396 24.9971 29.1012V90.8982C24.9971 93.1598 26.837 94.9998 29.0986 94.9998H55.2147C55.9697 94.9998 56.5818 94.3875 56.5818 93.6326C56.5818 92.8778 55.9696 92.2655 55.2147 92.2655H29.0986C28.3447 92.2655 27.7315 91.6522 27.7315 90.8984V29.1012C27.7315 28.3473 28.3448 27.7341 29.0986 27.7341H65.3289V35.8004C65.3289 38.062 67.1689 39.9019 69.4305 39.9019H77.4968V64.2378C77.4968 64.9928 78.1091 65.605 78.864 65.605C79.6188 65.605 80.2311 64.9927 80.2311 64.2378V38.5347C80.2314 38.1721 80.0873 37.8244 79.8309 37.568ZM69.4306 37.1675C68.6767 37.1675 68.0635 36.5542 68.0635 35.8004V29.6675L75.5636 37.1675H69.4306Z" fill="white"/>
<path d="M70.1155 63.281H46.372C45.617 63.281 45.0049 63.8933 45.0049 64.6481C45.0049 65.403 45.6171 66.0153 46.372 66.0153H70.1155C70.8705 66.0153 71.4826 65.4031 71.4826 64.6481C71.4828 63.8933 70.8705 63.281 70.1155 63.281Z" fill="white"/>
<path d="M39.57 63.281H35.1152C34.3602 63.281 33.748 63.8933 33.748 64.6481C33.748 65.403 34.3603 66.0153 35.1152 66.0153H39.57C40.325 66.0153 40.9372 65.403 40.9372 64.6481C40.9372 63.8933 40.325 63.281 39.57 63.281Z" fill="white"/>
<path d="M59.9984 70.937H46.372C45.617 70.937 45.0049 71.5493 45.0049 72.3041C45.0049 73.059 45.6171 73.6713 46.372 73.6713H59.9984C60.7534 73.6713 61.3655 73.0592 61.3655 72.3041C61.3655 71.5493 60.7534 70.937 59.9984 70.937Z" fill="white"/>
<path d="M39.57 70.937H35.1152C34.3602 70.937 33.748 71.5493 33.748 72.3041C33.748 73.059 34.3603 73.6713 35.1152 73.6713H39.57C40.325 73.6713 40.9372 73.059 40.9372 72.3041C40.9372 71.5493 40.325 70.937 39.57 70.937Z" fill="white"/>
<path d="M47.3387 78.9939C47.0845 78.7396 46.733 78.5933 46.3722 78.5933C46.0126 78.5933 45.6612 78.7394 45.4055 78.9939C45.1512 79.2482 45.0049 79.6009 45.0049 79.9605C45.0049 80.3201 45.151 80.6729 45.4055 80.9271C45.6598 81.1814 46.0126 81.3278 46.3722 81.3278C46.7331 81.3278 47.0845 81.1815 47.3387 80.9271C47.5944 80.6729 47.7394 80.3201 47.7394 79.9605C47.7394 79.6009 47.5944 79.2482 47.3387 78.9939Z" fill="white"/>
<path d="M39.57 78.5933H35.1152C34.3602 78.5933 33.748 79.2055 33.748 79.9604C33.748 80.7154 34.3603 81.3275 35.1152 81.3275H39.57C40.325 81.3275 40.9372 80.7153 40.9372 79.9604C40.9373 79.2055 40.325 78.5933 39.57 78.5933Z" fill="white"/>
<path d="M86.5253 78.0464C86.124 78.0464 85.7297 78.0763 85.3433 78.1306C86.2048 75.241 85.4971 71.9795 83.2198 69.7019C81.6187 68.101 79.4902 67.2192 77.226 67.2192C74.9616 67.2192 72.8331 68.101 71.2321 69.7019L60.4046 80.5293C58.8036 82.1304 57.9219 84.259 57.9219 86.5232C57.9219 88.7875 58.8036 90.9161 60.4046 92.517C62.0573 94.1696 64.2275 94.9957 66.3984 94.9957C68.5688 94.9957 70.7399 94.1692 72.3922 92.517L78.0571 86.8521C78.2309 91.3741 81.9618 94.9997 86.5254 94.9997C91.1996 94.9997 95.0021 91.1972 95.0021 86.523C95.0021 81.8489 91.1995 78.0464 86.5253 78.0464ZM70.4585 90.5836C68.2197 92.8226 64.5768 92.8226 62.338 90.5836C61.2534 89.499 60.6561 88.0571 60.6561 86.5233C60.6561 84.9895 61.2534 83.5475 62.338 82.4631L66.7851 78.016L74.9056 86.1367L70.4585 90.5836ZM76.8389 84.2031L68.7184 76.0824L73.1654 71.6355C74.2501 70.5509 75.6919 69.9536 77.2257 69.9536C78.7595 69.9536 80.2015 70.5509 81.2859 71.6355C83.5248 73.8743 83.5248 77.5172 81.2859 79.756L76.8389 84.2031ZM85.1582 92.0997C82.6501 91.4845 80.783 89.2182 80.783 86.5232C80.783 83.828 82.6499 81.5618 85.1582 80.9468V92.0997ZM87.8924 92.0997V80.9466C90.4007 81.5618 92.2676 83.828 92.2676 86.523C92.2676 89.2181 90.4007 91.4845 87.8924 92.0997Z" fill="white"/>
</svg>
