<svg width="54" height="55" viewBox="0 0 54 55" fill="none" xmlns="http://www.w3.org/2000/svg">
<rect x="0.50293" y="0.556641" width="53" height="53" rx="26.5" fill="white"/>
<rect x="0.50293" y="0.556641" width="53" height="53" rx="26.5" stroke="white"/>
<rect x="0.50293" y="0.556641" width="53" height="53" rx="26.5" stroke="black" stroke-opacity="0.16"/>
<path d="M15.9561 27.057C15.9561 27.057 19.9726 18.957 27.0014 18.957C34.0303 18.957 38.0468 27.057 38.0468 27.057C38.0468 27.057 34.0303 35.1569 27.0014 35.1569C19.9726 35.1569 15.9561 27.057 15.9561 27.057Z" stroke="#727272" stroke-width="1.5" stroke-linecap="round" stroke-linejoin="round"/>
<path d="M27.0011 30.0022C28.6278 30.0022 29.9465 28.6835 29.9465 27.0568C29.9465 25.43 28.6278 24.1113 27.0011 24.1113C25.3744 24.1113 24.0557 25.43 24.0557 27.0568C24.0557 28.6835 25.3744 30.0022 27.0011 30.0022Z" stroke="#727272" stroke-width="1.5" stroke-linecap="round" stroke-linejoin="round"/>
</svg>
