<svg width="24" height="24" viewBox="0 0 24 24" fill="none" xmlns="http://www.w3.org/2000/svg">
<path d="M15.5556 10C15.5556 7.2375 12.9694 5 9.77778 5C6.58611 5 4 7.2375 4 10C4 11.0719 4.39167 12.0594 5.05556 12.875C4.68333 13.8188 4.06944 14.5688 4.06111 14.5781C4 14.65 3.98333 14.7563 4.01944 14.85C4.05556 14.9438 4.13333 15 4.22222 15C5.23889 15 6.08056 14.6156 6.68611 14.2188C7.58056 14.7094 8.63889 15 9.77778 15C12.9694 15 15.5556 12.7625 15.5556 10ZM18.9444 16.875C19.6083 16.0625 20 15.0719 20 14C20 11.9094 18.5139 10.1187 16.4083 9.37187C16.4333 9.57812 16.4444 9.7875 16.4444 10C16.4444 13.3094 13.4528 16 9.77778 16C9.47778 16 9.18611 15.975 8.89722 15.9406C9.77222 17.7375 11.8278 19 14.2222 19C15.3611 19 16.4194 18.7125 17.3139 18.2188C17.9194 18.6156 18.7611 19 19.7778 19C19.8667 19 19.9472 18.9406 19.9806 18.85C20.0167 18.7594 20 18.6531 19.9389 18.5781C19.9306 18.5688 19.3167 17.8219 18.9444 16.875Z" fill="#898989"/>
</svg>
