<svg width="57" height="56" viewBox="0 0 57 56" fill="none" xmlns="http://www.w3.org/2000/svg">
<g id="Frame">
<g clip-path="url(#clip0_0_1496)">
<path id="Vector" d="M38.9367 28.7216L29.3583 38L19.7799 28.7216M19.7799 28.7216C19.1481 28.1203 18.6505 27.3976 18.3183 26.5989C17.9862 25.8003 17.8267 24.943 17.8499 24.0811C17.8731 23.2192 18.0785 22.3713 18.4532 21.5909C18.8279 20.8104 19.3638 20.1143 20.027 19.5464C20.6903 18.9784 21.4666 18.551 22.3071 18.2909C23.1476 18.0308 24.034 17.9438 24.9106 18.0352C25.7871 18.1267 26.6348 18.3947 27.4003 18.8223C28.1658 19.2499 28.8324 19.828 29.3583 20.52C29.8864 19.833 30.5539 19.26 31.3188 18.8369C32.0837 18.4138 32.9297 18.1497 33.8039 18.0611C34.678 17.9725 35.5614 18.0613 36.3987 18.322C37.2361 18.5827 38.0095 19.0096 38.6705 19.5761C39.3314 20.1425 39.8657 20.8363 40.2399 21.614C40.6141 22.3918 40.8201 23.2366 40.8451 24.0958C40.8701 24.955 40.7135 25.8099 40.3851 26.6072C40.0567 27.4044 39.5636 28.1268 38.9367 28.7291" stroke="#80B4FF" stroke-width="2" stroke-linecap="round" stroke-linejoin="round"/>
</g>
<rect x="1.34766" y="0.5" width="55" height="55" rx="4.5" stroke="white"/>
<rect x="1.34766" y="0.5" width="55" height="55" rx="4.5" stroke="black" stroke-opacity="0.16"/>
</g>
<defs>
<clipPath id="clip0_0_1496">
<rect x="0.847656" width="56" height="56" rx="5" fill="white"/>
</clipPath>
</defs>
</svg>
