<svg width="40" height="40" viewBox="0 0 40 40" fill="none" xmlns="http://www.w3.org/2000/svg">
<g clip-path="url(#clip0_196_1569)">
<rect width="40" height="40" rx="20" fill="white"/>
<path d="M26.6706 20.969L20.0074 27L13.3442 20.969M13.3442 20.969C12.9047 20.5782 12.5585 20.1084 12.3274 19.5893C12.0963 19.0702 11.9854 18.5129 12.0015 17.9527C12.0177 17.3925 12.1606 16.8414 12.4213 16.3341C12.6819 15.8268 13.0547 15.3743 13.5161 15.0051C13.9775 14.636 14.5175 14.3581 15.1022 14.1891C15.6869 14.02 16.3035 13.9635 16.9133 14.0229C17.5231 14.0824 18.1128 14.2565 18.6453 14.5345C19.1778 14.8125 19.6416 15.1882 20.0074 15.638C20.3748 15.1914 20.8391 14.819 21.3712 14.544C21.9034 14.269 22.4919 14.0973 23.1 14.0397C23.708 13.9821 24.3226 14.0399 24.9051 14.2093C25.4876 14.3788 26.0256 14.6563 26.4854 15.0245C26.9452 15.3927 27.3169 15.8436 27.5772 16.3491C27.8375 16.8546 27.9808 17.4038 27.9982 17.9623C28.0156 18.5207 27.9067 19.0765 27.6782 19.5947C27.4498 20.1129 27.1068 20.5824 26.6706 20.9739" stroke="#727272" stroke-width="1.5" stroke-linecap="round" stroke-linejoin="round"/>
</g>
<defs>
<clipPath id="clip0_196_1569">
<rect width="40" height="40" rx="20" fill="white"/>
</clipPath>
</defs>
</svg>
