<svg width="40" height="40" viewBox="0 0 40 40" fill="none" xmlns="http://www.w3.org/2000/svg">
<rect width="40" height="40" rx="20" fill="#F2F7FF"/>
<path d="M28 23.352C28 26.264 26.264 28 23.352 28H22.4C21.96 28 21.6 27.64 21.6 27.2V22.584C21.6 22.368 21.776 22.184 21.992 22.184L23.4 22.16C23.512 22.152 23.608 22.072 23.632 21.96L23.912 20.432C23.936 20.288 23.824 20.152 23.672 20.152L21.968 20.176C21.744 20.176 21.568 20 21.56 19.784L21.528 17.824C21.528 17.696 21.632 17.584 21.768 17.584L23.688 17.552C23.824 17.552 23.928 17.448 23.928 17.312L23.896 15.392C23.896 15.256 23.792 15.152 23.656 15.152L21.496 15.184C20.168 15.208 19.112 16.296 19.136 17.624L19.176 19.824C19.184 20.048 19.008 20.224 18.784 20.232L17.824 20.248C17.688 20.248 17.584 20.352 17.584 20.488L17.608 22.008C17.608 22.144 17.712 22.248 17.848 22.248L18.808 22.232C19.032 22.232 19.208 22.408 19.216 22.624L19.288 27.184C19.296 27.632 18.936 28 18.488 28H16.648C13.736 28 12 26.264 12 23.344V16.648C12 13.736 13.736 12 16.648 12H23.352C26.264 12 28 13.736 28 16.648V23.352Z" fill="#454545"/>
</svg>
