<svg width="40" height="40" viewBox="0 0 40 40" fill="none" xmlns="http://www.w3.org/2000/svg">
<rect width="40" height="40" rx="20" fill="#F2F7FF"/>
<path d="M25 16.947C24.632 17.107 24.237 17.217 23.822 17.265C24.246 17.015 24.57 16.619 24.724 16.148C24.32 16.3835 23.8791 16.5491 23.42 16.638C23.2269 16.4356 22.9945 16.2746 22.7372 16.1649C22.4798 16.0552 22.2028 15.9991 21.923 16C20.79 16 19.872 16.905 19.872 18.02C19.872 18.178 19.89 18.332 19.925 18.48C19.1123 18.4414 18.3166 18.2338 17.5886 17.8706C16.8607 17.5073 16.2164 16.9962 15.697 16.37C15.5146 16.6771 15.4185 17.0278 15.419 17.385C15.419 18.085 15.782 18.705 16.332 19.066C16.0064 19.0558 15.6879 18.9691 15.402 18.813V18.838C15.4051 19.3075 15.5708 19.7613 15.8709 20.1224C16.171 20.4834 16.587 20.7292 17.048 20.818C16.7454 20.898 16.4287 20.9096 16.121 20.852C16.2551 21.2559 16.5117 21.608 16.855 21.8594C17.1984 22.1108 17.6115 22.2491 18.037 22.255C17.307 22.8176 16.4106 23.1215 15.489 23.119C15.324 23.119 15.161 23.109 15 23.091C15.9405 23.6863 17.031 24.0016 18.144 24C21.918 24 23.981 20.922 23.981 18.252L23.974 17.99C24.3763 17.7073 24.7239 17.3539 25 16.947Z" fill="#454545"/>
<path d="M20 27.2C21.9096 27.2 23.7409 26.4414 25.0912 25.0912C26.4414 23.7409 27.2 21.9096 27.2 20C27.2 18.0904 26.4414 16.2591 25.0912 14.9088C23.7409 13.5586 21.9096 12.8 20 12.8C18.0904 12.8 16.2591 13.5586 14.9088 14.9088C13.5586 16.2591 12.8 18.0904 12.8 20C12.8 21.9096 13.5586 23.7409 14.9088 25.0912C16.2591 26.4414 18.0904 27.2 20 27.2ZM20 29C15.0293 29 11 24.9707 11 20C11 15.0293 15.0293 11 20 11C24.9707 11 29 15.0293 29 20C29 24.9707 24.9707 29 20 29Z" fill="#454545"/>
</svg>
