<svg width="40" height="40" viewBox="0 0 40 40" fill="none" xmlns="http://www.w3.org/2000/svg">
<rect width="40" height="40" rx="20" fill="#F2F7FF"/>
<path d="M29 20C29 24.9718 24.9718 29 20 29C19.071 29 18.1782 28.8585 17.3363 28.5972C17.7028 27.9984 18.2508 27.0185 18.454 26.2383C18.5629 25.8173 19.0129 24.0972 19.0129 24.0972C19.3069 24.656 20.1633 25.1315 21.0742 25.1315C23.7887 25.1315 25.7448 22.6347 25.7448 19.5319C25.7448 16.5597 23.3169 14.3351 20.196 14.3351C16.3129 14.3351 14.248 16.9407 14.248 19.7823C14.248 21.1032 14.952 22.7472 16.0734 23.2698C16.244 23.3496 16.3347 23.3133 16.3746 23.15C16.4036 23.0266 16.556 22.4133 16.625 22.1302C16.6468 22.0395 16.6359 21.9597 16.5633 21.8726C16.1968 21.419 15.8992 20.5915 15.8992 19.8185C15.8992 17.8335 17.4016 15.9137 19.9637 15.9137C22.1738 15.9137 23.7234 17.4198 23.7234 19.5754C23.7234 22.0105 22.4931 23.698 20.8927 23.698C20.0109 23.698 19.3468 22.9685 19.5609 22.0722C19.8149 21.0016 20.3048 19.8476 20.3048 19.0746C20.3048 18.3851 19.9347 17.8081 19.1653 17.8081C18.2617 17.8081 17.5359 18.7407 17.5359 19.9927C17.5359 20.7911 17.8044 21.3282 17.8044 21.3282C17.8044 21.3282 16.9153 25.0952 16.752 25.7992C16.5706 26.5758 16.6431 27.6718 16.7194 28.3831C13.3734 27.073 11 23.8141 11 20C11 15.0282 15.0282 11 20 11C24.9718 11 29 15.0282 29 20Z" fill="#454545"/>
</svg>
