<svg width="120" height="120" viewBox="0 0 120 120" fill="none" xmlns="http://www.w3.org/2000/svg">
<rect x="1" y="1" width="118" height="118" rx="59" stroke="#F2F7FF" stroke-width="2" stroke-dasharray="2 2"/>
<path d="M92.9403 47.9274C91.2095 43.76 88.7836 39.9168 85.766 36.5616L84.4289 35.0831V31.7145H85.7146C86.0556 31.7145 86.3826 31.579 86.6237 31.3379C86.8648 31.0968 87.0003 30.7697 87.0003 30.4288V25.2859C86.9972 24.2638 86.5899 23.2845 85.8672 22.5618C85.1445 21.8391 84.1652 21.4318 83.1431 21.4287H70.2859C69.2639 21.4318 68.2846 21.8391 67.5619 22.5618C66.8392 23.2845 66.4318 24.2638 66.4288 25.2859V30.4288C66.4288 30.7697 66.5642 31.0968 66.8053 31.3379C67.0465 31.579 67.3735 31.7145 67.7145 31.7145H69.0002V35.0831L67.6631 36.5616C61.0709 43.8785 57.4247 53.379 57.4287 63.2275V70.2861H54.8573V56.1432C54.8638 54.9622 54.634 53.7918 54.1814 52.701C53.7287 51.6102 53.0624 50.621 52.2216 49.7917C50.5199 48.1166 48.2321 47.1711 45.8444 47.156C45.5078 47.1526 45.186 47.0174 44.948 46.7795C44.7101 46.5415 44.5749 46.2197 44.5715 45.8831V44.5717H45.8572C46.1982 44.5717 46.5253 44.4362 46.7664 44.1951C47.0075 43.954 47.143 43.6269 47.143 43.286V38.1431C47.1399 37.121 46.7326 36.1417 46.0099 35.419C45.2872 34.6963 44.3078 34.289 43.2858 34.2859H35.5715C34.5494 34.289 33.5701 34.6963 32.8474 35.419C32.1247 36.1417 31.7174 37.121 31.7143 38.1431V43.286C31.7143 43.6269 31.8498 43.954 32.0909 44.1951C32.332 44.4362 32.659 44.5717 33 44.5717H34.2858V45.896C34.2833 46.2197 34.1588 46.5306 33.9372 46.7666C33.7155 47.0025 33.413 47.1462 33.09 47.1688C27.8186 47.5417 24 51.3088 24 56.1432V81.8576C24.0031 82.8796 24.4104 83.8589 25.1331 84.5816C25.8558 85.3043 26.8351 85.7117 27.8572 85.7147H33V92.1433C33 93.8483 33.6773 95.4834 34.8829 96.689C36.0885 97.8946 37.7237 98.5719 39.4286 98.5719H80.5717C82.0526 98.5681 83.4871 98.0549 84.6343 97.1184C85.7815 96.1819 86.5715 94.8792 86.8717 93.429H89.5717C91.2767 93.429 92.9118 92.7517 94.1174 91.5461C95.323 90.3405 96.0003 88.7054 96.0003 87.0004V63.2275C96.0029 57.9752 94.9628 52.7747 92.9403 47.9274ZM69.0002 25.2859C69.0002 24.9449 69.1357 24.6178 69.3768 24.3767C69.6179 24.1356 69.9449 24.0002 70.2859 24.0002H83.1431C83.4841 24.0002 83.8112 24.1356 84.0523 24.3767C84.2934 24.6178 84.4289 24.9449 84.4289 25.2859V29.143H69.0002V25.2859ZM81.8574 31.7145V34.2859H71.5716V31.7145H81.8574ZM69.5659 38.2845L70.8516 36.8574H82.5774L83.8631 38.2845C86.2457 40.9412 88.2372 43.9241 89.7774 47.1431H63.6516C65.1919 43.9241 67.1834 40.9412 69.5659 38.2845ZM34.2858 38.1431C34.2858 37.8021 34.4212 37.475 34.6623 37.2339C34.9035 36.9928 35.2305 36.8574 35.5715 36.8574H43.2858C43.6268 36.8574 43.9538 36.9928 44.1949 37.2339C44.4361 37.475 44.5715 37.8021 44.5715 38.1431V42.0002H34.2858V38.1431ZM26.5714 56.1432C26.5714 52.646 29.3229 50.0103 33.27 49.7403C34.2422 49.669 35.1517 49.2335 35.8167 48.5208C36.4818 47.8081 36.8533 46.8707 36.8572 45.896V44.5717H42.0001V45.8831C42.0062 46.8788 42.3958 47.8338 43.0877 48.5497C43.7797 49.2656 44.7209 49.6874 45.7158 49.7274C47.4655 49.7149 49.1503 50.3889 50.4087 51.6046C51.0065 52.1991 51.4802 52.9065 51.8024 53.6856C52.1247 54.4647 52.289 55.3 52.2858 56.1432V70.2861H47.143V58.7146C47.143 58.3736 47.0075 58.0466 46.7664 57.8055C46.5253 57.5643 46.1982 57.4289 45.8572 57.4289H26.5714V56.1432ZM33 83.1433H27.8572C27.5162 83.1433 27.1891 83.0078 26.948 82.7667C26.7069 82.5256 26.5714 82.1986 26.5714 81.8576V78.0004H33V83.1433ZM33.1286 75.429H26.5714V60.0003H44.5715V70.2861H39.4286C37.9477 70.2899 36.5132 70.8031 35.366 71.7396C34.2188 72.6761 33.4288 73.9788 33.1286 75.429ZM84.4289 92.1433C84.4258 93.1654 84.0184 94.1447 83.2957 94.8674C82.573 95.5901 81.5937 95.9974 80.5717 96.0005H39.4286C38.4066 95.9974 37.4273 95.5901 36.7046 94.8674C35.9819 94.1447 35.5745 93.1654 35.5715 92.1433V76.7147C35.5745 75.6926 35.9819 74.7133 36.7046 73.9906C37.4273 73.2679 38.4066 72.8606 39.4286 72.8575H80.5717C81.5937 72.8606 82.573 73.2679 83.2957 73.9906C84.0184 74.7133 84.4258 75.6926 84.4289 76.7147V92.1433ZM93.4289 87.0004C93.4258 88.0225 93.0185 89.0018 92.2958 89.7245C91.5731 90.4472 90.5938 90.8545 89.5717 90.8576H87.0003V76.7147C86.9964 75.3181 86.5308 73.962 85.676 72.8575H93.4289V87.0004ZM93.4289 70.2861H60.0002V63.2275C59.9999 58.6051 60.8588 54.023 62.533 49.7146H90.896C92.5703 54.023 93.4291 58.6051 93.4289 63.2275V70.2861Z" fill="white"/>
<path d="M80.5715 63.8576H83.1429C83.4839 63.8576 83.8109 63.7222 84.0521 63.481C84.2932 63.2399 84.4286 62.9129 84.4286 62.5719V57.429C84.4286 57.088 84.2932 56.761 84.0521 56.5199C83.8109 56.2788 83.4839 56.1433 83.1429 56.1433H80.5715V53.5719C80.5715 53.2309 80.436 52.9038 80.1949 52.6627C79.9538 52.4216 79.6268 52.2861 79.2858 52.2861H74.1429C73.8019 52.2861 73.4749 52.4216 73.2337 52.6627C72.9926 52.9038 72.8572 53.2309 72.8572 53.5719V56.1433H70.2857C69.9447 56.1433 69.6177 56.2788 69.3766 56.5199C69.1355 56.761 69 57.088 69 57.429V62.5719C69 62.9129 69.1355 63.2399 69.3766 63.481C69.6177 63.7222 69.9447 63.8576 70.2857 63.8576H72.8572V66.4291C72.8572 66.77 72.9926 67.0971 73.2337 67.3382C73.4749 67.5793 73.8019 67.7148 74.1429 67.7148H79.2858C79.6268 67.7148 79.9538 67.5793 80.1949 67.3382C80.436 67.0971 80.5715 66.77 80.5715 66.4291V63.8576ZM79.2858 61.2862C78.9448 61.2862 78.6177 61.4216 78.3766 61.6628C78.1355 61.9039 78 62.2309 78 62.5719V65.1433H75.4286V62.5719C75.4286 62.2309 75.2931 61.9039 75.052 61.6628C74.8109 61.4216 74.4839 61.2862 74.1429 61.2862H71.5714V58.7147H74.1429C74.4839 58.7147 74.8109 58.5793 75.052 58.3382C75.2931 58.097 75.4286 57.77 75.4286 57.429V54.8576H78V57.429C78 57.77 78.1355 58.097 78.3766 58.3382C78.6177 58.5793 78.9448 58.7147 79.2858 58.7147H81.8572V61.2862H79.2858Z" fill="white"/>
<path d="M54.8572 75.429C54.0943 75.429 53.3485 75.6552 52.7142 76.079C52.0799 76.5028 51.5855 77.1052 51.2936 77.81C51.0017 78.5149 50.9253 79.2904 51.0741 80.0386C51.2229 80.7868 51.5903 81.4741 52.1297 82.0135C52.6692 82.553 53.3565 82.9203 54.1047 83.0692C54.8529 83.218 55.6284 83.1416 56.3332 82.8497C57.038 82.5577 57.6404 82.0633 58.0643 81.429C58.4881 80.7947 58.7143 80.049 58.7143 79.2861C58.7143 78.2631 58.3079 77.2821 57.5846 76.5587C56.8612 75.8353 55.8801 75.429 54.8572 75.429ZM54.8572 80.5718C54.6029 80.5718 54.3543 80.4964 54.1429 80.3552C53.9314 80.2139 53.7666 80.0131 53.6693 79.7781C53.572 79.5432 53.5465 79.2847 53.5961 79.0353C53.6458 78.7859 53.7682 78.5568 53.948 78.377C54.1278 78.1972 54.3569 78.0747 54.6063 78.0251C54.8557 77.9755 55.1143 78.001 55.3492 78.0983C55.5841 78.1956 55.7849 78.3604 55.9262 78.5718C56.0675 78.7832 56.1429 79.0318 56.1429 79.2861C56.1429 79.6271 56.0074 79.9541 55.7663 80.1953C55.5252 80.4364 55.1982 80.5718 54.8572 80.5718Z" fill="white"/>
<path d="M54.8572 85.7148C54.0943 85.7148 53.3485 85.9411 52.7142 86.3649C52.0799 86.7887 51.5855 87.3911 51.2936 88.0959C51.0017 88.8007 50.9253 89.5763 51.0741 90.3245C51.2229 91.0727 51.5903 91.76 52.1297 92.2994C52.6692 92.8389 53.3565 93.2062 54.1047 93.3551C54.8529 93.5039 55.6284 93.4275 56.3332 93.1356C57.038 92.8436 57.6404 92.3492 58.0643 91.7149C58.4881 91.0806 58.7143 90.3349 58.7143 89.572C58.7143 88.549 58.3079 87.5679 57.5846 86.8446C56.8612 86.1212 55.8801 85.7148 54.8572 85.7148ZM54.8572 90.8577C54.6029 90.8577 54.3543 90.7823 54.1429 90.641C53.9314 90.4998 53.7666 90.299 53.6693 90.064C53.572 89.8291 53.5465 89.5706 53.5961 89.3212C53.6458 89.0718 53.7682 88.8427 53.948 88.6629C54.1278 88.4831 54.3569 88.3606 54.6063 88.311C54.8557 88.2614 55.1143 88.2868 55.3492 88.3842C55.5841 88.4815 55.7849 88.6463 55.9262 88.8577C56.0675 89.0691 56.1429 89.3177 56.1429 89.572C56.1429 89.913 56.0074 90.24 55.7663 90.4811C55.5252 90.7223 55.1982 90.8577 54.8572 90.8577Z" fill="white"/>
<path d="M65.1423 75.429C64.3794 75.429 63.6337 75.6552 62.9994 76.079C62.3651 76.5028 61.8707 77.1052 61.5788 77.81C61.2868 78.5149 61.2104 79.2904 61.3593 80.0386C61.5081 80.7868 61.8755 81.4741 62.4149 82.0135C62.9543 82.553 63.6416 82.9203 64.3898 83.0692C65.138 83.218 65.9136 83.1416 66.6184 82.8497C67.3232 82.5577 67.9256 82.0633 68.3494 81.429C68.7733 80.7947 68.9995 80.049 68.9995 79.2861C68.9995 78.2631 68.5931 77.2821 67.8697 76.5587C67.1464 75.8353 66.1653 75.429 65.1423 75.429ZM65.1423 80.5718C64.888 80.5718 64.6394 80.4964 64.428 80.3552C64.2166 80.2139 64.0518 80.0131 63.9545 79.7781C63.8572 79.5432 63.8317 79.2847 63.8813 79.0353C63.9309 78.7859 64.0534 78.5568 64.2332 78.377C64.413 78.1972 64.6421 78.0747 64.8915 78.0251C65.1409 77.9755 65.3994 78.001 65.6343 78.0983C65.8693 78.1956 66.0701 78.3604 66.2114 78.5718C66.3526 78.7832 66.428 79.0318 66.428 79.2861C66.428 79.6271 66.2926 79.9541 66.0515 80.1953C65.8103 80.4364 65.4833 80.5718 65.1423 80.5718Z" fill="white"/>
<path d="M65.1423 85.7146C64.3794 85.7146 63.6337 85.9408 62.9994 86.3646C62.3651 86.7885 61.8707 87.3909 61.5788 88.0957C61.2868 88.8005 61.2104 89.576 61.3593 90.3243C61.5081 91.0725 61.8755 91.7597 62.4149 92.2992C62.9543 92.8386 63.6416 93.206 64.3898 93.3548C65.138 93.5036 65.9136 93.4272 66.6184 93.1353C67.3232 92.8434 67.9256 92.349 68.3494 91.7147C68.7733 91.0804 68.9995 90.3346 68.9995 89.5718C68.9995 88.5488 68.5931 87.5677 67.8697 86.8443C67.1464 86.121 66.1653 85.7146 65.1423 85.7146ZM65.1423 90.8575C64.888 90.8575 64.6394 90.7821 64.428 90.6408C64.2166 90.4995 64.0518 90.2987 63.9545 90.0638C63.8572 89.8288 63.8317 89.5703 63.8813 89.3209C63.9309 89.0715 64.0534 88.8424 64.2332 88.6626C64.413 88.4828 64.6421 88.3604 64.8915 88.3107C65.1409 88.2611 65.3994 88.2866 65.6343 88.3839C65.8693 88.4812 66.0701 88.646 66.2114 88.8575C66.3526 89.0689 66.428 89.3175 66.428 89.5718C66.428 89.9128 66.2926 90.2398 66.0515 90.4809C65.8103 90.722 65.4833 90.8575 65.1423 90.8575Z" fill="white"/>
<path d="M44.571 75.429C43.8082 75.429 43.0624 75.6552 42.4281 76.079C41.7938 76.5028 41.2994 77.1052 41.0075 77.81C40.7155 78.5149 40.6392 79.2904 40.788 80.0386C40.9368 80.7868 41.3042 81.4741 41.8436 82.0135C42.383 82.553 43.0703 82.9203 43.8185 83.0692C44.5667 83.218 45.3423 83.1416 46.0471 82.8497C46.7519 82.5577 47.3543 82.0633 47.7781 81.429C48.202 80.7947 48.4282 80.049 48.4282 79.2861C48.4282 78.2631 48.0218 77.2821 47.2985 76.5587C46.5751 75.8353 45.594 75.429 44.571 75.429ZM44.571 80.5718C44.3167 80.5718 44.0682 80.4964 43.8567 80.3552C43.6453 80.2139 43.4805 80.0131 43.3832 79.7781C43.2859 79.5432 43.2604 79.2847 43.31 79.0353C43.3596 78.7859 43.4821 78.5568 43.6619 78.377C43.8417 78.1972 44.0708 78.0747 44.3202 78.0251C44.5696 77.9755 44.8281 78.001 45.0631 78.0983C45.298 78.1956 45.4988 78.3604 45.6401 78.5718C45.7813 78.7832 45.8567 79.0318 45.8567 79.2861C45.8567 79.6271 45.7213 79.9541 45.4802 80.1953C45.2391 80.4364 44.912 80.5718 44.571 80.5718Z" fill="white"/>
<path d="M44.571 85.7148C43.8082 85.7148 43.0624 85.9411 42.4281 86.3649C41.7938 86.7887 41.2994 87.3911 41.0075 88.0959C40.7155 88.8007 40.6392 89.5763 40.788 90.3245C40.9368 91.0727 41.3042 91.76 41.8436 92.2994C42.383 92.8389 43.0703 93.2062 43.8185 93.3551C44.5667 93.5039 45.3423 93.4275 46.0471 93.1356C46.7519 92.8436 47.3543 92.3492 47.7781 91.7149C48.202 91.0806 48.4282 90.3349 48.4282 89.572C48.4282 88.549 48.0218 87.5679 47.2985 86.8446C46.5751 86.1212 45.594 85.7148 44.571 85.7148ZM44.571 90.8577C44.3167 90.8577 44.0682 90.7823 43.8567 90.641C43.6453 90.4998 43.4805 90.299 43.3832 90.064C43.2859 89.8291 43.2604 89.5706 43.31 89.3212C43.3596 89.0718 43.4821 88.8427 43.6619 88.6629C43.8417 88.4831 44.0708 88.3606 44.3202 88.311C44.5696 88.2614 44.8281 88.2868 45.0631 88.3842C45.298 88.4815 45.4988 88.6463 45.6401 88.8577C45.7813 89.0691 45.8567 89.3177 45.8567 89.572C45.8567 89.913 45.7213 90.24 45.4802 90.4811C45.2391 90.7223 44.912 90.8577 44.571 90.8577Z" fill="white"/>
<path d="M75.4285 75.429C74.6656 75.429 73.9198 75.6552 73.2855 76.079C72.6512 76.5028 72.1568 77.1052 71.8649 77.81C71.573 78.5149 71.4966 79.2904 71.6454 80.0386C71.7942 80.7868 72.1616 81.4741 72.701 82.0135C73.2405 82.553 73.9277 82.9203 74.676 83.0692C75.4242 83.218 76.1997 83.1416 76.9045 82.8497C77.6093 82.5577 78.2117 82.0633 78.6356 81.429C79.0594 80.7947 79.2856 80.049 79.2856 79.2861C79.2856 78.2631 78.8792 77.2821 78.1559 76.5587C77.4325 75.8353 76.4514 75.429 75.4285 75.429ZM75.4285 80.5718C75.1742 80.5718 74.9256 80.4964 74.7141 80.3552C74.5027 80.2139 74.3379 80.0131 74.2406 79.7781C74.1433 79.5432 74.1178 79.2847 74.1674 79.0353C74.217 78.7859 74.3395 78.5568 74.5193 78.377C74.6991 78.1972 74.9282 78.0747 75.1776 78.0251C75.427 77.9755 75.6855 78.001 75.9205 78.0983C76.1554 78.1956 76.3562 78.3604 76.4975 78.5718C76.6388 78.7832 76.7142 79.0318 76.7142 79.2861C76.7142 79.6271 76.5787 79.9541 76.3376 80.1953C76.0965 80.4364 75.7694 80.5718 75.4285 80.5718Z" fill="white"/>
<path d="M75.4285 85.7146C74.6656 85.7146 73.9198 85.9408 73.2855 86.3646C72.6512 86.7885 72.1568 87.3909 71.8649 88.0957C71.573 88.8005 71.4966 89.576 71.6454 90.3243C71.7942 91.0725 72.1616 91.7597 72.701 92.2992C73.2405 92.8386 73.9277 93.206 74.676 93.3548C75.4242 93.5036 76.1997 93.4272 76.9045 93.1353C77.6093 92.8434 78.2117 92.349 78.6356 91.7147C79.0594 91.0804 79.2856 90.3346 79.2856 89.5718C79.2856 88.5488 78.8792 87.5677 78.1559 86.8443C77.4325 86.121 76.4514 85.7146 75.4285 85.7146ZM75.4285 90.8575C75.1742 90.8575 74.9256 90.7821 74.7141 90.6408C74.5027 90.4995 74.3379 90.2987 74.2406 90.0638C74.1433 89.8288 74.1178 89.5703 74.1674 89.3209C74.217 89.0715 74.3395 88.8424 74.5193 88.6626C74.6991 88.4828 74.9282 88.3604 75.1776 88.3107C75.427 88.2611 75.6855 88.2866 75.9205 88.3839C76.1554 88.4812 76.3562 88.646 76.4975 88.8575C76.6388 89.0689 76.7142 89.3175 76.7142 89.5718C76.7142 89.9128 76.5787 90.2398 76.3376 90.4809C76.0965 90.722 75.7694 90.8575 75.4285 90.8575Z" fill="white"/>
<path d="M40.7146 62.5718H29.1431C28.8021 62.5718 28.4751 62.7072 28.234 62.9484C27.9929 63.1895 27.8574 63.5165 27.8574 63.8575C27.8574 64.1985 27.9929 64.5255 28.234 64.7666C28.4751 65.0078 28.8021 65.1432 29.1431 65.1432H40.7146C41.0556 65.1432 41.3826 65.0078 41.6238 64.7666C41.8649 64.5255 42.0003 64.1985 42.0003 63.8575C42.0003 63.5165 41.8649 63.1895 41.6238 62.9484C41.3826 62.7072 41.0556 62.5718 40.7146 62.5718Z" fill="white"/>
<path d="M35.5717 67.7146H29.1431C28.8021 67.7146 28.4751 67.8501 28.234 68.0912C27.9929 68.3323 27.8574 68.6593 27.8574 69.0003C27.8574 69.3413 27.9929 69.6683 28.234 69.9095C28.4751 70.1506 28.8021 70.286 29.1431 70.286H35.5717C35.9127 70.286 36.2398 70.1506 36.4809 69.9095C36.722 69.6683 36.8575 69.3413 36.8575 69.0003C36.8575 68.6593 36.722 68.3323 36.4809 68.0912C36.2398 67.8501 35.9127 67.7146 35.5717 67.7146Z" fill="white"/>
</svg>
