<svg width="120" height="120" viewBox="0 0 120 120" fill="none" xmlns="http://www.w3.org/2000/svg">
<rect x="1" y="1" width="118" height="118" rx="59" stroke="#F2F7FF" stroke-width="2" stroke-dasharray="2 2"/>
<path d="M76.2595 50.7097V47.2258C76.2595 38.2468 68.9805 30.9678 60.0014 30.9678C51.4128 30.9678 44.3796 37.6273 43.7842 46.0645" stroke="white" stroke-width="2" stroke-miterlimit="10" stroke-linecap="round" stroke-linejoin="round"/>
<path d="M69.2907 40.2578C69.2907 40.2578 61.6955 45.6829 50.7005 47.0941C50.0463 47.1781 49.5488 47.7226 49.5488 48.3822V48.3869C49.5488 49.6697 48.5089 50.7096 47.2261 50.7096H45.4843C43.7821 50.7096 42.4221 52.1743 42.5961 53.912C42.7473 55.4233 44.1313 56.5161 45.6499 56.5161L47.2264 56.5159C47.2262 63.5709 52.9455 69.29 60.0005 69.29C67.0554 69.29 72.7746 63.571 72.7746 56.5161V56.5159H74.5165C76.2188 56.5159 77.5788 55.051 77.4047 53.3131C77.2533 51.8022 75.8693 50.7096 74.3507 50.7096H72.7746C71.4918 50.7096 70.4521 49.6697 70.4521 48.3869V47.6204C70.4521 44.8369 68.1955 42.5804 65.4121 42.5804H65.4076" stroke="white" stroke-width="2" stroke-miterlimit="10" stroke-linecap="round" stroke-linejoin="round"/>
<path d="M69.2916 33.2903C69.2916 28.1595 65.1322 24 60.0013 24C54.8703 24 50.7109 28.1595 50.7109 33.2903" stroke="white" stroke-width="2" stroke-miterlimit="10" stroke-linecap="round" stroke-linejoin="round"/>
<path d="M54.1956 68.1291V72.8037C54.1956 74.1976 53.3648 75.4574 52.0834 76.0062L41.4581 80.5567C39.3224 81.4714 37.9375 83.5711 37.9375 85.8942V96" stroke="white" stroke-width="2" stroke-miterlimit="10" stroke-linecap="round" stroke-linejoin="round"/>
<path d="M65.8086 68.1291V72.8037C65.8086 74.1976 66.6394 75.4574 67.9208 76.0062L78.5461 80.5567C80.6817 81.4714 82.0667 83.5711 82.0667 85.8942V96" stroke="white" stroke-width="2" stroke-miterlimit="10" stroke-linecap="round" stroke-linejoin="round"/>
<path d="M54.1934 53.0321V54.1934" stroke="white" stroke-width="2" stroke-miterlimit="10" stroke-linecap="round" stroke-linejoin="round"/>
<path d="M65.8086 53.0323V54.1936" stroke="white" stroke-width="2" stroke-miterlimit="10" stroke-linecap="round" stroke-linejoin="round"/>
<path d="M56.5166 60C57.3758 60.7082 58.6089 61.1614 60.0006 61.1614C61.392 61.1614 62.6253 60.7082 63.4845 60" stroke="white" stroke-width="2" stroke-miterlimit="10" stroke-linecap="round" stroke-linejoin="round"/>
<path d="M49.5508 77.4193L58.714 83.5282C59.4943 84.0482 60.5106 84.0482 61.2908 83.5282L70.4541 77.4193" stroke="white" stroke-width="2" stroke-miterlimit="10" stroke-linecap="round" stroke-linejoin="round"/>
<path d="M44.9036 96C43.6209 96 42.5811 94.9601 42.5811 93.6775V89.0322C42.5811 87.7496 43.6209 86.7097 44.9036 86.7097H54.1939C55.4766 86.7097 56.5165 87.7496 56.5165 89.0322V93.6775C56.5165 94.9601 55.4766 96 54.1939 96" stroke="white" stroke-width="2" stroke-miterlimit="10" stroke-linecap="round" stroke-linejoin="round"/>
<path d="M49.5508 86.7095V78.5804" stroke="white" stroke-width="2" stroke-miterlimit="10" stroke-linecap="round" stroke-linejoin="round"/>
<path d="M70.4531 77.4194V89.0322" stroke="white" stroke-width="2" stroke-miterlimit="10" stroke-linecap="round" stroke-linejoin="round"/>
<path d="M73.9365 92.516C73.9365 94.4402 72.3767 96 70.4527 96C68.5286 96 66.9688 94.4402 66.9688 92.516C66.9688 90.592 68.5286 89.0322 70.4527 89.0322C72.3767 89.0322 73.9365 90.592 73.9365 92.516Z" stroke="white" stroke-width="2" stroke-miterlimit="10" stroke-linecap="round" stroke-linejoin="round"/>
<path d="M85.5498 71.613C81.7018 71.613 78.582 68.4936 78.582 64.6453V61.1615C78.582 58.596 80.6619 56.5162 83.2273 56.5162H87.8723C90.4378 56.5162 92.5176 58.596 92.5176 61.1615V64.6453C92.5176 68.4936 89.398 71.613 85.5498 71.613Z" stroke="white" stroke-width="2" stroke-miterlimit="10" stroke-linecap="round" stroke-linejoin="round"/>
<path d="M96.002 87.8708V79.0932C96.002 78.0936 95.3622 77.206 94.4138 76.8899L89.8284 75.3614C89.3541 75.2033 89.0342 74.7596 89.0342 74.2597V70.8058" stroke="white" stroke-width="2" stroke-miterlimit="10" stroke-linecap="round" stroke-linejoin="round"/>
<path d="M82.0657 70.8058V74.2596C82.0657 74.7596 81.7458 75.2031 81.2717 75.3613L79.7432 75.8708" stroke="white" stroke-width="2" stroke-miterlimit="10" stroke-linecap="round" stroke-linejoin="round"/>
<path d="M81.3564 75.4354L84.8534 78.0581C85.2663 78.3677 85.8341 78.3677 86.2469 78.0581L89.7439 75.4354" stroke="white" stroke-width="2" stroke-miterlimit="10" stroke-linecap="round" stroke-linejoin="round"/>
<path d="M34.4531 71.6128C38.3011 71.6128 41.4209 68.4933 41.4209 64.645V59.9999C41.4209 58.0759 39.8611 56.516 37.9369 56.516H30.9692C29.0452 56.516 27.4854 58.0759 27.4854 59.9999V64.645C27.4854 68.4933 30.605 71.6128 34.4531 71.6128Z" stroke="white" stroke-width="2" stroke-miterlimit="10" stroke-linecap="round" stroke-linejoin="round"/>
<path d="M24.002 87.8708V79.0932C24.002 78.0936 24.6417 77.206 25.5902 76.8899L30.1756 75.3614C30.6499 75.2033 30.9697 74.7596 30.9697 74.2597V70.8058" stroke="white" stroke-width="2" stroke-miterlimit="10" stroke-linecap="round" stroke-linejoin="round"/>
<path d="M37.9375 70.806V74.2599C37.9375 74.7598 38.2574 75.2034 38.7315 75.3616L40.26 75.8711" stroke="white" stroke-width="2" stroke-miterlimit="10" stroke-linecap="round" stroke-linejoin="round"/>
<path d="M38.6463 75.4351L35.1493 78.0579C34.7364 78.3674 34.1687 78.3674 33.7558 78.0579L30.2588 75.4351" stroke="white" stroke-width="2" stroke-miterlimit="10" stroke-linecap="round" stroke-linejoin="round"/>
<path d="M28.6466 87.8708C28.0053 87.8708 27.4854 87.3509 27.4854 86.7096V84.387C27.4854 83.7456 28.0053 83.2258 28.6466 83.2258H33.2917C33.9332 83.2258 34.4531 83.7456 34.4531 84.387V86.7096C34.4531 87.3509 33.9332 87.8708 33.2917 87.8708" stroke="white" stroke-width="2" stroke-miterlimit="10" stroke-linecap="round" stroke-linejoin="round"/>
<path d="M30.9688 83.2258V76.2581" stroke="white" stroke-width="2" stroke-miterlimit="10" stroke-linecap="round" stroke-linejoin="round"/>
<path d="M90.1943 83.2258V76.2581" stroke="white" stroke-width="2" stroke-miterlimit="10" stroke-linecap="round" stroke-linejoin="round"/>
<path d="M92.5172 85.5481C92.5172 84.2654 91.4773 83.2255 90.1946 83.2255C88.9119 83.2255 87.8721 84.2654 87.8721 85.5481C87.8721 86.8307 88.9119 87.8706 90.1946 87.8706C91.4773 87.8706 92.5172 86.8307 92.5172 85.5481Z" stroke="white" stroke-width="2" stroke-miterlimit="10" stroke-linecap="round" stroke-linejoin="round"/>
<path d="M41.4208 63.4839C37.0983 63.4839 34.063 61.5532 32.7936 60.5664C32.3795 60.2443 31.8085 60.2413 31.3889 60.5561L27.4854 63.4839" stroke="white" stroke-width="2" stroke-miterlimit="10" stroke-linecap="round" stroke-linejoin="round"/>
</svg>
