<svg width="120" height="120" viewBox="0 0 120 120" fill="none" xmlns="http://www.w3.org/2000/svg">
<rect x="1" y="1" width="118" height="118" rx="59" stroke="#F2F7FF" stroke-width="2" stroke-dasharray="2 2"/>
<path d="M42.6094 42.7336C41.8762 42.7336 41.2812 43.3286 41.2812 44.0618C41.2812 44.7949 41.8762 45.3899 42.6094 45.3899C43.3425 45.3899 43.9375 44.7949 43.9375 44.0618C43.9375 43.3286 43.3425 42.7336 42.6094 42.7336Z" fill="white"/>
<path d="M54.5618 67.5681H50.5777V63.584C50.5777 62.8506 49.983 62.2559 49.2496 62.2559C48.5162 62.2559 47.9216 62.8506 47.9216 63.584V67.5681H43.9375C43.2041 67.5681 42.6094 68.1628 42.6094 68.8961C42.6094 69.6293 43.2041 70.2242 43.9375 70.2242H47.9216V74.2083C47.9216 74.9417 48.5163 75.5364 49.2496 75.5364C49.9828 75.5364 50.5777 74.9417 50.5777 74.2083V70.2242H54.5618C55.2952 70.2242 55.8899 69.6295 55.8899 68.8961C55.8899 68.1627 55.2953 67.5681 54.5618 67.5681Z" fill="white"/>
<path d="M90.4054 68.7634C87.4696 63.6785 80.9782 61.9383 75.8925 64.8748L70.4979 67.9892V56.4564C70.4979 55.0306 70.0264 53.6158 69.1699 52.4723L62.5297 43.6189V39.8489C64.0754 39.3006 65.1858 37.8245 65.1858 36.0931V29.9841C65.1856 27.7873 63.3983 26 61.2014 26H37.2965C35.0996 26 33.3122 27.7873 33.3122 29.9841V36.0932C33.3122 37.8244 34.4227 39.3007 35.9683 39.849V43.619L29.3276 52.4729C28.4715 53.6159 28 55.0306 28 56.4564V82.1768C28 85.8383 30.9788 88.817 34.6402 88.817H55.9834C58.9612 93.8084 65.3821 95.479 70.4153 92.5728L86.5169 83.2763C91.5578 80.3653 93.3559 73.876 90.4054 68.7634ZM35.9683 29.9841C35.9683 29.2518 36.5641 28.656 37.2963 28.656H61.2013C61.9336 28.656 62.5294 29.2518 62.5294 29.9841V36.0932C62.5294 36.8255 61.9336 37.4212 61.2013 37.4212H37.2965C36.5641 37.4212 35.9685 36.8254 35.9685 36.0932V29.9841H35.9683ZM31.4531 54.0657L38.3588 44.8584C38.5312 44.6286 38.6244 44.3489 38.6244 44.0615V40.0774H59.8733V42.7335H47.9209C47.1875 42.7335 46.5928 43.3283 46.5928 44.0617C46.5928 44.795 47.1875 45.3898 47.9209 45.3898H60.5374L67.0443 54.0653C67.4695 54.6331 67.7337 55.3124 67.8135 56.0142H30.6844C30.7641 55.3123 31.0283 54.633 31.4531 54.0657ZM34.6403 86.1609C32.4435 86.1609 30.6562 84.3736 30.6562 82.1768V80.8355H54.7849C54.3637 82.5574 54.3665 84.3966 54.8488 86.161H34.6403V86.1609ZM55.8265 78.1925H30.6561V58.6701H67.8417V69.5225L59.7907 74.1712C58.1121 75.1409 56.7553 76.5212 55.8265 78.1925ZM69.0874 90.2725C65.2761 92.4733 60.4059 91.1717 58.2036 87.3578C55.9908 83.507 57.3318 78.6588 61.1191 76.4713L68.3278 72.3092L76.2961 86.1104L69.0874 90.2725ZM85.1888 80.9761L78.5964 84.7824L70.6279 70.981L77.2205 67.1751C81.0343 64.9733 85.9028 66.2771 88.1051 70.0912C90.3171 73.9245 88.9719 78.7915 85.1888 80.9761Z" fill="white"/>
</svg>
