<svg width="40" height="40" viewBox="0 0 40 40" fill="none" xmlns="http://www.w3.org/2000/svg">
<rect width="40" height="40" rx="20" fill="white"/>
<path d="M14.8182 27.9996C15.8223 27.9996 16.6364 27.1856 16.6364 26.1815C16.6364 25.1773 15.8223 24.3633 14.8182 24.3633C13.814 24.3633 13 25.1773 13 26.1815C13 27.1856 13.814 27.9996 14.8182 27.9996Z" stroke="#727272" stroke-width="1.5" stroke-linecap="round" stroke-linejoin="round"/>
<path d="M24.9998 27.9996C26.004 27.9996 26.818 27.1856 26.818 26.1815C26.818 25.1773 26.004 24.3633 24.9998 24.3633C23.9957 24.3633 23.1816 25.1773 23.1816 26.1815C23.1816 27.1856 23.9957 27.9996 24.9998 27.9996Z" stroke="#727272" stroke-width="1.5" stroke-linecap="round" stroke-linejoin="round"/>
<path d="M24.6364 24.3636H14.7902V12H13" stroke="#727272" stroke-width="1.5" stroke-linecap="round" stroke-linejoin="round"/>
<path d="M15.1816 13.4541L27.5453 14.3632L26.6622 20.7268H15.1816" stroke="#727272" stroke-width="1.5" stroke-linecap="round" stroke-linejoin="round"/>
</svg>
