<svg width="20" height="20" viewBox="0 0 20 20" fill="none" xmlns="http://www.w3.org/2000/svg">
<g id="Group 8107">
<path id="Vector" d="M4.97266 17.1504C5.87012 17.1504 6.59766 16.4229 6.59766 15.5254C6.59766 14.6279 5.87012 13.9004 4.97266 13.9004C4.07519 13.9004 3.34766 14.6279 3.34766 15.5254C3.34766 16.4229 4.07519 17.1504 4.97266 17.1504Z" stroke="white" stroke-width="1.5" stroke-linecap="round" stroke-linejoin="round"/>
<path id="Vector_2" d="M14.0723 17.1504C14.9697 17.1504 15.6973 16.4229 15.6973 15.5254C15.6973 14.6279 14.9697 13.9004 14.0723 13.9004C13.1748 13.9004 12.4473 14.6279 12.4473 15.5254C12.4473 16.4229 13.1748 17.1504 14.0723 17.1504Z" stroke="white" stroke-width="1.5" stroke-linecap="round" stroke-linejoin="round"/>
<path id="Vector_3" d="M13.7477 13.8996H4.94766V2.84961H3.34766" stroke="white" stroke-width="1.5" stroke-linecap="round" stroke-linejoin="round"/>
<path id="Vector_4" d="M5.29785 4.15039L16.3479 4.96289L15.5586 10.6504H5.29785" stroke="white" stroke-width="1.5" stroke-linecap="round" stroke-linejoin="round"/>
</g>
</svg>
