<svg width="122" height="122" viewBox="0 0 122 122" fill="none" xmlns="http://www.w3.org/2000/svg">
<rect x="1.25" y="1.25" width="119.5" height="119.5" rx="59.25" stroke="#FFC12B" stroke-width="1.5" stroke-dasharray="2 2"/>
<path d="M77.8277 82.9567L77.8276 82.9568C77.3633 83.4307 77.371 84.1915 77.8451 84.6561M77.8277 82.9567L79.5752 82.8902C80.0493 83.3548 80.057 84.1155 79.5927 84.5894L79.5926 84.5895L79.5445 84.6386C79.5445 84.6387 79.5445 84.6387 79.5445 84.6387C79.3089 84.8789 78.9982 84.9993 78.6859 84.9993C78.3817 84.9993 78.079 84.8853 77.8451 84.6561M77.8277 82.9567L77.8759 82.9075C77.8759 82.9075 77.8759 82.9074 77.8759 82.9074M77.8277 82.9567L77.8759 82.9074M77.8451 84.6561L77.4951 85.0132L77.8451 84.6561ZM77.8759 82.9074C77.876 82.9074 77.876 82.9074 77.876 82.9073M77.8759 82.9074L77.876 82.9073M77.876 82.9073C78.3407 82.4335 79.1013 82.4258 79.5752 82.8901L77.876 82.9073Z" fill="#FFC12B" stroke="#FFC12B"/>
<path d="M93.2046 64.695V65.195H93.7046H98.2263C98.8899 65.195 99.4279 65.7329 99.4279 66.3966C99.4279 67.0602 98.8899 67.5981 98.2263 67.5981H93.7046H93.2046V68.0981V72.6199C93.2046 73.2835 92.6666 73.8214 92.003 73.8214C91.3394 73.8214 90.8014 73.2835 90.8014 72.6199V68.0981V67.5981H90.3014H85.7797C85.1161 67.5981 84.5781 67.0602 84.5781 66.3966C84.5781 65.7329 85.1161 65.195 85.7797 65.195H90.3014H90.8014V64.695V60.1732C90.8014 59.5096 91.3394 58.9717 92.003 58.9717C92.6666 58.9717 93.2046 59.5096 93.2046 60.1732V64.695Z" fill="#FFC12B" stroke="#FFC12B"/>
<path d="M97.1124 52.8496L97.0734 52.5612C95.5165 41.0543 85.9011 32.46 74.505 32.46C68.7495 32.46 63.3677 34.6041 59.167 38.538L58.8252 38.8581L58.4835 38.538C54.2826 34.6041 48.9008 32.46 43.1455 32.46C30.5926 32.46 20.3594 42.9198 20.3594 55.8006C20.3594 58.3025 21.09 61.1399 22.5772 64.3103L22.9113 65.0227H22.1245H21.5609C20.8973 65.0227 20.3594 65.5606 20.3594 66.2242C20.3594 66.8879 20.8973 67.4258 21.5609 67.4258H23.9367H24.222L24.3672 67.6715C27.5153 73.0012 32.5088 79.0857 39.3459 85.884C48.6104 95.096 58.0077 102.305 58.0955 102.373L57.7917 102.77L58.0955 102.373C58.3107 102.537 58.5676 102.62 58.8252 102.62C59.0828 102.62 59.3396 102.537 59.5551 102.373C59.6339 102.312 66.8152 96.8043 74.7717 89.3027L75.1147 89.6665L74.7717 89.3027C75.2546 88.8474 75.2769 88.087 74.8217 87.6042L74.8216 87.6042C74.3665 87.1214 73.606 87.0989 73.1231 87.5542C67.0216 93.3069 61.3897 97.8673 59.1356 99.6501L58.8254 99.8954L58.5152 99.65C55.8374 97.5314 48.3847 91.4856 41.0159 84.1557L41.3685 83.8012L41.0159 84.1557C35.1172 78.2879 30.5867 72.9261 27.5155 68.1982L27.0138 67.4258H27.9348H43.1683C43.7043 67.4258 44.1754 67.0707 44.3232 66.5556L47.2962 56.1928L47.7566 54.5878L48.2541 56.1817L56.4869 82.5589C56.4869 82.559 56.4869 82.559 56.4869 82.559C56.6437 83.0609 57.1084 83.4026 57.634 83.4026C58.1596 83.4026 58.6242 83.0608 58.7808 82.559L63.3402 67.9472L63.4497 67.5961H63.8175H71.4139C72.0776 67.5961 72.6155 67.0582 72.6155 66.3946C72.6155 65.7309 72.0776 65.193 71.4139 65.193H62.566C62.0402 65.193 61.5755 65.5347 61.419 66.0365L61.4189 66.0366L58.1108 76.6382L57.6335 78.1676L57.1562 76.6382L48.8549 50.0417L48.8549 50.0417C48.6964 49.5339 48.2256 49.1909 47.695 49.1982L47.6939 49.1982C47.1633 49.2044 46.6993 49.5581 46.5528 50.0685L42.3664 64.6607L42.2625 65.0228H41.8858H25.921H25.6201L25.4792 64.7569C23.7009 61.3995 22.7625 58.3892 22.7625 55.8006C22.7625 44.2682 31.8929 34.8631 43.1455 34.8631C48.7979 34.8631 54.0548 37.1884 57.9421 41.4019M97.1124 52.8496L57.5746 41.7409M97.1124 52.8496L97.3825 52.9581M97.1124 52.8496L97.3825 52.9581M57.9421 41.4019L57.5746 41.7409M57.9421 41.4019C57.942 41.4018 57.942 41.4018 57.942 41.4018L57.5746 41.7409M57.9421 41.4019C58.1697 41.6485 58.4898 41.7886 58.8252 41.7886C59.1607 41.7886 59.481 41.6484 59.7084 41.4019L60.0759 41.7409M57.5746 41.7409C57.8969 42.0901 58.3502 42.2886 58.8252 42.2886C59.3003 42.2886 59.7538 42.0901 60.0759 41.7409M60.0759 41.7409L59.7084 41.4019C63.5957 37.1884 68.8526 34.8631 74.505 34.8631C84.232 34.8631 92.487 41.8765 94.448 51.4489L94.5887 52.1359L93.8933 52.045C93.2752 51.9642 92.6453 51.922 92.0056 51.922C84.0252 51.922 77.5318 58.4154 77.5318 66.3957C77.5318 74.3761 84.0252 80.8695 92.0056 80.8695C99.986 80.8695 106.479 74.3761 106.479 66.3957C106.48 60.3157 102.71 55.0977 97.3825 52.9581M60.0759 41.7409L97.3825 52.9581M49.3322 49.8928C49.1083 49.1752 48.4416 48.6879 47.6881 48.6983C46.9366 48.7069 46.2796 49.2079 46.0722 49.9305L49.3322 49.8928ZM79.9351 66.3957C79.9351 73.0519 85.3496 78.4664 92.0058 78.4664C98.6619 78.4664 104.076 73.0519 104.076 66.3957C104.076 59.7396 98.6619 54.3251 92.0058 54.3251C85.3496 54.3251 79.9351 59.7396 79.9351 66.3957Z" fill="#FFC12B" stroke="#FFC12B"/>
</svg>
