<svg width="122" height="121" viewBox="0 0 122 121" fill="none" xmlns="http://www.w3.org/2000/svg">
<rect x="1.25" y="0.75" width="119.5" height="119.5" rx="59.25" stroke="#FFC12B" stroke-width="1.5" stroke-dasharray="2 2"/>
<path d="M28.3566 38.5282C28.2081 39.4285 28.1018 40.3548 28.0397 41.3072C27.8247 44.6027 26.4042 46.1951 26.0833 47.5731C25.6934 49.2472 27.4732 50.9663 28.184 52.62C28.4816 53.3127 28.4329 54.1113 28.0636 54.7689C26.5989 57.3762 24.7607 59.1499 22.5619 60.8425C21.281 61.8288 20.3034 62.7104 20.3066 64.2459C20.3108 66.037 21.4321 67.2073 23.839 67.9474C28.4499 69.3655 22.8754 72.98 22.8754 72.98C22.8754 72.98 22.103 74.092 23.365 75.0984C24.8533 76.2849 25.5277 77.1637 25.5277 77.1637C23.2505 78.8055 24.4878 80.619 24.4878 80.619C24.4878 80.619 25.6689 80.8709 26.587 81.5067C27.0464 81.8245 27.3291 82.579 27.0106 83.1483C26.4195 84.2047 25.6136 85.4702 26.1633 87.7029C27.0106 91.1454 29.8989 92.4186 32.7964 92.8929C34.8293 93.2255 39.039 92.5202 43.3223 91.9397C51.1102 90.8842 54.5652 97.5344 56.7867 103.007C57.4704 104.691 59.2953 105.608 61.0552 105.154L87.9117 98.2313C89.999 97.6931 91.1567 95.4673 90.4071 93.4462C89.99 92.3218 89.5622 91.0996 89.1636 89.8356" stroke="#FFC12B" stroke-width="2.5" stroke-miterlimit="10" stroke-linecap="round" stroke-linejoin="round"/>
<path d="M87.6517 83.7402C87.0849 80.2567 87.2354 77.1347 88.9625 75.5716C99.7902 65.7729 101.697 60.3223 101.697 47.6118C101.697 24.5742 79.0674 15.7298 60.6394 15.7298C47.3106 15.7298 34.9626 21.4049 30.127 32.4822" stroke="#FFC12B" stroke-width="2.5" stroke-miterlimit="10" stroke-linecap="round" stroke-linejoin="round"/>
<path d="M68.8672 67.6592C69.5549 68.2105 70.3913 68.5955 71.3242 68.7434C71.9578 68.8435 72.5828 68.8257 73.1772 68.7063C74.2188 69.9676 75.7061 70.8696 77.4489 71.1458C81.2431 71.7466 84.8063 69.1579 85.4071 65.3637C85.4839 64.8791 85.5086 64.3983 85.4853 63.927" stroke="#FFC12B" stroke-width="2.5" stroke-miterlimit="10" stroke-linecap="round" stroke-linejoin="round"/>
<path d="M67.7794 64.1409L71.2914 75.5697C71.5719 76.4824 70.7987 77.3731 69.8556 77.2238L65.4499 76.526C64.4495 76.3675 63.6045 75.6976 63.2222 74.7595L58.8213 63.9643" stroke="#FFC12B" stroke-width="2.5" stroke-miterlimit="10" stroke-linecap="round" stroke-linejoin="round"/>
<path d="M59.5399 24.0708C57.6768 24.719 56.0314 25.8886 54.8069 27.4317C54.0394 27.016 53.1905 26.7199 52.2792 26.5755C48.0336 25.903 44.0452 28.7486 43.2766 32.9545C39.4833 33.6357 36.3612 36.6431 35.7243 40.6642C35.3907 42.7709 35.793 44.8231 36.7386 46.5627C36.0225 47.5599 35.5205 48.7338 35.3152 50.0291C34.6125 54.4665 37.6398 58.6334 42.0771 59.3362C44.73 59.7563 47.285 58.8428 49.0616 57.0918" stroke="#FFC12B" stroke-width="2.5" stroke-miterlimit="10" stroke-linecap="round" stroke-linejoin="round"/>
<path d="M74.6567 61.6555C76.1402 63.0794 78.0585 64.0806 80.2435 64.4267C85.9348 65.328 91.2794 61.445 92.1807 55.7536C92.6126 53.0271 91.9458 50.3805 90.5087 48.2636C92.0507 46.9524 93.1507 45.1067 93.4923 42.9509C94.2511 38.1599 90.9823 33.6607 86.1913 32.9019C86.1688 32.8985 86.1464 32.8963 86.1241 32.8931C85.2822 29.5992 82.5578 26.9552 78.9867 26.3895C76.2958 25.9634 73.697 26.8078 71.8012 28.4792C70.4774 26.3073 68.367 24.6315 65.7939 23.899" stroke="#FFC12B" stroke-width="2.5" stroke-miterlimit="10" stroke-linecap="round" stroke-linejoin="round"/>
<path d="M47.6579 48.0267C46.5944 48.7356 45.8677 49.9209 45.7967 51.2955C45.6906 53.3497 47.0848 55.1331 49.0199 55.5853C48.7468 58.9898 51.1368 62.0835 54.5667 62.6269C55.4543 62.7674 56.3287 62.7234 57.1509 62.5244C57.9316 63.5556 59.0956 64.2991 60.4741 64.5175C62.2076 64.792 63.8754 64.1728 65.0111 63.002C65.8647 63.5742 66.8518 63.9757 67.9333 64.1472C71.4873 64.7102 74.8462 62.6087 75.9818 59.322" stroke="#FFC12B" stroke-width="2.5" stroke-miterlimit="10" stroke-linecap="round" stroke-linejoin="round"/>
<path d="M70.0573 52.7061L66.6121 56.1462C65.8542 56.9031 64.6264 56.9031 63.8684 56.1462L54.421 46.7125C53.9142 46.2099 52.6365 44.7951 52.6367 42.268C52.6369 38.4961 55.6942 35.4385 59.466 35.4385C61.9078 35.4385 64.0329 36.7199 65.2402 38.6467C66.4476 36.7199 68.5742 35.4385 71.0157 35.4385C74.7833 35.4385 77.8411 38.6433 77.8438 42.411C77.8453 44.4479 76.6346 46.063 76.0748 46.6958C76.0655 46.7062 76.0563 46.7159 76.0462 46.726L74.5341 48.2359" stroke="#FFC12B" stroke-width="2.5" stroke-miterlimit="10" stroke-linecap="round" stroke-linejoin="round"/>
</svg>
