<svg width="122" height="122" viewBox="0 0 122 122" fill="none" xmlns="http://www.w3.org/2000/svg">
<rect x="1.25" y="1.25" width="119.5" height="119.5" rx="59.25" stroke="#FFC12B" stroke-width="1.5" stroke-dasharray="2 2"/>
<path d="M48.3231 76.8347L44.5534 98.6322L41.676 105.139C41.0016 106.666 42.1204 108.383 43.7881 108.383H51.8945C53.2828 108.383 54.453 107.35 54.6276 105.971L61.3512 74.985L68.0749 105.971C68.2497 107.35 69.4197 108.384 70.808 108.384H78.9144C80.5819 108.384 81.7007 106.667 81.0265 105.139L78.149 98.6324L73.0922 69.3916" stroke="#FFC12B" stroke-width="2.5" stroke-miterlimit="10" stroke-linecap="round" stroke-linejoin="round"/>
<path d="M61.3536 33.8298C57.59 33.8298 54.5391 30.7788 54.5391 27.0153V23.8827C54.5391 20.979 56.8931 18.625 59.7968 18.625H62.9104C65.8141 18.625 68.1681 20.979 68.1681 23.8827V27.0155C68.1681 30.7788 65.1171 33.8298 61.3536 33.8298Z" stroke="#FFC12B" stroke-width="2.5" stroke-miterlimit="10" stroke-linecap="round" stroke-linejoin="round"/>
<path d="M50.2522 49.6031V46.3189C50.2522 45.2461 49.8261 44.2173 49.0674 43.4588L44.8145 39.2059L50.993 33.0273L53.0575 35.0919C55.2575 37.2919 58.2412 38.5277 61.3524 38.5277C64.4629 38.5277 67.4461 37.2922 69.6459 35.0933L71.7126 33.0273L77.8911 39.2059L73.6367 43.4588C72.8778 44.2175 72.4516 45.2465 72.4516 46.3195V49.6035" stroke="#FFC12B" stroke-width="2.5" stroke-miterlimit="10" stroke-linecap="round" stroke-linejoin="round"/>
<path d="M59.4255 44.8696C60.0565 44.7893 60.6997 44.748 61.3525 44.748C69.7021 44.748 76.4707 51.5168 76.4707 59.8662C76.4707 68.2156 69.7021 74.9845 61.3525 74.9845C53.0029 74.9845 46.2344 68.2158 46.2344 59.8664C46.2344 54.3291 49.2114 49.487 53.6521 46.8534" stroke="#FFC12B" stroke-width="2.5" stroke-miterlimit="10" stroke-linecap="round" stroke-linejoin="round"/>
<path d="M59.1066 60.1179L56.1061 57.1174C55.0435 56.0548 53.3206 56.0548 52.2579 57.1174C51.1953 58.1801 51.1953 59.903 52.2579 60.9656L57.423 66.1307C58.5915 67.2992 60.4861 67.2992 61.6546 66.1307L69.5054 58.28C70.568 57.2173 70.568 55.4944 69.5054 54.4318C68.4427 53.3691 66.7198 53.3691 65.6572 54.4318L59.971 60.1179C59.7321 60.3566 59.3453 60.3566 59.1066 60.1179Z" stroke="#FFC12B" stroke-width="2.5" stroke-miterlimit="10" stroke-linecap="round" stroke-linejoin="round"/>
<path d="M83.5993 21.1395L85.0025 19.7362C86.708 18.0306 89.4735 18.0306 91.181 19.7362C92.8865 21.4417 92.8865 24.2092 91.181 25.9147L77.8914 39.2063L71.7129 33.0277L79.0539 25.6856" stroke="#FFC12B" stroke-width="2.5" stroke-miterlimit="10" stroke-linecap="round" stroke-linejoin="round"/>
<path d="M50.9934 33.0276L44.8149 39.2061L31.5233 25.9147C29.8178 24.2092 29.8178 21.4417 31.5233 19.7362C33.2308 18.0306 35.9963 18.0306 37.7018 19.7362L50.9934 33.0276Z" stroke="#FFC12B" stroke-width="2.5" stroke-miterlimit="10" stroke-linecap="round" stroke-linejoin="round"/>
<path d="M78.149 98.6328H66.4824" stroke="#FFC12B" stroke-width="2.5" stroke-miterlimit="10" stroke-linecap="round" stroke-linejoin="round"/>
<path d="M44.5547 98.6316L56.2212 98.6309" stroke="#FFC12B" stroke-width="2.5" stroke-miterlimit="10" stroke-linecap="round" stroke-linejoin="round"/>
</svg>
