<svg width="121" height="121" viewBox="0 0 121 121" fill="none" xmlns="http://www.w3.org/2000/svg">
<rect x="0.75" y="0.75" width="119.5" height="119.5" rx="59.25" stroke="#FFC12B" stroke-width="1.5" stroke-dasharray="2 2"/>
<path d="M76.3205 53.0094L76.4824 52.7063C77.0285 51.6835 77.4272 50.5775 77.6408 49.4114L76.3205 53.0094ZM76.3205 53.0094L76.5455 53.2692M76.3205 53.0094L76.5455 53.2692M76.5455 53.2692C78.361 55.3654 79.3492 58.0058 79.3492 60.8255C79.3492 63.6436 78.3597 66.2841 76.5438 68.382L76.3188 68.6421L76.4811 68.9453C77.0286 69.9678 77.4272 71.0736 77.6393 72.2394L77.6393 72.2397C78.2917 75.8131 77.3089 79.3923 74.9439 82.0682L74.9439 82.0683C71.9514 85.4554 70.291 89.6167 70.291 93.7871V106.117C70.291 106.674 69.8396 107.127 69.2812 107.127H51.1647C50.6063 107.127 50.155 106.674 50.155 106.117V93.7871C50.155 92.8545 50.0627 91.8954 49.8824 90.9227L49.8099 90.5313L49.4122 90.5142C46.4706 90.3883 44.1161 87.9535 44.1161 84.981C44.1161 83.9014 44.4233 82.8758 44.9971 81.9923L45.1892 81.6965L44.975 81.4163C43.4397 79.4078 42.6064 76.9645 42.6064 74.413C42.6064 72.4375 43.1055 70.5786 43.9811 68.9489L44.1441 68.6455L43.9186 68.385C42.0988 66.2829 41.0967 63.6345 41.0967 60.8255C41.0967 58.0002 42.0906 55.3555 43.9136 53.2561L44.1397 52.9957L43.9767 52.6919C43.104 51.0652 42.6064 49.2091 42.6064 47.2381C42.6064 44.4158 43.6339 41.6967 45.4979 39.5824L45.4991 39.581C45.5132 39.5649 45.5226 39.5551 45.5312 39.547L45.5493 39.5301L45.5656 39.5114C48.5179 36.1352 50.155 32.0049 50.155 27.864V15.5341C50.155 14.9766 50.6063 14.5244 51.1647 14.5244H69.2812C69.8396 14.5244 70.291 14.9766 70.291 15.5341V26.2923V26.6795L70.6657 26.7764C73.0537 27.3942 74.8201 29.5668 74.8201 32.141C74.8201 33.7154 74.1509 35.1818 73.0098 36.2149L72.7022 36.4934L72.9192 36.8471C73.5098 37.8097 74.1899 38.7266 74.9468 39.5841L74.9468 39.5842M76.5455 53.2692L74.9468 39.5842M74.9468 39.5842C77.3089 42.2587 78.2931 45.8378 77.6409 49.4111L74.9468 39.5842ZM46.9749 40.965L46.9622 40.9778L46.9503 40.9914C45.451 42.725 44.6258 44.9412 44.6258 47.2381C44.6258 52.5099 48.9123 56.7964 54.1841 56.7964C59.2882 56.7964 63.4687 52.7783 63.7295 47.7381H65.7512C65.6264 50.6631 64.4125 53.31 62.5027 55.2828L61.9877 55.8149L62.6736 56.0938C64.4067 56.7985 66.3197 56.9823 68.2234 56.5994C71.9811 55.8524 74.966 52.8192 75.6549 49.0491L75.655 49.0487C76.192 46.0984 75.3867 43.1329 73.4318 40.9212C72.2626 39.5969 71.2637 38.1448 70.4646 36.6085L70.4645 36.6084C70.2073 36.114 70.3997 35.5051 70.8938 35.2475L70.8939 35.2474C72.0645 34.6367 72.8007 33.448 72.8007 32.141C72.8007 30.1996 71.2226 28.6216 69.2812 28.6216C68.7228 28.6216 68.2715 28.1694 68.2715 27.6118V17.0438V16.5438H67.7715H52.6744H52.1744V17.0438V27.8655C52.1744 32.5033 50.3524 37.1393 47.0244 40.9127C47.0124 40.9251 47.0019 40.9363 46.9949 40.9438L46.9935 40.9454C46.9823 40.9574 46.9781 40.9618 46.9749 40.965ZM45.7386 55.1305L45.3281 54.6917L44.9712 55.1751C43.7696 56.8021 43.1161 58.7556 43.1161 60.8255C43.1161 62.8873 43.7746 64.8449 44.9739 66.4725L45.3307 66.9568L45.7416 66.5175C47.8564 64.2564 50.8545 62.8353 54.1841 62.8353C56.2931 62.8353 58.269 63.401 59.9734 64.3906L60.2242 64.5362L60.4752 64.3908C62.918 62.9748 65.7711 62.5047 68.6161 63.0702L68.6162 63.0703C70.9933 63.5422 73.1071 64.7831 74.7177 66.5068L75.1293 66.9472L75.4861 66.4613C76.6794 64.8362 77.3298 62.8893 77.3298 60.8255C77.3298 58.7619 76.6795 56.8133 75.4858 55.1909L75.1289 54.7058L74.7177 55.1458C73.1073 56.8694 70.9934 58.1089 68.6159 58.5824C65.7635 59.1479 62.9165 58.6762 60.4751 57.2618L60.2246 57.1166L59.9739 57.2617C58.2691 58.2487 56.2929 58.8158 54.1841 58.8158C50.8546 58.8158 47.8549 57.3932 45.7386 55.1305ZM67.7715 105.107H68.2715V104.607V93.7871C68.2715 89.1453 70.0967 84.5053 73.4302 80.7301C75.3851 78.5185 76.1921 75.5529 75.6535 72.6021L75.6534 72.602C74.9644 68.8314 71.979 65.7981 68.2209 65.05C66.3184 64.6705 64.4057 64.8509 62.6721 65.5558L61.9864 65.8346L62.5011 66.3666C64.4111 68.3411 65.6263 70.9881 65.7512 73.913H63.7295C63.4687 68.8728 59.2882 64.8547 54.1841 64.8547C48.9123 64.8547 44.6258 69.1412 44.6258 74.413C44.6258 76.8749 45.5681 79.2159 47.2761 81.0051C47.4602 81.1983 47.5607 81.4576 47.5548 81.7274C47.5475 81.9935 47.4337 82.2485 47.2388 82.4343C46.5304 83.1079 46.1355 84.0138 46.1355 84.981C46.1355 86.9223 47.7136 88.5004 49.655 88.5004C49.8893 88.5004 50.1232 88.4777 50.3503 88.434L50.3503 88.4341L50.3592 88.4322C50.5968 88.382 50.8466 88.4167 51.056 88.5304C51.3077 88.6672 51.49 88.8965 51.5576 89.1592L51.5579 89.1605C51.9678 90.7351 52.1744 92.2915 52.1744 93.7871V104.607V105.107H52.6744H67.7715Z" fill="#FFC12B" stroke="#FFC12B"/>
<path d="M53.6843 52.2428V54.2693C50.1957 54.0236 47.399 51.2269 47.1533 47.7383H49.1798C49.4153 50.1131 51.3095 52.0073 53.6843 52.2428Z" fill="#FFC12B" stroke="#FFC12B"/>
<path d="M49.1798 73.9138H47.1533C47.399 70.4252 50.1957 67.6285 53.6843 67.3828V69.4093C51.3095 69.6448 49.4153 71.5389 49.1798 73.9138Z" fill="#FFC12B" stroke="#FFC12B"/>
<path d="M34.1914 43.7773L35.6194 42.3493L39.442 46.1718L38.0139 47.5999L34.1914 43.7773Z" fill="#FFC12B" stroke="#FFC12B" stroke-width="0.999849"/>
<path d="M34.1884 77.8691L38.011 74.0466L39.439 75.4747L35.6165 79.2972L34.1884 77.8691Z" fill="#FFC12B" stroke="#FFC12B" stroke-width="0.999849"/>
<path d="M31.5123 54.4035L32.415 52.5981L37.5568 55.169L36.6541 56.9743L31.5123 54.4035Z" fill="#FFC12B" stroke="#FFC12B" stroke-width="0.999522"/>
<path d="M31.5133 67.2294L36.6551 64.6585L37.5577 66.4638L32.416 69.0347L31.5133 67.2294Z" fill="#FFC12B" stroke="#FFC12B" stroke-width="0.999522"/>
<path d="M80.9882 46.1748L84.8108 42.3523L86.2388 43.7803L82.4163 47.6029L80.9882 46.1748Z" fill="#FFC12B" stroke="#FFC12B" stroke-width="0.999849"/>
<path d="M80.9834 75.4824L82.4114 74.0544L86.2339 77.8769L84.8059 79.3049L80.9834 75.4824Z" fill="#FFC12B" stroke="#FFC12B" stroke-width="0.999849"/>
<path d="M82.8248 55.1678L87.9666 52.5969L88.8693 54.4023L83.7275 56.9732L82.8248 55.1678Z" fill="#FFC12B" stroke="#FFC12B" stroke-width="0.999522"/>
<path d="M82.8258 66.5011L83.7285 64.6957L88.8702 67.2666L87.9676 69.072L82.8258 66.5011Z" fill="#FFC12B" stroke="#FFC12B" stroke-width="0.999522"/>
</svg>
