<svg width="180" height="28" viewBox="0 0 180 28" fill="none" xmlns="http://www.w3.org/2000/svg">
<g clip-path="url(#clip0_155_1435)">
<path d="M18.3119 5.37015C20.8293 5.36331 22.7283 6.61443 23.57 8.57841C23.9836 9.5311 24.1033 10.5855 23.9138 11.6066C23.7244 12.6277 23.2344 13.569 22.5065 14.3102C20.2398 16.6052 17.9716 18.9001 15.6555 21.1427C14.1614 22.5966 12.3307 23.0004 10.355 22.3551C8.3792 21.7098 7.16458 20.2849 6.79997 18.2374C6.49612 16.5171 6.95189 14.957 8.18854 13.6998C10.4502 11.399 12.7313 9.11717 15.0319 6.85433C16.0399 5.85374 17.2796 5.37698 18.3119 5.37015ZM10.4697 16.6431C10.8508 15.4869 11.6139 14.4945 12.6338 13.8289C13.7504 14.5933 14.51 15.5917 14.8618 16.8747C15.2135 18.1577 15.0676 19.3989 14.4819 20.7017C15.6593 19.5052 16.7456 18.3998 17.8166 17.3119L11.9836 11.4807C11.9578 11.4925 11.9337 11.5078 11.9122 11.5263C10.9186 12.517 9.91667 13.5001 8.93752 14.5053C8.51785 14.9296 8.2099 15.4513 8.04118 16.0236C9.01728 16.1671 9.26871 16.1762 10.4697 16.6431ZM12.0269 21.1405C12.232 19.238 9.62497 16.858 7.849 17.2861C7.64466 19.0497 9.28543 21.164 11.0211 21.3386C10.4458 20.6948 10.0296 19.9251 9.80576 19.0914C10.5259 19.7937 11.1222 20.6197 12.0269 21.1405ZM22.1464 8.36508C20.8376 6.16348 17.645 5.78997 15.7596 7.63096C14.9096 8.4615 14.188 9.12122 13.3425 9.95555C13.1906 10.1074 13.0068 10.3162 12.7424 10.5674L13.3957 11.2416L16.1979 8.43265C16.895 7.71798 17.8418 7.30065 18.8398 7.26808C20.0826 7.20583 21.1643 7.62109 22.1464 8.36508ZM12.3588 18.3862L12.5753 17.1214C13.0858 18.1698 13.1731 19.2866 13.2445 20.4618C14.2898 18.9563 14.0528 16.5657 12.6209 15.2675C12.1279 15.7048 11.818 16.2544 11.5627 16.8618C11.3949 17.2565 11.3789 17.334 11.7101 17.6422C11.9395 17.8525 12.1484 18.1516 12.3588 18.3892V18.3862Z" fill="#80B4FF"/>
<path d="M6.16974 18.8418C4.58063 17.2916 2.85782 15.7383 1.28694 14.0438C-0.536131 12.0738 -0.384207 8.91942 1.50115 6.97441C3.40019 5.01499 6.53056 4.77281 8.59291 6.54244C9.60472 7.40942 10.4494 8.47074 11.3822 9.45767L10.6887 10.1409C9.90248 9.34759 9.11856 8.56033 8.3392 7.77003C7.75549 7.166 7.00769 6.74587 6.18797 6.56142C4.51682 6.18184 2.60487 6.97441 1.81108 8.40394C2.14986 8.19289 2.45219 7.98108 2.77579 7.80647C4.33224 6.96378 6.51764 7.01769 7.93432 8.55274C8.62785 9.30432 9.37759 10.002 10.1053 10.7232C9.36696 11.471 8.6552 12.2066 7.92825 12.9248C6.63083 14.2093 5.94641 15.7459 6.00642 17.5823C6.02162 18.0447 6.12416 18.5032 6.16974 18.8418Z" fill="#80B4FF"/>
</g>
<path d="M34.26 14C34.26 14.96 34.46 15.82 34.86 16.58C35.2733 17.3267 35.84 17.9133 36.56 18.34C37.28 18.7667 38.1 18.98 39.02 18.98C39.9533 18.98 40.7733 18.7667 41.48 18.34C42.2 17.9133 42.76 17.3267 43.16 16.58C43.5733 15.82 43.78 14.96 43.78 14C43.78 13.04 43.58 12.1867 43.18 11.44C42.78 10.68 42.22 10.0867 41.5 9.66C40.7933 9.23333 39.9667 9.02 39.02 9.02C38.1 9.02 37.28 9.23333 36.56 9.66C35.84 10.0867 35.2733 10.68 34.86 11.44C34.46 12.1867 34.26 13.04 34.26 14ZM31.76 14C31.76 12.9467 31.94 11.98 32.3 11.1C32.66 10.22 33.1667 9.46 33.82 8.82C34.4867 8.16667 35.26 7.66 36.14 7.3C37.0333 6.94 37.9933 6.76 39.02 6.76C40.0733 6.76 41.04 6.94 41.92 7.3C42.8 7.66 43.5667 8.16667 44.22 8.82C44.8867 9.46 45.4 10.22 45.76 11.1C46.12 11.98 46.3 12.9467 46.3 14C46.3 15.04 46.12 16.0067 45.76 16.9C45.4 17.7933 44.8933 18.5667 44.24 19.22C43.5867 19.8733 42.8133 20.3867 41.92 20.76C41.04 21.12 40.0733 21.3 39.02 21.3C37.98 21.3 37.0133 21.12 36.12 20.76C35.2267 20.3867 34.4533 19.8733 33.8 19.22C33.16 18.5667 32.66 17.7933 32.3 16.9C31.94 16.0067 31.76 15.04 31.76 14ZM48.5252 7H50.8852V16.3C50.8852 17.1667 51.1118 17.8667 51.5652 18.4C52.0318 18.92 52.7185 19.18 53.6252 19.18C54.5185 19.18 55.1985 18.92 55.6652 18.4C56.1318 17.8667 56.3652 17.1667 56.3652 16.3V7H58.7252V16.4C58.7252 17.1733 58.5985 17.8667 58.3452 18.48C58.1052 19.08 57.7585 19.5933 57.3052 20.02C56.8518 20.4467 56.3118 20.7733 55.6852 21C55.0585 21.2267 54.3718 21.34 53.6252 21.34C52.8785 21.34 52.1918 21.2267 51.5652 21C50.9385 20.7733 50.3918 20.4467 49.9252 20.02C49.4718 19.5933 49.1252 19.08 48.8852 18.48C48.6452 17.8667 48.5252 17.1733 48.5252 16.4V7ZM64.6602 14.32H67.2202L71.9602 21H69.1202L64.6602 14.32ZM61.7802 7H64.1402V21H61.7802V7ZM63.1802 9.04V7H66.1002C67.1135 7 67.9935 7.18 68.7402 7.54C69.5002 7.9 70.0868 8.40667 70.5002 9.06C70.9135 9.7 71.1202 10.46 71.1202 11.34C71.1202 12.22 70.9135 12.9867 70.5002 13.64C70.0868 14.2933 69.5002 14.8 68.7402 15.16C67.9935 15.52 67.1135 15.7 66.1002 15.7H63.1802V13.76H66.0002C66.5335 13.76 67.0002 13.6667 67.4002 13.48C67.8135 13.2933 68.1335 13.0267 68.3602 12.68C68.5868 12.32 68.7002 11.8933 68.7002 11.4C68.7002 10.8933 68.5868 10.4667 68.3602 10.12C68.1335 9.77333 67.8135 9.50667 67.4002 9.32C67.0002 9.13333 66.5335 9.04 66.0002 9.04H63.1802ZM79.7308 7H82.0908V21H79.7308V7ZM81.1308 9.08V7H83.9508C84.9641 7 85.8441 7.18 86.5908 7.54C87.3508 7.88667 87.9374 8.38667 88.3508 9.04C88.7641 9.68 88.9708 10.4467 88.9708 11.34C88.9708 12.2333 88.7641 13.0067 88.3508 13.66C87.9374 14.3133 87.3508 14.82 86.5908 15.18C85.8441 15.5267 84.9641 15.7 83.9508 15.7H81.1308V13.62H83.9508C84.7641 13.62 85.4174 13.4267 85.9108 13.04C86.4041 12.6533 86.6508 12.0867 86.6508 11.34C86.6508 10.5933 86.4041 10.0333 85.9108 9.66C85.4174 9.27333 84.7641 9.08 83.9508 9.08H81.1308ZM94.2033 14.32H96.7633L101.503 21H98.6633L94.2033 14.32ZM91.3233 7H93.6833V21H91.3233V7ZM92.7233 9.04V7H95.6433C96.6566 7 97.5366 7.18 98.2833 7.54C99.0433 7.9 99.6299 8.40667 100.043 9.06C100.457 9.7 100.663 10.46 100.663 11.34C100.663 12.22 100.457 12.9867 100.043 13.64C99.6299 14.2933 99.0433 14.8 98.2833 15.16C97.5366 15.52 96.6566 15.7 95.6433 15.7H92.7233V13.76H95.5433C96.0766 13.76 96.5433 13.6667 96.9433 13.48C97.3566 13.2933 97.6766 13.0267 97.9033 12.68C98.1299 12.32 98.2433 11.8933 98.2433 11.4C98.2433 10.8933 98.1299 10.4667 97.9033 10.12C97.6766 9.77333 97.3566 9.50667 96.9433 9.32C96.5433 9.13333 96.0766 9.04 95.5433 9.04H92.7233ZM104.948 14C104.948 14.96 105.148 15.82 105.548 16.58C105.961 17.3267 106.528 17.9133 107.248 18.34C107.968 18.7667 108.788 18.98 109.708 18.98C110.641 18.98 111.461 18.7667 112.168 18.34C112.888 17.9133 113.448 17.3267 113.848 16.58C114.261 15.82 114.468 14.96 114.468 14C114.468 13.04 114.268 12.1867 113.868 11.44C113.468 10.68 112.908 10.0867 112.188 9.66C111.481 9.23333 110.654 9.02 109.708 9.02C108.788 9.02 107.968 9.23333 107.248 9.66C106.528 10.0867 105.961 10.68 105.548 11.44C105.148 12.1867 104.948 13.04 104.948 14ZM102.448 14C102.448 12.9467 102.628 11.98 102.988 11.1C103.348 10.22 103.854 9.46 104.508 8.82C105.174 8.16667 105.948 7.66 106.828 7.3C107.721 6.94 108.681 6.76 109.708 6.76C110.761 6.76 111.728 6.94 112.608 7.3C113.488 7.66 114.254 8.16667 114.908 8.82C115.574 9.46 116.088 10.22 116.448 11.1C116.808 11.98 116.988 12.9467 116.988 14C116.988 15.04 116.808 16.0067 116.448 16.9C116.088 17.7933 115.581 18.5667 114.928 19.22C114.274 19.8733 113.501 20.3867 112.608 20.76C111.728 21.12 110.761 21.3 109.708 21.3C108.668 21.3 107.701 21.12 106.808 20.76C105.914 20.3867 105.141 19.8733 104.488 19.22C103.848 18.5667 103.348 17.7933 102.988 16.9C102.628 16.0067 102.448 15.04 102.448 14ZM119.313 7H121.713V21H119.313V7ZM123.833 21H120.773V18.78H123.773C124.466 18.78 125.106 18.68 125.693 18.48C126.28 18.28 126.786 17.98 127.213 17.58C127.653 17.18 127.993 16.68 128.233 16.08C128.486 15.48 128.613 14.7867 128.613 14C128.613 13.2133 128.486 12.52 128.233 11.92C127.993 11.32 127.653 10.82 127.213 10.42C126.786 10.02 126.28 9.72 125.693 9.52C125.106 9.32 124.466 9.22 123.773 9.22H120.773V7H123.833C125.26 7 126.513 7.29333 127.593 7.88C128.673 8.45333 129.513 9.26667 130.113 10.32C130.726 11.36 131.033 12.5867 131.033 14C131.033 15.4133 130.726 16.6467 130.113 17.7C129.513 18.74 128.673 19.5533 127.593 20.14C126.513 20.7133 125.26 21 123.833 21ZM133.266 7H135.626V16.3C135.626 17.1667 135.853 17.8667 136.306 18.4C136.773 18.92 137.46 19.18 138.366 19.18C139.26 19.18 139.94 18.92 140.406 18.4C140.873 17.8667 141.106 17.1667 141.106 16.3V7H143.466V16.4C143.466 17.1733 143.34 17.8667 143.086 18.48C142.846 19.08 142.5 19.5933 142.046 20.02C141.593 20.4467 141.053 20.7733 140.426 21C139.8 21.2267 139.113 21.34 138.366 21.34C137.62 21.34 136.933 21.2267 136.306 21C135.68 20.7733 135.133 20.4467 134.666 20.02C134.213 19.5933 133.866 19.08 133.626 18.48C133.386 17.8667 133.266 17.1733 133.266 16.4V7ZM148.261 14C148.261 14.9867 148.481 15.8533 148.921 16.6C149.375 17.3467 149.961 17.9267 150.681 18.34C151.415 18.74 152.208 18.94 153.061 18.94C153.728 18.94 154.328 18.8533 154.861 18.68C155.395 18.5067 155.875 18.2733 156.301 17.98C156.741 17.6733 157.121 17.3333 157.441 16.96V19.76C156.855 20.24 156.221 20.6067 155.541 20.86C154.861 21.1133 154.008 21.24 152.981 21.24C151.955 21.24 150.995 21.0667 150.101 20.72C149.221 20.3733 148.455 19.8733 147.801 19.22C147.148 18.5667 146.635 17.8 146.261 16.92C145.901 16.0267 145.721 15.0533 145.721 14C145.721 12.9467 145.901 11.98 146.261 11.1C146.635 10.2067 147.148 9.43333 147.801 8.78C148.455 8.12667 149.221 7.62667 150.101 7.28C150.995 6.93333 151.955 6.76 152.981 6.76C154.008 6.76 154.861 6.88667 155.541 7.14C156.221 7.39333 156.855 7.76 157.441 8.24V11.04C157.121 10.6667 156.741 10.3333 156.301 10.04C155.875 9.73333 155.395 9.49333 154.861 9.32C154.328 9.14667 153.728 9.06 153.061 9.06C152.208 9.06 151.415 9.26667 150.681 9.68C149.961 10.08 149.375 10.6533 148.921 11.4C148.481 12.1333 148.261 13 148.261 14ZM158.374 9.18V7H168.134V9.18H164.434V21H162.054V9.18H158.374ZM170.802 16.5C171.109 17.0333 171.436 17.5067 171.782 17.92C172.142 18.32 172.536 18.6333 172.962 18.86C173.389 19.0733 173.869 19.18 174.402 19.18C175.042 19.18 175.562 19.0067 175.962 18.66C176.362 18.3133 176.562 17.8667 176.562 17.32C176.562 16.8 176.436 16.3867 176.182 16.08C175.929 15.76 175.576 15.4933 175.122 15.28C174.682 15.0533 174.169 14.8333 173.582 14.62C173.236 14.5 172.849 14.34 172.422 14.14C171.996 13.9267 171.589 13.6667 171.202 13.36C170.816 13.04 170.496 12.6533 170.242 12.2C169.989 11.7333 169.862 11.1733 169.862 10.52C169.862 9.77333 170.056 9.12 170.442 8.56C170.829 7.98667 171.349 7.54667 172.002 7.24C172.669 6.92 173.422 6.76 174.262 6.76C175.089 6.76 175.809 6.90667 176.422 7.2C177.036 7.49333 177.549 7.86667 177.962 8.32C178.389 8.77333 178.722 9.24667 178.962 9.74L177.042 10.82C176.869 10.4733 176.649 10.1533 176.382 9.86C176.116 9.55333 175.802 9.31333 175.442 9.14C175.096 8.95333 174.689 8.86 174.222 8.86C173.569 8.86 173.089 9.01333 172.782 9.32C172.476 9.61333 172.322 9.96 172.322 10.36C172.322 10.72 172.429 11.0467 172.642 11.34C172.869 11.62 173.216 11.8867 173.682 12.14C174.149 12.3933 174.756 12.6533 175.502 12.92C175.916 13.0667 176.329 13.2533 176.742 13.48C177.169 13.7067 177.556 13.9933 177.902 14.34C178.249 14.6733 178.522 15.0667 178.722 15.52C178.936 15.9733 179.042 16.5067 179.042 17.12C179.042 17.7733 178.916 18.36 178.662 18.88C178.409 19.4 178.062 19.84 177.622 20.2C177.182 20.5467 176.682 20.8133 176.122 21C175.576 21.2 175.002 21.3 174.402 21.3C173.576 21.3 172.809 21.14 172.102 20.82C171.409 20.4867 170.802 20.0467 170.282 19.5C169.762 18.9533 169.349 18.36 169.042 17.72L170.802 16.5Z" fill="#80B4FF"/>
<defs>
<clipPath id="clip0_155_1435">
<rect width="24" height="24" fill="white" transform="translate(0 2)"/>
</clipPath>
</defs>
</svg>
