<svg width="289" height="563" viewBox="0 0 289 563" fill="none" xmlns="http://www.w3.org/2000/svg">
<g clip-path="url(#clip0_0_1692)">
<g opacity="0.7">
<path d="M167.075 514.459C170.688 510.882 172.754 506.03 172.83 500.945C172.881 498.47 172.43 496.01 171.504 493.713C170.578 491.417 169.196 489.333 167.441 487.586L153.954 474.094L151.251 476.802L164.744 490.283C166.148 491.686 167.255 493.357 167.997 495.198C168.739 497.039 169.101 499.011 169.062 500.995C169.003 505.069 167.347 508.958 164.449 511.823C158.428 517.845 148.765 517.978 142.904 512.123L139.086 508.304C137.337 506.553 135.252 505.173 132.956 504.248C130.66 503.323 128.201 502.871 125.727 502.921C120.641 502.999 115.788 505.065 112.207 508.676C104.692 516.191 104.525 528.251 111.835 535.561L127.591 551.334L130.294 548.626L114.538 532.875C108.682 527.014 108.815 517.334 114.837 511.329C117.707 508.43 121.598 506.773 125.677 506.712C127.66 506.673 129.631 507.035 131.471 507.777C133.31 508.519 134.981 509.625 136.383 511.03L140.201 514.848C147.511 522.141 159.565 521.974 167.075 514.459Z" fill="white"/>
<path d="M66.8014 433.117L110.925 477.24C122.58 488.929 141.816 488.662 153.827 476.646C165.837 464.63 166.103 445.433 154.415 433.75L110.297 389.627C108.686 388.062 106.519 387.202 104.273 387.234C102.028 387.267 99.8864 388.189 98.3203 389.799L66.9735 421.146C65.364 422.711 64.4417 424.851 64.4094 427.096C64.3772 429.341 65.2375 431.506 66.8014 433.117Z" fill="#80B4FF"/>
<path d="M66.8013 433.117L87.1534 453.475L130.649 409.979L110.314 389.643C108.702 388.079 106.536 387.219 104.29 387.251C102.044 387.283 99.903 388.205 98.3369 389.815L66.99 421.162C65.3833 422.725 64.4613 424.86 64.4259 427.101C64.3905 429.341 65.2447 431.505 66.8013 433.117Z" fill="#C0DDFF"/>
<path d="M66.9678 421.162L98.3202 389.826C99.887 388.217 102.029 387.296 104.274 387.264C106.52 387.233 108.686 388.095 110.297 389.66L154.42 433.783C166.076 445.438 165.831 464.669 153.821 476.679C141.811 488.69 122.607 488.956 110.924 477.273L66.8012 433.117C65.2431 431.507 64.3859 429.345 64.4171 427.105C64.4483 424.865 65.3654 422.728 66.9678 421.162ZM113.627 474.554C123.839 484.766 140.689 484.544 151.19 474.032C161.691 463.52 161.924 446.681 151.712 436.469L107.594 392.351C107.152 391.918 106.629 391.577 106.054 391.347C105.479 391.116 104.865 391.002 104.246 391.01C103.627 391.019 103.016 391.149 102.447 391.395C101.879 391.64 101.365 391.995 100.934 392.44L69.5763 423.793C69.1321 424.224 68.7774 424.738 68.5324 425.306C68.2874 425.874 68.1571 426.485 68.1488 427.104C68.1406 427.723 68.2546 428.337 68.4843 428.912C68.714 429.487 69.055 430.01 69.4875 430.453L113.627 474.554Z" fill="white"/>
<path d="M92.8699 439.838L100.873 431.835L93.0919 424.054L101.212 415.929L108.998 423.715L117.002 415.712L124.899 423.61L116.896 431.613L124.683 439.4L116.558 447.525L108.776 439.738L100.773 447.742L92.8699 439.838Z" fill="white"/>
</g>
<g opacity="0.7">
<path d="M88.9735 242.083C90.0062 244.723 91.2536 247.273 92.7032 249.709C93.2582 250.625 93.8132 251.612 94.4959 252.656C99.1912 260.049 107.411 270.499 121.458 282.71L140.689 299.426L159.915 282.71C172.73 271.571 180.694 261.897 185.562 254.671C186.266 253.633 186.899 252.645 187.476 251.718C189.419 248.669 191.067 245.443 192.399 242.083C194.898 235.369 194.85 227.972 192.266 221.29C189.681 214.608 184.738 209.105 178.371 205.82C172.004 202.535 164.655 201.697 157.712 203.462C150.769 205.228 144.713 209.476 140.689 215.404C136.668 209.47 130.611 205.217 123.665 203.447C116.72 201.678 109.366 202.515 102.996 205.801C96.626 209.088 91.6812 214.594 89.0973 221.28C86.5133 227.966 86.4693 235.367 88.9735 242.083Z" fill="#80B4FF"/>
<path d="M106.201 204.398C112.351 202.11 119.091 201.951 125.343 203.946C131.594 205.941 136.996 209.976 140.683 215.404C144.707 209.476 150.763 205.228 157.706 203.462C164.649 201.696 171.999 202.535 178.365 205.82C184.732 209.105 189.675 214.608 192.26 221.29C194.844 227.971 194.892 235.369 192.393 242.083C191.062 245.442 189.415 248.668 187.476 251.718C186.921 252.645 186.266 253.627 185.561 254.67C180.694 261.886 172.729 271.57 159.909 282.709L140.683 299.426L121.452 282.709C107.411 270.499 99.1854 260.048 94.4734 252.656C93.8074 251.612 93.219 250.624 92.6862 249.709C91.2413 247.272 89.9977 244.722 88.9677 242.083C87.6244 238.477 87.0047 234.642 87.1438 230.796C87.2829 226.951 88.1781 223.17 89.7784 219.671C91.3787 216.171 93.6526 213.021 96.4704 210.401C99.2881 207.78 102.595 205.74 106.201 204.398ZM123.395 280.489L140.683 295.525L157.972 280.489C167.962 271.82 176.021 263.145 181.976 254.682H138.53L133.435 235.073L126.547 277.809L118.133 243.426L114.082 263.406L109.875 252.611L98.0032 252.645C102.427 259.26 110.236 269.04 123.395 280.489ZM91.7594 241.084C92.7352 243.563 93.9062 245.961 95.2615 248.255C95.5723 248.782 95.8609 249.27 96.1439 249.731L111.906 249.681L113.205 253.011L117.889 229.917L125.948 262.918L132.763 220.693L140.817 251.718H183.974C184.318 251.163 184.651 250.669 184.962 250.164C186.802 247.28 188.365 244.229 189.629 241.051C191.883 235.012 191.846 228.357 189.524 222.345C187.202 216.333 182.756 211.38 177.029 208.425C171.301 205.469 164.689 204.715 158.444 206.306C152.198 207.897 146.752 211.722 143.136 217.058L140.683 220.671L138.241 217.058C134.625 211.722 129.179 207.897 122.932 206.306C116.686 204.715 110.073 205.468 104.345 208.423C98.617 211.379 94.1706 216.331 91.8473 222.344C89.5239 228.356 89.4848 235.011 91.7372 241.051L91.7594 241.084Z" fill="white"/>
</g>
<g opacity="0.7">
<path d="M212.187 135.352L263.304 186.468C265.814 188.978 265.814 193.047 263.304 195.557L249.074 209.787C246.564 212.297 242.495 212.297 239.985 209.787L188.868 158.671C186.358 156.161 186.358 152.092 188.868 149.582L203.098 135.352C205.608 132.842 209.678 132.842 212.187 135.352Z" fill="#C0DDFF"/>
<path d="M189.617 112.779L194.758 117.92L171.438 141.239L166.297 136.098L189.617 112.779Z" fill="#C0DDFF"/>
<path d="M189.652 148.798L188.492 143.536L178.818 133.863L187.382 125.299L197.056 134.973L202.317 136.138L189.652 148.798Z" fill="#80B4FF"/>
<path d="M214.422 184.224L239.952 209.788C241.158 210.992 242.793 211.669 244.498 211.669C246.202 211.669 247.837 210.992 249.043 209.788L263.302 195.574C264.506 194.368 265.183 192.733 265.183 191.028C265.183 189.324 264.506 187.689 263.302 186.483L237.738 160.925L214.422 184.224Z" fill="#80B4FF"/>
<path d="M188.869 149.58L203.094 135.35C204.3 134.145 205.935 133.469 207.64 133.469C209.344 133.469 210.979 134.145 212.185 135.35L263.301 186.466C264.506 187.672 265.182 189.307 265.182 191.012C265.182 192.716 264.506 194.351 263.301 195.557L257.285 201.568L280.201 224.479C280.348 224.624 280.464 224.797 280.543 224.987C280.622 225.178 280.663 225.382 280.663 225.589C280.663 225.795 280.622 225.999 280.543 226.19C280.464 226.38 280.348 226.553 280.201 226.699C280.056 226.844 279.883 226.959 279.692 227.038C279.501 227.116 279.297 227.155 279.091 227.154C278.885 227.155 278.681 227.116 278.49 227.038C278.3 226.96 278.127 226.844 277.981 226.699L255.071 203.788L249.054 209.799C247.854 210.997 246.227 211.67 244.531 211.669C243.687 211.67 242.85 211.505 242.07 211.182C241.29 210.859 240.582 210.385 239.985 209.787L232.049 201.851L229.829 199.631L188.853 158.655C187.655 157.447 186.985 155.814 186.988 154.114C186.991 152.413 187.668 150.783 188.869 149.58ZM191.089 156.468L193.82 159.193L203.255 149.758L205.475 151.978L196.04 161.413L199.536 164.91L203.166 161.28L205.386 163.5L201.762 167.13L204.659 170.043L214.094 160.608L216.314 162.828L206.879 172.263L210.365 175.743L213.994 172.119L216.214 174.339L212.585 177.969L215.526 180.922L224.961 171.486L227.181 173.706L217.746 183.142L221.221 186.61L224.795 182.969L227.015 185.19L223.385 188.819L226.865 192.244L236.3 182.809L238.52 185.029L229.085 194.464L232.066 197.439L235.673 193.82L237.893 196.04L234.23 199.647L237.238 202.65L246.673 193.215L248.893 195.435L239.458 204.87L242.189 207.601C242.496 207.91 242.862 208.155 243.265 208.322C243.668 208.488 244.1 208.573 244.537 208.572C244.972 208.573 245.403 208.488 245.805 208.321C246.207 208.154 246.572 207.909 246.879 207.601L261.098 193.354C261.717 192.73 262.064 191.887 262.064 191.009C262.064 190.13 261.717 189.288 261.098 188.664L209.987 137.553C209.364 136.935 208.521 136.588 207.642 136.588C206.764 136.588 205.921 136.935 205.297 137.553L191.067 151.778C190.449 152.402 190.101 153.245 190.101 154.123C190.101 155.001 190.449 155.844 191.067 156.468H191.089Z" fill="white"/>
</g>
<g opacity="0.7">
<path d="M45.8867 471.204L97.0033 522.321C99.5132 524.831 99.5132 528.9 97.0033 531.41L82.773 545.64C80.2631 548.15 76.1938 548.15 73.6839 545.64L22.5673 494.523C20.0574 492.014 20.0574 487.944 22.5673 485.434L36.7976 471.204C39.3074 468.694 43.3768 468.694 45.8867 471.204Z" fill="#C0DDFF"/>
<path d="M23.312 448.641L28.4531 453.782L5.13376 477.102L-0.00733476 471.96L23.312 448.641Z" fill="#C0DDFF"/>
<path d="M23.3542 484.661L22.1887 479.394L12.5149 469.72L21.0787 461.156L30.7525 470.836L36.0195 471.996L23.3542 484.661Z" fill="#80B4FF"/>
<path d="M48.1245 520.087L73.6826 545.618C74.8887 546.822 76.5235 547.499 78.2281 547.499C79.9327 547.499 81.5675 546.822 82.7736 545.618L96.9985 531.393C97.5956 530.796 98.0692 530.087 98.3924 529.307C98.7155 528.528 98.8818 527.692 98.8818 526.847C98.8818 526.003 98.7155 525.167 98.3924 524.387C98.0692 523.607 97.5956 522.899 96.9985 522.302L71.4404 496.771L48.1245 520.087Z" fill="#80B4FF"/>
<path d="M22.5721 485.438L36.7969 471.213C38.003 470.009 39.6379 469.332 41.3424 469.332C43.047 469.332 44.6818 470.009 45.8879 471.213L97.0042 522.324C98.2087 523.53 98.8852 525.165 98.8852 526.869C98.8852 528.574 98.2087 530.209 97.0042 531.415L90.9879 537.459L113.899 560.37C114.193 560.664 114.358 561.063 114.358 561.48C114.358 561.896 114.193 562.295 113.899 562.59C113.604 562.884 113.205 563.049 112.789 563.049C112.372 563.049 111.973 562.884 111.679 562.59L88.7679 539.679L82.7516 545.695C81.5455 546.9 79.9106 547.576 78.2061 547.576C76.5015 547.576 74.8666 546.9 73.6605 545.695L65.7239 537.759L63.5039 535.539L22.5276 494.562C21.9278 493.962 21.4528 493.249 21.13 492.465C20.8073 491.68 20.6433 490.839 20.6474 489.991C20.6515 489.142 20.8237 488.303 21.1541 487.522C21.4844 486.74 21.9664 486.032 22.5721 485.438ZM24.7921 492.331L27.5172 495.056L36.9523 485.621L39.1723 487.841L29.7372 497.276L33.2338 500.778L36.8635 497.149L39.0835 499.369L35.4538 502.998L38.4231 505.962L47.8582 496.527L50.0782 498.747L40.6431 508.182L44.1286 511.668L47.7583 508.038L49.9783 510.258L46.3541 513.888L49.329 516.868L58.7641 507.433L60.9842 509.653L51.549 519.088L54.8957 522.474L58.5255 518.844L60.7455 521.064L57.1213 524.688L60.5901 528.162L70.0252 518.727L72.2453 520.947L62.8101 530.382L65.7905 533.363L69.3925 529.689L71.6126 531.909L67.9883 535.533L70.9909 538.541L80.4261 529.106L82.6461 531.326L73.211 540.761L75.9416 543.492C76.5653 544.11 77.4081 544.457 78.2865 544.457C79.1649 544.457 80.0077 544.11 80.6314 543.492L94.8563 529.267C95.4748 528.643 95.8219 527.8 95.8219 526.922C95.8219 526.044 95.4748 525.201 94.8563 524.577L43.7456 473.461C43.1219 472.842 42.2791 472.495 41.4007 472.495C40.5223 472.495 39.6795 472.842 39.0558 473.461L24.8254 487.691C24.2068 488.315 23.8598 489.158 23.8598 490.036C23.8598 490.915 24.2068 491.757 24.8254 492.381L24.7921 492.331Z" fill="white"/>
</g>
<g opacity="0.7">
<path d="M214.915 420.409L266.032 471.526C268.541 474.036 268.541 478.105 266.032 480.615L251.801 494.845C249.291 497.355 245.222 497.355 242.712 494.845L191.596 443.729C189.086 441.219 189.086 437.149 191.596 434.639L205.826 420.409C208.336 417.899 212.405 417.899 214.915 420.409Z" fill="#C0DDFF"/>
<path d="M283.465 488.96L288.606 494.102L265.287 517.421L260.146 512.28L283.465 488.96Z" fill="#C0DDFF"/>
<path d="M265.249 481.397L266.409 486.659L276.083 496.333L267.525 504.897L257.851 495.223L252.584 494.057L265.249 481.397Z" fill="#80B4FF"/>
<path d="M240.474 445.966L214.916 420.436C213.709 419.231 212.075 418.555 210.37 418.555C208.665 418.555 207.031 419.231 205.824 420.436L191.6 434.661C191.003 435.257 190.529 435.966 190.206 436.746C189.883 437.526 189.716 438.362 189.716 439.206C189.716 440.05 189.883 440.886 190.206 441.666C190.529 442.446 191.003 443.155 191.6 443.752L217.158 469.282L240.474 445.966Z" fill="#80B4FF"/>
<path d="M266.026 480.615L251.802 494.84C251.205 495.437 250.497 495.911 249.716 496.234C248.936 496.557 248.1 496.722 247.256 496.721C246.412 496.723 245.576 496.557 244.795 496.234C244.015 495.911 243.307 495.438 242.711 494.84L191.594 443.729C190.39 442.523 189.713 440.888 189.713 439.184C189.713 437.479 190.39 435.844 191.594 434.638L197.6 428.622L174.689 405.711C174.394 405.417 174.229 405.017 174.229 404.601C174.229 404.185 174.394 403.785 174.689 403.491C174.983 403.197 175.382 403.031 175.799 403.031C176.215 403.031 176.614 403.197 176.909 403.491L199.82 426.424L205.825 420.408C207.031 419.203 208.666 418.527 210.37 418.527C212.075 418.527 213.71 419.203 214.916 420.408L222.852 428.344L225.072 430.564L266.026 471.524C266.624 472.12 267.098 472.829 267.422 473.609C267.746 474.389 267.912 475.225 267.912 476.069C267.912 476.914 267.746 477.75 267.422 478.53C267.098 479.31 266.624 480.018 266.026 480.615ZM263.806 473.722L261.081 470.997L251.646 480.432L249.426 478.212L258.861 468.777L255.365 465.275L251.735 468.904L249.515 466.684L253.206 463.088L250.236 460.124L240.801 469.559L238.581 467.339L248.016 457.904L244.531 454.419L240.901 458.048L238.681 455.828L242.305 452.199L239.331 449.218L229.895 458.653L227.675 456.433L237.111 446.998L233.675 443.596L230.045 447.226L227.825 445.006L231.449 441.381L227.981 437.907L218.546 447.342L216.325 445.122L225.761 435.687L222.786 432.707L219.245 436.375L217.025 434.155L220.649 430.531L217.646 427.567L208.211 437.002L205.991 434.782L215.426 425.347L212.696 422.617C212.072 421.998 211.229 421.651 210.351 421.651C209.472 421.651 208.63 421.998 208.006 422.617L193.798 436.836C193.179 437.46 192.832 438.302 192.832 439.181C192.832 440.059 193.179 440.902 193.798 441.526L244.908 492.642C245.216 492.951 245.582 493.196 245.985 493.363C246.388 493.53 246.82 493.615 247.256 493.613C247.691 493.615 248.123 493.53 248.525 493.363C248.927 493.197 249.292 492.951 249.598 492.642L263.829 478.412C264.137 478.105 264.382 477.74 264.549 477.338C264.716 476.936 264.801 476.505 264.8 476.069C264.801 475.633 264.716 475.201 264.549 474.798C264.383 474.395 264.138 474.029 263.829 473.722H263.806Z" fill="white"/>
</g>
<g opacity="0.7">
<path d="M157.611 85.6821C140.894 94.2903 119.543 101.972 107.472 89.9002C95.4005 77.8287 103.082 56.4776 111.696 39.7607L115.808 47.32C115.808 47.32 108.371 63.0433 121.358 76.025C134.345 89.0066 150.063 81.575 150.063 81.575L157.611 85.6821Z" fill="#80B4FF"/>
<path d="M106.14 91.2318C88.896 73.9822 108.538 40.6817 117.978 24.6753C122.973 16.1726 133.23 1.67575 145.49 0.121728C151.007 -0.577582 156.196 1.45375 160.903 6.16577L158.244 8.82425C154.359 4.9392 150.33 3.27417 145.962 3.82918C134.901 5.23335 124.971 20.1964 121.214 26.5845C112.956 40.5985 93.6135 73.3939 108.799 88.5844C123.984 103.775 156.785 84.433 170.793 76.1745C177.159 72.4171 192.122 62.488 193.548 51.4211C194.103 47.0587 192.477 43.0405 188.553 39.1388L191.212 36.4803C195.935 41.1923 197.955 46.3761 197.256 51.8929C196.584 57.1599 192.51 67.7272 172.702 79.4102C156.696 88.8508 123.39 108.493 106.14 91.2318Z" fill="white"/>
<path d="M163.478 3.60156L172.913 13.0367C173.94 14.0693 174.516 15.4659 174.516 16.9218C174.516 18.3776 173.94 19.7742 172.913 20.8068C172.401 21.32 171.793 21.7271 171.124 22.0049C170.454 22.2827 169.737 22.4257 169.012 22.4257C168.287 22.4257 167.569 22.2827 166.9 22.0049C166.23 21.7271 165.622 21.32 165.11 20.8068L155.675 11.3717L163.478 3.60156Z" fill="#80B4FF"/>
<path d="M193.781 33.9101L184.346 24.475C183.307 23.448 181.905 22.8721 180.444 22.8721C178.984 22.8721 177.582 23.448 176.543 24.475C175.516 25.5139 174.94 26.9159 174.94 28.3767C174.94 29.8375 175.516 31.2395 176.543 32.2784L185.978 41.7135L193.781 33.9101Z" fill="#80B4FF"/>
<path d="M69.8532 151.173C68.1246 149.448 66.7532 147.399 65.8174 145.143C64.8817 142.887 64.4 140.469 64.4 138.027C64.4 135.585 64.8817 133.167 65.8174 130.911C66.7532 128.656 68.1246 126.607 69.8532 124.882L106.145 88.5898L108.798 91.2317L72.5117 127.524C71.1346 128.901 70.0422 130.536 69.2968 132.335C68.5515 134.134 68.1679 136.063 68.1679 138.011C68.1679 139.958 68.5515 141.887 69.2968 143.686C70.0422 145.485 71.1346 147.12 72.5117 148.497C73.8889 149.875 75.5238 150.967 77.3232 151.712C79.1225 152.458 81.051 152.841 82.9986 152.841C84.9462 152.841 86.8747 152.458 88.6741 151.712C90.4734 150.967 92.1083 149.875 93.4855 148.497L120.198 121.79C123.685 118.303 128.415 116.344 133.346 116.344C138.278 116.344 143.007 118.303 146.494 121.79C149.981 125.278 151.94 130.007 151.94 134.939C151.94 139.87 149.981 144.6 146.494 148.087L114.454 180.127L111.795 177.469L143.836 145.428C145.236 144.056 146.351 142.419 147.115 140.614C147.879 138.808 148.277 136.868 148.287 134.908C148.297 132.947 147.918 131.003 147.172 129.19C146.427 127.377 145.329 125.729 143.942 124.342C142.556 122.956 140.908 121.858 139.095 121.112C137.281 120.366 135.338 119.988 133.377 119.997C131.416 120.007 129.477 120.406 127.671 121.17C125.865 121.934 124.229 123.048 122.857 124.449L96.1495 151.173C92.6605 154.656 87.9317 156.612 83.0014 156.612C78.0711 156.612 73.3423 154.656 69.8532 151.173Z" fill="white"/>
<path d="M113.133 191.211C106.286 191.211 100.734 185.66 100.734 178.812C100.734 171.964 106.286 166.413 113.133 166.413C119.981 166.413 125.532 171.964 125.532 178.812C125.532 185.66 119.981 191.211 113.133 191.211Z" fill="#80B4FF"/>
<path d="M113.133 185.033C109.697 185.033 106.911 182.248 106.911 178.811C106.911 175.375 109.697 172.59 113.133 172.59C116.569 172.59 119.354 175.375 119.354 178.811C119.354 182.248 116.569 185.033 113.133 185.033Z" fill="#C0DDFF"/>
</g>
<g opacity="0.7">
<path d="M176.41 327.149L200.531 351.264L227.171 324.624L203.056 300.509C199.523 296.976 194.732 294.991 189.736 294.991C184.74 294.991 179.948 296.976 176.415 300.509C172.883 304.041 170.898 308.833 170.898 313.829C170.898 318.825 172.883 323.616 176.415 327.149H176.41Z" fill="#80B4FF"/>
<path d="M200.53 351.264L224.64 375.396C226.389 377.146 228.465 378.534 230.751 379.481C233.036 380.429 235.486 380.916 237.96 380.916C240.434 380.916 242.884 380.429 245.169 379.481C247.455 378.534 249.531 377.146 251.28 375.396C253.033 373.649 254.422 371.573 255.369 369.287C256.316 367.001 256.801 364.55 256.797 362.076C256.801 359.601 256.315 357.15 255.367 354.864C254.419 352.578 253.028 350.502 251.275 348.756L227.165 324.641L200.53 351.264Z" fill="#C0DDFF"/>
<path d="M227.165 324.624L251.275 348.756C253.028 350.502 254.419 352.578 255.367 354.864C256.315 357.15 256.801 359.601 256.797 362.076C256.801 364.55 256.316 367.001 255.369 369.287C254.422 371.573 253.033 373.649 251.28 375.396C249.533 377.148 247.457 378.538 245.171 379.484C242.885 380.431 240.434 380.917 237.96 380.913C235.486 380.917 233.035 380.431 230.749 379.484C228.463 378.538 226.387 377.148 224.64 375.396L200.53 351.287L227.165 324.624ZM226.554 373.465C228.05 374.964 229.828 376.152 231.786 376.96C233.744 377.768 235.842 378.179 237.96 378.171C240.079 378.177 242.178 377.763 244.136 376.952C246.093 376.141 247.871 374.95 249.365 373.448C250.864 371.958 252.052 370.186 252.862 368.234C253.672 366.282 254.087 364.189 254.083 362.076C254.089 359.957 253.674 357.858 252.864 355.9C252.053 353.942 250.862 352.165 249.36 350.671L227.159 328.47L204.36 351.275L226.554 373.465Z" fill="white"/>
<path d="M168.833 378.016C172.136 380.214 176.098 381.201 180.047 380.809C183.995 380.417 187.685 378.669 190.491 375.864C193.296 373.058 195.044 369.368 195.436 365.419C195.829 361.471 194.842 357.509 192.643 354.206L168.833 378.016Z" fill="#C0DDFF"/>
<path d="M164.055 373.237L187.865 349.427C184.562 347.229 180.6 346.242 176.652 346.634C172.704 347.026 169.013 348.774 166.208 351.579C163.402 354.385 161.655 358.075 161.262 362.024C160.87 365.972 161.857 369.934 164.055 373.237Z" fill="#C0DDFF"/>
<path d="M164.055 373.238C164.072 373.269 164.093 373.299 164.116 373.326C165.349 375.151 166.92 376.723 168.745 377.955L168.834 378.016L192.644 354.206C192.628 354.175 192.61 354.145 192.588 354.118C191.974 353.205 191.274 352.353 190.496 351.576C189.719 350.801 188.869 350.102 187.959 349.489L187.865 349.428L164.055 373.238Z" fill="#80B4FF"/>
<path d="M166.209 351.581C167.8 349.982 169.691 348.713 171.774 347.847C173.857 346.981 176.091 346.536 178.347 346.536V349.245C175.481 349.231 172.675 350.072 170.289 351.659C167.902 353.246 166.042 355.508 164.946 358.156C163.85 360.804 163.567 363.719 164.134 366.529C164.701 369.338 166.092 371.915 168.129 373.931C168.782 374.587 169.497 375.176 170.266 375.691C172.14 376.954 174.284 377.761 176.526 378.045C178.768 378.33 181.046 378.085 183.177 377.33C185.307 376.575 187.231 375.331 188.793 373.699C190.356 372.066 191.514 370.089 192.175 367.927C192.835 365.766 192.98 363.48 192.596 361.252C192.213 359.025 191.313 356.918 189.969 355.101C188.624 353.285 186.872 351.808 184.854 350.791C182.836 349.774 180.607 349.244 178.347 349.245V346.536C181.772 346.531 185.121 347.554 187.959 349.472C189.794 350.706 191.371 352.283 192.605 354.118C194.427 356.817 195.444 359.978 195.537 363.233C195.63 366.488 194.796 369.702 193.132 372.501C191.467 375.3 189.042 377.568 186.137 379.041C183.233 380.513 179.97 381.13 176.728 380.818C173.487 380.506 170.401 379.279 167.83 377.28C165.26 375.281 163.311 372.592 162.21 369.528C161.11 366.463 160.904 363.148 161.615 359.971C162.327 356.793 163.928 353.884 166.231 351.581H166.209Z" fill="white"/>
</g>
</g>
<defs>
<clipPath id="clip0_0_1692">
<rect width="288.604" height="563" fill="white" transform="matrix(-1 0 0 1 288.604 0)"/>
</clipPath>
</defs>
</svg>
